<svg width="17" height="15" viewBox="0 0 17 15" fill="none" xmlns="http://www.w3.org/2000/svg">
<path d="M9.13731 0.655107C9.52901 0.263402 10.1641 0.263402 10.5558 0.655107L16.5739 6.67326C16.7621 6.86136 16.8677 7.11648 16.8677 7.3825C16.8677 7.64852 16.7621 7.90364 16.5739 8.09175L10.5558 14.1099C10.1641 14.5016 9.52902 14.5016 9.13731 14.1099C8.7456 13.7182 8.74561 13.0831 9.13731 12.6914L13.4432 8.38552L1.82236 8.38553C1.26841 8.38553 0.819336 7.93646 0.819336 7.3825C0.819336 6.82855 1.26841 6.37948 1.82236 6.37948L13.4432 6.37948L9.13731 2.0736C8.7456 1.68189 8.7456 1.04681 9.13731 0.655107Z" fill="#FCFCFC"/>
</svg>
