<svg width="19" height="17" viewBox="0 0 19 17" fill="none" xmlns="http://www.w3.org/2000/svg">
<path d="M9.1705 0.954505C8.73116 0.515165 8.01885 0.515165 7.57951 0.954505L0.829505 7.70451C0.618527 7.91548 0.5 8.20163 0.5 8.5C0.5 8.79837 0.618527 9.08452 0.829505 9.2955L7.57951 16.0455C8.01884 16.4848 8.73116 16.4848 9.1705 16.0455C9.60984 15.6062 9.60983 14.8938 9.17049 14.4545L4.34099 9.625L17.375 9.625C17.9963 9.625 18.5 9.12132 18.5 8.5C18.5 7.87868 17.9963 7.375 17.375 7.375L4.34099 7.375L9.1705 2.5455C9.60984 2.10616 9.60984 1.39384 9.1705 0.954505Z" fill="#0A265F"/>
</svg>
