<svg width="82" height="83" viewBox="0 0 82 83" fill="none" xmlns="http://www.w3.org/2000/svg">
<path d="M13.4211 18.4122L0.887695 5.88262L6.35636 0.414062L18.8857 12.9473H77.792C78.3944 12.9473 78.9885 13.0882 79.5268 13.3584C80.0651 13.6289 80.5327 14.0212 80.8925 14.5045C81.2522 14.9877 81.4939 15.5484 81.5984 16.1416C81.703 16.7348 81.6673 17.3442 81.4944 17.9212L72.2191 48.8391C71.9805 49.6357 71.4913 50.3339 70.8244 50.8303C70.1574 51.3268 69.3482 51.5948 68.5167 51.5948H21.1504V59.3242H63.6626V67.0537H17.2857C16.2607 67.0537 15.2777 66.6464 14.5531 65.9217C13.8282 65.1969 13.4211 64.2139 13.4211 63.1889V18.4122ZM19.2181 82.5125C17.6807 82.5125 16.2061 81.9019 15.119 80.8146C14.0318 79.7275 13.4211 78.253 13.4211 76.7155C13.4211 75.1781 14.0318 73.7035 15.119 72.6164C16.2061 71.5292 17.6807 70.9184 19.2181 70.9184C20.7557 70.9184 22.2301 71.5292 23.3172 72.6164C24.4045 73.7035 25.0153 75.1781 25.0153 76.7155C25.0153 78.253 24.4045 79.7275 23.3172 80.8146C22.2301 81.9019 20.7557 82.5125 19.2181 82.5125ZM65.595 82.5125C64.0574 82.5125 62.583 81.9019 61.4958 80.8146C60.4087 79.7275 59.7979 78.253 59.7979 76.7155C59.7979 75.1781 60.4087 73.7035 61.4958 72.6164C62.583 71.5292 64.0574 70.9184 65.595 70.9184C67.1324 70.9184 68.607 71.5292 69.6941 72.6164C70.7812 73.7035 71.392 75.1781 71.392 76.7155C71.392 78.253 70.7812 79.7275 69.6941 80.8146C68.607 81.9019 67.1324 82.5125 65.595 82.5125Z" fill="#246FFF"/>
</svg>
