<svg width="32" height="32" viewBox="0 0 32 32" fill="none" xmlns="http://www.w3.org/2000/svg">
<path d="M0.798052 0.887895C1.68374 0.00221187 3.11971 0.00221187 4.0054 0.887895L16.0093 12.8918L28.0133 0.887895C28.8989 0.00221187 30.3349 0.00221187 31.2206 0.887895C32.1063 1.77358 32.1063 3.20956 31.2206 4.09524L19.2167 16.0992L31.2206 28.1031C32.1063 28.9888 32.1063 30.4248 31.2206 31.3105C30.3349 32.1961 28.8989 32.1961 28.0133 31.3105L16.0093 19.3065L4.0054 31.3105C3.11971 32.1961 1.68374 32.1961 0.798052 31.3105C-0.0876319 30.4248 -0.0876319 28.9888 0.798052 28.1031L12.802 16.0992L0.798052 4.09524C-0.0876319 3.20956 -0.0876319 1.77358 0.798052 0.887895Z" fill="#D40D00"/>
</svg>
