<svg width="41" height="41" viewBox="0 0 41 41" fill="none" xmlns="http://www.w3.org/2000/svg">
<path d="M20.7258 0.115234C15.2507 0.115234 14.5636 0.139175 12.4133 0.237036C10.2671 0.335317 8.80218 0.675101 7.52037 1.17365C6.19445 1.68857 5.06971 2.37738 3.94917 3.49837C2.82779 4.61895 2.139 5.74372 1.62241 7.06926C1.12262 8.35153 0.782429 9.81693 0.685831 11.9623C0.589652 14.1127 0.564453 14.8003 0.564453 20.2755C0.564453 25.7507 0.588813 26.4357 0.686251 28.5861C0.784949 30.7323 1.12472 32.1973 1.62283 33.4792C2.13816 34.8051 2.82695 35.9299 3.94791 37.0505C5.06803 38.1719 6.19277 38.8624 7.51785 39.3773C8.8005 39.8758 10.2659 40.2156 12.4116 40.3139C14.562 40.4118 15.2486 40.4357 20.7232 40.4357C26.1987 40.4357 26.8837 40.4118 29.0341 40.3139C31.1802 40.2156 32.6468 39.8758 33.9295 39.3773C35.255 38.8624 36.378 38.1719 37.4982 37.0505C38.6195 35.9299 39.3083 34.8051 39.8249 33.4796C40.3205 32.1973 40.6607 30.7319 40.7615 28.5865C40.8581 26.4361 40.8833 25.7507 40.8833 20.2755C40.8833 14.8003 40.8581 14.1132 40.7615 11.9627C40.6607 9.81651 40.3205 8.35153 39.8249 7.06968C39.3083 5.74372 38.6195 4.61895 37.4982 3.49837C36.3768 2.37696 35.2554 1.68815 33.9282 1.17365C32.643 0.675101 31.1773 0.335317 29.0311 0.237036C26.8808 0.139175 26.1962 0.115234 20.7195 0.115234H20.7258ZM18.9173 3.74828C19.454 3.74744 20.0529 3.74828 20.7258 3.74828C26.1084 3.74828 26.7464 3.7676 28.8719 3.8642C30.8375 3.95408 31.9043 4.28252 32.6149 4.55847C33.5557 4.92387 34.2264 5.36068 34.9316 6.06628C35.6372 6.77189 36.074 7.4439 36.4402 8.38471C36.7161 9.09452 37.045 10.1613 37.1344 12.127C37.231 14.2522 37.252 14.8906 37.252 20.2709C37.252 25.6511 37.231 26.2895 37.1344 28.4147C37.0446 30.3804 36.7161 31.4472 36.4402 32.157C36.0748 33.0978 35.6372 33.7677 34.9316 34.4729C34.226 35.1785 33.5561 35.6153 32.6149 35.9807C31.9051 36.2579 30.8375 36.5855 28.8719 36.6754C26.7468 36.772 26.1084 36.793 20.7258 36.793C15.3427 36.793 14.7048 36.772 12.5796 36.6754C10.614 36.5847 9.54725 36.2562 8.8362 35.9803C7.89542 35.6149 7.22343 35.1781 6.51784 34.4725C5.81226 33.7669 5.37546 33.0965 5.00923 32.1553C4.7333 31.4455 4.40444 30.3787 4.31498 28.4131C4.21839 26.2878 4.19907 25.6494 4.19907 20.2658C4.19907 14.8822 4.21839 14.2471 4.31498 12.1219C4.40486 10.1563 4.7333 9.08948 5.00923 8.37883C5.37463 7.43802 5.81226 6.76601 6.51784 6.0604C7.22343 5.3548 7.89542 4.91799 8.8362 4.55175C9.54683 4.27454 10.614 3.94694 12.5796 3.85664C14.4393 3.77264 15.16 3.74744 18.9173 3.74324V3.74828ZM31.4868 7.09572C30.1512 7.09572 29.0676 8.17807 29.0676 9.51411C29.0676 10.8497 30.1512 11.9333 31.4868 11.9333C32.8224 11.9333 33.906 10.8497 33.906 9.51411C33.906 8.17849 32.8224 7.09488 31.4868 7.09488V7.09572ZM20.7258 9.92235C15.0084 9.92235 10.373 14.5579 10.373 20.2755C10.373 25.993 15.0084 30.6265 20.7258 30.6265C26.4431 30.6265 31.0769 25.993 31.0769 20.2755C31.0769 14.5579 26.4427 9.92235 20.7253 9.92235H20.7258ZM20.7258 13.5554C24.4368 13.5554 27.4456 16.5639 27.4456 20.2755C27.4456 23.9866 24.4368 26.9956 20.7258 26.9956C17.0143 26.9956 14.0059 23.9866 14.0059 20.2755C14.0059 16.5639 17.0143 13.5554 20.7258 13.5554Z" fill="white"/>
</svg>
