<svg width="49" height="49" viewBox="0 0 49 49" fill="none" xmlns="http://www.w3.org/2000/svg">
<path d="M7.47461 9.89256C7.47461 8.5577 8.55673 7.47559 9.89158 7.47559H39.109C40.4438 7.47559 41.5259 8.5577 41.5259 9.89256V39.1098C41.5259 40.4447 40.4438 41.5268 39.109 41.5268H9.89158C8.55673 41.5268 7.47461 40.4447 7.47461 39.1098V9.89256Z" fill="white"/>
<path d="M15.118 18.0495C16.7494 18.0495 18.072 16.727 18.072 15.0955C18.072 13.4641 16.7494 12.1416 15.118 12.1416C13.4866 12.1416 12.1641 13.4641 12.1641 15.0955C12.1641 16.727 13.4866 18.0495 15.118 18.0495Z" fill="#0A3D62"/>
<path d="M20.7773 20.2325H25.6729V22.4753C25.6729 22.4753 27.0014 19.8183 30.6161 19.8183C33.8405 19.8183 36.5116 21.4067 36.5116 26.2484V36.458H31.4383V27.4855C31.4383 24.6294 29.9135 24.3152 28.7516 24.3152C26.3402 24.3152 25.9273 26.3952 25.9273 27.8581V36.458H20.7773V20.2325Z" fill="#0A3D62"/>
<path d="M12.543 20.2326H17.693V36.4581H12.543V20.2326Z" fill="#0A3D62"/>
</svg>
