<svg width="268" height="36" viewBox="0 0 268 36" fill="none" xmlns="http://www.w3.org/2000/svg">
<path d="M36.6892 15.9023C33.8833 15.4084 30.6109 15.4701 29.3212 15.5867C28.985 15.6005 28.546 15.6622 28.0932 15.7377C27.6267 15.134 27.0573 14.3862 26.9681 14.2627C25.1981 11.6901 25.0129 10.414 25.7881 8.58917C25.7881 8.57545 25.7881 8.54801 25.7881 8.52743C26.1997 7.72477 26.4536 6.82606 26.4536 5.86561C26.4536 2.62752 23.826 0 20.5879 0C17.3499 0 14.7223 2.62752 14.7223 5.86561C14.7223 6.73001 14.9213 7.53954 15.2506 8.2736C15.2506 8.28046 15.2437 8.28732 15.2437 8.29418C15.5593 9.1037 15.7445 9.75543 15.7308 10.4277C15.6416 11.8616 14.2009 14.6675 12.4721 17.144C10.7433 19.6206 7.96488 22.4197 7.73849 22.6392C4.98062 25.3696 3.30669 25.054 1.76997 26.3849C1.77683 26.3918 1.79741 26.3987 1.80427 26.4055C1.53672 26.6319 1.28975 26.8789 1.07022 27.1602C1.06336 27.1739 1.0565 27.1808 1.04277 27.1876C0.864405 27.4483 0.692896 27.7227 0.548829 28.0109C0.528248 28.052 0.500806 28.0932 0.480225 28.1343C0.356739 28.395 0.260694 28.6763 0.18523 28.9576C0.164649 29.0262 0.137207 29.0948 0.123486 29.1634C0.0480225 29.5201 0 29.8769 0 30.2542C0 33.0258 2.2502 35.276 5.02178 35.276C7.38175 35.276 9.35067 33.6432 9.88578 31.441C9.89264 31.4479 9.89264 31.4548 9.8995 31.4616C10.2014 30.1033 10.9148 28.8821 11.7106 27.757C12.4721 26.6799 13.2885 25.6303 14.2078 24.6836C16.163 22.6529 18.5161 20.9584 21.0887 19.6549C22.159 19.113 23.2635 18.6327 24.3954 18.2143C25.1569 17.933 29.3006 16.5335 32.5455 16.2796C33.6706 16.1905 34.8026 16.1356 35.9346 16.0875C36.1884 16.0807 36.4422 16.067 36.6961 16.0601C37.0871 16.0327 36.9019 15.9435 36.6892 15.9023ZM25.4314 16.3414C23.7506 16.7118 22.2207 17.2881 20.5468 17.9741C17.7478 19.1198 15.0791 20.4988 12.7603 22.5431C12.0742 23.1331 10.9697 24.3063 10.908 24.368C10.9286 24.2994 10.9423 24.2308 10.9629 24.1622C10.9972 24.0456 11.0452 23.8878 11.1001 23.7231C11.1755 23.483 11.251 23.2498 11.3333 23.0165C11.937 21.3426 12.87 19.7853 13.7825 18.2623C14.5097 17.048 15.3878 15.9229 16.3825 14.9144C17.6174 13.659 19.0512 12.6093 20.6154 11.8067C23.0783 13.0141 24.6218 14.4754 25.644 15.7788C25.6577 15.7994 25.8018 15.9915 25.9459 16.2042C25.692 16.2728 25.5 16.3208 25.4314 16.3414Z" fill="#49CCF9"/>
<path d="M75.521 23.2909C79.7881 21.5484 82.1413 17.8095 82.1413 12.7671C82.1413 5.57059 77.3253 1.44751 68.9282 1.44751H57.4371C56.7442 1.44751 56.1816 2.01006 56.1816 2.70296V33.458C56.1816 34.1509 56.7442 34.7134 57.4371 34.7134H59.5501C60.243 34.7134 60.8055 34.1509 60.8055 33.458V24.7865C60.8055 24.6081 60.9496 24.4572 61.1348 24.4572H68.9351C69.5456 24.4572 70.1082 24.4229 70.5884 24.3954C70.705 24.3748 70.8148 24.4434 70.8834 24.5395L77.1881 34.144C77.4213 34.5007 77.8124 34.7134 78.2377 34.7134H80.5085C80.9818 34.7134 81.4003 34.4596 81.6199 34.0411C81.8394 33.6226 81.8051 33.1287 81.5375 32.7445L75.3563 23.7917C75.3015 23.7094 75.2877 23.6202 75.3152 23.5242C75.3358 23.4213 75.4112 23.3321 75.521 23.2909ZM77.6614 12.8632C77.6614 17.6037 74.6429 20.1146 68.9351 20.1146H61.128C60.9496 20.1146 60.7987 19.9705 60.7987 19.7921V6.12628C60.7987 5.94791 60.9427 5.79698 61.128 5.79698H68.9282C74.5605 5.79698 77.6614 8.30787 77.6614 12.8632Z" fill="#FCFCFC"/>
<path d="M113.588 16.2453C113.492 16.1218 113.499 15.9435 113.609 15.8268L124.798 3.54678C125.134 3.17632 125.223 2.65494 125.018 2.19529C124.812 1.73565 124.373 1.44751 123.872 1.44751H121.622C121.272 1.44751 120.936 1.59158 120.702 1.85227L104.944 18.914C104.807 19.0649 104.636 19.0169 104.588 18.9963C104.539 18.9757 104.382 18.9003 104.382 18.6945V2.70296C104.382 2.01006 103.819 1.44751 103.126 1.44751H101.013C100.32 1.44751 99.7578 2.01006 99.7578 2.70296V33.458C99.7578 34.1509 100.32 34.7134 101.013 34.7134H103.126C103.819 34.7134 104.382 34.1509 104.382 33.458V26.0968C104.382 26.0145 104.409 25.939 104.464 25.8773L109.904 19.8744C109.966 19.8058 110.055 19.7647 110.151 19.7647C110.151 19.7647 110.151 19.7647 110.158 19.7647C110.254 19.7715 110.343 19.8127 110.405 19.8882L121.505 34.2195C121.745 34.5282 122.109 34.7065 122.5 34.7065H125.045C125.525 34.7065 125.958 34.439 126.17 34.0136C126.383 33.5814 126.335 33.0806 126.047 32.6965L113.588 16.2453Z" fill="#FCFCFC"/>
<path d="M145.574 1.44751H143.461C142.768 1.44751 142.205 2.01006 142.205 2.70296V33.458C142.205 34.1509 142.768 34.7134 143.461 34.7134H145.574C146.266 34.7134 146.829 34.1509 146.829 33.458V2.70296C146.829 2.01006 146.266 1.44751 145.574 1.44751Z" fill="#FCFCFC"/>
<path d="M185.947 1.44751H162.724C162.031 1.44751 161.469 2.01006 161.469 2.70296V4.54154C161.469 5.23443 162.031 5.79698 162.724 5.79698H171.67C171.848 5.79698 171.999 5.94105 171.999 6.12628V33.458C171.999 34.1509 172.562 34.7134 173.255 34.7134H175.368C176.061 34.7134 176.623 34.1509 176.623 33.458V6.12628C176.623 5.94791 176.767 5.79698 176.953 5.79698H185.947C186.639 5.79698 187.202 5.23443 187.202 4.54154V2.70296C187.202 2.01006 186.639 1.44751 185.947 1.44751Z" fill="#FCFCFC"/>
<path d="M261.203 23.7917C261.148 23.7094 261.134 23.6202 261.162 23.5242C261.189 23.4213 261.272 23.3321 261.381 23.2909C265.649 21.5484 268.002 17.8095 268.002 12.7671C268.002 5.57059 263.186 1.44751 254.789 1.44751H243.291C242.598 1.44751 242.035 2.01006 242.035 2.70296V33.458C242.035 34.1509 242.598 34.7134 243.291 34.7134H245.404C246.096 34.7134 246.659 34.1509 246.659 33.458V24.7865C246.659 24.6081 246.803 24.4572 246.988 24.4572H254.789C255.399 24.4572 255.996 24.4229 256.428 24.3954C256.511 24.3817 256.648 24.4091 256.737 24.5395L263.042 34.144C263.275 34.5007 263.666 34.7134 264.091 34.7134H266.362C266.835 34.7134 267.254 34.4596 267.473 34.0411C267.693 33.6226 267.659 33.1287 267.391 32.7445L261.203 23.7917ZM263.515 12.8632C263.515 17.6037 260.496 20.1146 254.789 20.1146H246.988C246.81 20.1146 246.659 19.9705 246.659 19.7921V6.12628C246.659 5.94791 246.803 5.79698 246.988 5.79698H254.789C260.414 5.79698 263.515 8.30787 263.515 12.8632Z" fill="#FCFCFC"/>
<path d="M202.259 5.79698H224.199C224.453 5.79698 224.665 5.59117 224.665 5.33048V1.91402C224.665 1.66018 224.46 1.44751 224.199 1.44751H202.259C202.006 1.44751 201.793 1.65332 201.793 1.91402V5.33048C201.793 5.59117 202.006 5.79698 202.259 5.79698Z" fill="#49CCF9"/>
<path d="M224.802 30.3639H206.423V20.0254H222.263C222.517 20.0254 222.73 19.8196 222.73 19.5589V16.1836C222.73 15.9297 222.524 15.7171 222.263 15.7171H202.265C202.011 15.7171 201.799 15.9229 201.799 16.1836V34.2469C201.799 34.5007 202.005 34.7134 202.265 34.7134H224.808C225.062 34.7134 225.275 34.5076 225.275 34.2469V30.8304C225.268 30.5766 225.055 30.3639 224.802 30.3639Z" fill="#FCFCFC"/>
</svg>
