<svg width="35" height="29" viewBox="0 0 35 29" fill="none" xmlns="http://www.w3.org/2000/svg">
<path d="M29.8622 12.9433C27.5784 12.5412 24.9149 12.5915 23.8652 12.6864C23.5916 12.6976 23.2342 12.7478 22.8657 12.8093C22.486 12.3179 22.0225 11.7092 21.9499 11.6087C20.5093 9.51481 20.3586 8.47622 20.9895 6.99093C20.9895 6.97976 20.9895 6.95742 20.9895 6.94067C21.3246 6.28737 21.5312 5.55589 21.5312 4.77416C21.5312 2.1386 19.3926 0 16.757 0C14.1214 0 11.9828 2.1386 11.9828 4.77416C11.9828 5.47772 12.1448 6.1366 12.4128 6.73407C12.4128 6.73966 12.4072 6.74524 12.4072 6.75082C12.6641 7.40971 12.8148 7.94017 12.8037 8.48739C12.7311 9.6544 11.5585 11.9382 10.1514 13.9539C8.74424 15.9697 6.4828 18.2479 6.29853 18.4266C4.05384 20.6489 2.69139 20.3921 1.44062 21.4753C1.44621 21.4809 1.46296 21.4865 1.46854 21.4921C1.25077 21.6763 1.04976 21.8774 0.871074 22.1063C0.86549 22.1175 0.859906 22.123 0.848739 22.1286C0.70356 22.3408 0.563964 22.5642 0.446705 22.7987C0.429953 22.8322 0.407618 22.8657 0.390866 22.8992C0.290358 23.1114 0.212185 23.3403 0.150763 23.5693C0.134011 23.6251 0.111676 23.6809 0.100509 23.7368C0.0390867 24.0271 0 24.3175 0 24.6246C0 26.8804 1.83149 28.7119 4.08735 28.7119C6.00818 28.7119 7.61073 27.383 8.04627 25.5906C8.05185 25.5962 8.05185 25.6018 8.05743 25.6073C8.30312 24.5017 8.88384 23.5078 9.53156 22.5921C10.1514 21.7154 10.8158 20.8611 11.5641 20.0905C13.1554 18.4377 15.0707 17.0585 17.1646 15.9976C18.0357 15.5565 18.9347 15.1656 19.856 14.825C20.4758 14.5961 23.8484 13.457 26.4896 13.2504C27.4053 13.1778 28.3267 13.1331 29.248 13.094C29.4546 13.0884 29.6612 13.0773 29.8678 13.0717C30.1861 13.0494 30.0353 12.9768 29.8622 12.9433ZM20.6992 13.3006C19.3311 13.6022 18.086 14.0712 16.7235 14.6296C14.4453 15.5621 12.2732 16.6844 10.3859 18.3484C9.8275 18.8286 8.92851 19.7834 8.87825 19.8337C8.895 19.7778 8.90617 19.722 8.92292 19.6662C8.95084 19.5712 8.98993 19.4428 9.0346 19.3088C9.09602 19.1134 9.15744 18.9235 9.22445 18.7337C9.71582 17.3712 10.4752 16.1037 11.2179 14.8641C11.8098 13.8758 12.5245 12.96 13.3341 12.1392C14.3392 11.1174 15.5062 10.263 16.7793 9.60973C18.7839 10.5925 20.0403 11.7818 20.8723 12.8428C20.8834 12.8595 21.0007 13.0159 21.118 13.189C20.9114 13.2448 20.755 13.2839 20.6992 13.3006Z" fill="#49CCF9"/>
<path d="M32.0484 18.4654C31.8921 18.3705 31.7302 18.2867 31.5571 18.2365C31.5459 18.2365 31.5291 18.2309 31.5124 18.2253C31.0936 18.0634 30.6469 17.9461 30.1555 17.8903C30.1555 17.8903 30.1444 17.8903 30.1276 17.8903C30.1053 17.8903 30.0829 17.8847 30.0606 17.8847C29.6418 17.8456 27.9834 17.8624 26.4255 17.0918C26.0179 16.8908 25.0072 15.9806 23.8849 14.54C23.8737 14.5288 22.9859 14.7298 22.3047 14.942C22.8519 15.7908 23.6113 17.1923 23.7453 17.6167C23.9184 18.1639 24.0301 18.7279 24.0971 19.2974C24.1641 19.8334 24.192 20.3695 24.192 20.9111C24.192 21.369 24.1753 21.8269 24.1473 22.2792C24.1306 22.5974 24.1027 22.9157 24.0915 23.234C24.0859 23.3345 24.0748 23.4462 24.1083 23.569C24.2423 26.4558 26.621 28.7564 29.5413 28.7564C32.551 28.7564 34.9911 26.3162 34.9911 23.3066C34.9967 21.1959 33.8017 19.3756 32.0484 18.4654Z" fill="#FCFCFC"/>
</svg>
