<svg width="436" height="65" viewBox="0 0 436 65" fill="none" xmlns="http://www.w3.org/2000/svg">
    <g clip-path="url(#clip0_320_342)">
        <path d="M421.608 42.0728L411.847 14.816H406.27L418.82 50.1385V50.4167C417.983 53.7542 416.031 57.9262 414.079 59.3168C412.405 60.4293 410.453 60.7075 409.059 60.7075C408.501 60.7075 406.828 60.4293 406.27 60.4293V64.6013C407.106 64.8794 408.78 65.1575 409.895 65.1575C412.684 65.1575 414.636 64.6013 416.589 63.2106C418.82 61.5418 421.33 57.3699 422.445 53.7542L435.274 14.816H429.696L421.608 42.0728ZM402.644 33.4507V30.1132C402.644 24.2725 401.25 19.8224 398.182 17.3192C395.672 15.0942 392.325 13.9816 387.584 13.9816C385.074 13.9816 383.122 14.5379 381.17 15.3723C379.218 16.2067 377.545 17.3192 376.429 18.988C373.919 22.0474 372.525 26.7756 372.525 32.6163C372.525 39.0133 374.198 43.7415 377.545 47.0791C381.17 50.4167 385.632 51.251 388.7 51.251C396.788 51.251 400.692 46.801 402.365 42.9071L397.903 40.6821C396.788 43.1853 394.278 46.801 388.7 46.801C385.632 46.801 382.843 45.4103 380.891 43.1853C379.218 40.9602 378.102 37.6227 378.102 33.7289H402.644V33.4507ZM397.067 29.2788H378.381C378.939 22.0474 382.007 18.4317 387.863 18.4317C394.278 18.4317 397.067 21.7693 397.067 29.2788ZM76.9059 19.2661C74.117 15.6504 70.2126 13.9816 65.4716 13.9816C60.7305 13.9816 56.8261 15.9286 54.0372 19.2661C51.5273 22.6037 50.1328 27.3319 50.1328 32.3382C50.1328 37.3446 51.5273 42.0728 54.0372 45.4103C56.8261 49.026 60.7305 50.6948 65.4716 50.6948C70.2126 50.6948 74.117 48.7479 76.9059 45.4103C79.4158 42.0728 80.8103 37.3446 80.8103 32.3382C80.8103 27.3319 79.4158 22.6037 76.9059 19.2661ZM65.4716 46.5228C59.3361 46.5228 55.9894 41.2384 55.9894 32.3382C55.9894 23.4381 59.615 18.1536 65.4716 18.1536C71.607 18.1536 74.9537 23.4381 74.9537 32.3382C74.9537 41.2384 71.3282 46.5228 65.4716 46.5228ZM93.3601 30.1132C94.7545 22.8818 98.6589 19.2661 105.352 19.2661V14.2598C99.7745 14.2598 96.4279 16.4848 93.3601 21.7693V14.816H87.7824V50.4167H93.3601V30.1132ZM230.293 13.7035C230.293 11.2003 231.13 9.53157 232.524 8.14092C233.918 6.75027 236.15 6.19401 238.938 6.19401C242.006 6.19401 244.516 7.0284 246.468 8.69718C248.421 10.0878 249.536 12.3129 250.373 14.5379L255.672 13.9816C253.44 6.19401 247.863 1.46581 239.217 1.46581C235.034 1.46581 231.13 2.85645 228.62 5.08149C226.11 7.30653 224.436 10.6441 224.436 13.9816C224.436 17.8755 226.11 20.6568 229.177 23.1599C231.966 25.1068 235.871 26.4975 239.217 27.8881C245.353 30.1132 251.488 32.3382 251.488 37.9008C251.488 40.404 250.652 42.629 248.978 44.0197C247.305 45.6884 244.516 46.5228 241.169 46.5228C235.313 46.5228 230.851 43.1853 228.341 36.7883L223.042 38.1789C224.157 40.6821 226.11 44.5759 228.899 47.0791C231.966 49.8604 235.871 51.251 240.891 51.251C246.747 51.251 250.93 49.8604 253.998 46.801C257.066 43.7415 257.624 39.8477 257.624 37.0664C257.624 33.1726 255.95 30.1132 252.604 27.61C249.536 25.385 245.911 24.2725 242.006 22.8818C235.871 20.6568 230.293 18.7099 230.293 13.7035ZM266.269 18.988H260.97V14.816H266.269V3.13458H271.847V14.816H277.982V19.2661H271.847V43.7415C271.847 45.4103 272.126 46.801 276.03 46.801H277.982V50.6948C277.982 50.6948 275.751 51.251 274.357 51.251C271.847 51.251 269.895 50.9729 268.779 50.1385C267.664 49.3041 266.548 47.9135 266.548 45.9666C266.269 44.0197 266.269 18.988 266.269 18.988ZM362.764 43.4634C362.764 45.1322 363.321 46.5228 366.947 46.5228H368.899V50.4167C368.899 50.4167 366.668 50.9729 365.274 50.9729C362.764 50.9729 360.811 50.6948 359.696 49.8604C358.58 49.026 357.465 47.6354 357.465 45.6884V0.909546H363.042L362.764 43.4634ZM186.787 23.9943C188.739 22.0474 192.922 18.4317 196.827 18.4317C200.731 18.4317 202.404 20.3786 202.404 24.5506V50.1385H207.982V24.5506C207.982 16.7629 202.404 13.9816 197.384 13.9816C193.759 13.9816 190.133 15.9286 186.787 19.5442V14.816H181.209V50.4167H186.787V23.9943ZM166.149 45.9666C166.428 47.9135 166.986 49.026 168.659 49.8604C170.054 50.6948 172.564 50.4167 173.679 50.1385V46.2447C172.564 46.2447 171.727 45.6884 171.727 44.0197V24.8287C171.727 21.213 170.333 18.4317 167.544 16.4848C165.313 14.816 162.245 13.9816 158.898 13.9816C151.089 13.9816 147.185 18.7099 145.512 21.4912L149.974 23.7162C150.532 22.0474 152.763 18.1536 158.898 18.1536C163.639 18.1536 166.149 20.3786 166.149 24.5506V26.4975C165.87 26.7756 165.591 26.7756 164.197 27.0537C157.504 27.8881 153.042 29.0007 149.974 30.9476C146.348 33.1726 144.117 36.5102 144.117 40.6821C144.117 43.7415 145.512 46.5228 147.464 48.1916C149.416 49.8604 151.926 50.6948 154.715 50.9729C160.293 51.251 164.197 48.7479 166.149 45.9666ZM166.149 40.1259C165.87 43.1853 160.014 47.0791 155.273 46.801C152.763 46.5228 149.974 44.5759 149.695 41.2384C149.137 35.3976 153.599 32.8945 163.36 32.0601C163.918 32.0601 165.313 31.782 165.87 31.5038V40.1259H166.149ZM305.592 45.9666C305.592 47.9135 306.429 49.026 308.102 49.8604C309.496 50.6948 312.006 50.4167 313.122 50.1385V46.2447C312.006 46.2447 311.17 45.6884 311.17 44.0197V24.8287C311.17 21.213 309.775 18.4317 306.986 16.4848C304.755 14.816 301.688 13.9816 298.341 13.9816C290.532 13.9816 286.628 18.7099 284.955 21.4912L289.417 23.7162C289.974 22.0474 292.206 18.1536 298.341 18.1536C303.082 18.1536 305.592 20.3786 305.592 24.5506V26.4975C305.313 26.7756 305.034 26.7756 303.64 27.0537C296.947 27.8881 292.484 29.0007 289.417 30.9476C285.791 33.1726 283.56 36.5102 283.56 40.6821C283.56 43.7415 284.955 46.5228 286.907 48.1916C288.859 49.8604 291.369 50.6948 294.158 50.9729C299.735 51.251 303.64 48.7479 305.592 45.9666ZM305.592 40.1259C305.313 43.1853 299.457 47.0791 294.716 46.801C292.206 46.5228 289.417 44.5759 289.138 41.2384C288.58 35.3976 293.042 32.8945 302.803 32.0601C303.361 32.0601 304.755 31.782 305.313 31.5038V40.1259H305.592ZM21.6865 40.9602L9.97332 2.02207H0.491211V50.4167H6.06892V6.19401V6.47214L19.4554 50.4167H23.9176L37.0252 6.47214V6.19401V50.4167H42.6029V2.02207H33.3997L21.6865 40.9602ZM326.23 23.9943C328.182 22.0474 332.365 18.4317 336.269 18.4317C340.174 18.4317 341.847 20.3786 341.847 24.5506V50.1385H347.425V24.5506C347.425 16.7629 341.847 13.9816 336.827 13.9816C333.202 13.9816 329.576 15.9286 326.23 19.5442V14.816H320.652V50.4167H326.23V23.9943ZM132.962 14.816L131.567 18.4317C129.615 15.6504 126.826 13.9816 122.643 13.9816C116.229 13.9816 107.304 18.1536 107.304 32.3382C107.304 46.2447 116.229 50.6948 122.364 50.6948C125.99 50.6948 129.057 48.7479 131.289 45.9666H131.567V52.6417C131.567 57.3699 127.384 60.4293 123.201 60.4293C119.018 60.4293 115.113 59.5949 112.045 58.2043V62.9325C114.555 64.045 119.018 64.8794 122.643 64.8794C132.683 64.8794 137.145 59.3168 137.145 51.5292V14.816H132.962ZM131.567 40.1259C130.173 44.2978 125.99 46.5228 123.201 46.5228C117.344 46.5228 113.44 42.9071 113.44 32.3382C113.44 23.4381 117.065 18.7099 123.201 18.7099C126.269 18.7099 129.057 20.1005 131.567 23.4381V40.1259Z"
              fill="#949CB2"/>
    </g>
    <defs>
        <clipPath id="clip0_320_342">
            <rect width="434.783" height="64" fill="white" transform="translate(0.491211 0.894531)"/>
        </clipPath>
    </defs>
</svg>
