<svg width="19" height="19" viewBox="0 0 19 19" fill="none" xmlns="http://www.w3.org/2000/svg">
<path d="M9.54235 0.59668C10.1599 0.59668 10.6606 1.09732 10.6606 1.71489V8.42415H17.3698C17.9874 8.42415 18.488 8.92478 18.488 9.54235C18.488 10.1599 17.9874 10.6606 17.3698 10.6606H10.6606V17.3698C10.6606 17.9874 10.1599 18.488 9.54235 18.488C8.92478 18.488 8.42414 17.9874 8.42414 17.3698V10.6606H1.71489C1.09732 10.6606 0.59668 10.1599 0.59668 9.54235C0.59668 8.92478 1.09732 8.42415 1.71489 8.42415H8.42414V1.71489C8.42414 1.09732 8.92478 0.59668 9.54235 0.59668Z" fill="#0A265F"/>
</svg>
