<svg width="46" height="30" viewBox="0 0 46 30" fill="none" xmlns="http://www.w3.org/2000/svg">
<path d="M18.524 7.08755C18.9998 7.56333 18.9998 8.33471 18.524 8.81049L12.0757 15.2589L18.524 21.7072C18.9998 22.183 18.9998 22.9544 18.524 23.4302C18.0482 23.906 17.2769 23.906 16.8011 23.4302L9.49124 16.1203C9.01546 15.6446 9.01546 14.8732 9.49124 14.3974L16.8011 7.08755C17.2769 6.61177 18.0482 6.61177 18.524 7.08755Z" fill="#313131"/>
<path d="M27.3725 23.4303C26.8967 22.9545 26.8967 22.1831 27.3725 21.7073L33.8208 15.259L27.3725 8.81059C26.8967 8.33482 26.8967 7.56343 27.3725 7.08765C27.8482 6.61187 28.6196 6.61187 29.0954 7.08765L36.4052 14.3975C36.881 14.8733 36.881 15.6447 36.4052 16.1204L29.0954 23.4303C28.6196 23.9061 27.8482 23.9061 27.3725 23.4303Z" fill="#313131"/>
</svg>
