<svg width="150" height="37" viewBox="0 0 150 37" fill="none" xmlns="http://www.w3.org/2000/svg">
<path d="M36.5625 3.80258H45.8545C49.3008 3.80258 51.5493 3.95526 53.496 6.08376C54.8447 7.60515 55.5936 9.4301 55.5936 11.5604C55.5936 13.6889 54.8447 15.5157 53.3469 17.0352C51.8474 18.5566 49.9006 19.4709 44.9547 19.4709H40.4614V32.0947H36.5643L36.5625 3.80258ZM40.4596 16.2755H44.9547C47.5031 16.2755 51.3984 16.1228 51.3984 11.4077C51.3984 6.99623 47.8012 6.99623 45.7036 6.99623H40.4614L40.4596 16.2755ZM68.0319 32.0947C67.732 31.1822 67.732 30.1171 67.732 29.2046C65.9325 32.3982 63.3878 32.7036 61.7373 32.7036C57.2422 32.7036 54.8447 30.1171 54.8447 26.9234C54.8447 25.402 55.4445 22.8155 58.291 21.1432C60.3886 19.9254 63.386 19.9254 65.0346 19.9254C65.9343 19.9254 66.5324 19.9254 67.583 20.078C67.583 17.6442 67.583 16.579 66.8323 15.6665C66.0834 14.7541 64.5856 14.4487 63.5368 14.4487C59.9397 14.4487 59.6397 17.0371 59.6397 17.7969H56.0444C56.1934 16.7317 56.3443 15.363 57.3931 14.147C58.8909 12.4747 61.5883 12.0166 63.6859 12.0166C66.5324 12.0166 69.5297 12.9291 70.5785 14.9068C71.1783 16.1246 71.1783 17.0371 71.1783 17.9495L71.0293 27.3796C71.0293 27.6832 71.0293 30.2697 71.3292 32.2474H68.0319V32.0947ZM65.4836 22.3574C63.9858 22.3574 58.4419 22.3574 58.4419 26.3127C58.4419 27.5305 59.1908 29.659 62.488 29.659C64.2857 29.659 65.7835 28.8992 66.6832 27.5287C67.4321 26.16 67.583 25.0966 67.583 22.3574C66.9831 22.5101 66.3833 22.3574 65.4836 22.3574ZM74.3247 3.80258H77.9219V32.0947H74.3247V3.80258ZM93.5067 32.0947C93.2067 31.1822 93.2067 30.1171 93.2067 29.2046C91.4072 32.3982 88.8625 32.7036 87.212 32.7036C82.7169 32.7036 80.3194 30.1171 80.3194 26.9234C80.3194 25.402 80.9193 22.8155 83.7657 21.1432C85.8633 19.9254 88.8607 19.9254 90.5093 19.9254C91.409 19.9254 92.0071 19.9254 93.0577 20.078C93.0577 17.6442 93.0577 16.579 92.307 15.6665C91.5581 14.7541 90.0603 14.4487 89.0116 14.4487C85.4144 14.4487 85.1144 17.0371 85.1144 17.7969H81.5191C81.6681 16.7317 81.8172 15.363 82.8678 14.147C84.3656 12.4747 87.063 12.0166 89.1606 12.0166C92.0071 12.0166 95.0044 12.9291 96.0532 14.9068C96.6531 16.1246 96.653 17.0371 96.653 17.9495L96.504 27.3796C96.504 27.6832 96.504 30.2697 96.8039 32.2474H93.5067V32.0947ZM91.1073 22.3592C89.6096 22.3592 84.0657 22.3592 84.0657 26.3145C84.0657 27.5323 84.8145 29.6608 88.1118 29.6608C89.9113 29.6608 91.4091 28.901 92.307 27.5305C93.0577 26.1618 93.2067 25.0985 93.2067 22.3592C92.4579 22.5119 92.0053 22.3592 91.1073 22.3592ZM99.9503 14.7541V12.4729H103.546V15.6665C103.996 14.9068 105.345 12.1693 109.689 12.1693C111.489 12.1693 116.733 12.7764 116.733 18.862V32.2474H112.987V19.7745C112.987 18.5566 112.838 17.3388 111.938 16.4281C111.038 15.5157 109.689 15.0594 108.492 15.0594C105.794 15.0594 103.397 17.0352 103.397 20.9905V32.2474H99.7994V14.7541H99.9503ZM117.933 12.4729H121.379V8.21407L124.974 6.99623V12.322H129.32V15.0594H124.976V26.7707C124.976 27.6832 124.976 29.3573 127.521 29.3573C128.271 29.3573 129.02 29.2046 129.32 29.2046V32.0947C128.72 32.2474 127.672 32.3982 126.323 32.3982C122.877 32.3982 121.379 31.3331 121.379 28.1394V15.0576H117.931L117.933 12.4729ZM131.867 3.80258H136.213V7.91052H131.869L131.867 3.80258ZM132.167 12.4729H135.764V32.0947H132.167V12.4729ZM139.21 16.4281C139.21 15.0594 139.061 13.6889 139.061 12.4729H142.657L142.807 16.2755C143.556 13.538 145.803 12.6256 147.452 12.4729C148.296 12.3584 149.148 12.3073 150 12.3202V15.9719C149.849 15.9719 149.549 15.8192 149.251 15.8192H148.2C143.856 15.8192 142.957 18.404 142.957 21.7503V32.2456H139.361V16.4263H139.21V16.4281ZM14.236 0C6.74357 0 0.599833 6.23644 0.599833 13.8416C0.599833 21.4467 6.74357 27.6832 14.236 27.6832C21.7285 27.6832 27.8722 21.4486 27.8722 13.8416C27.8722 6.23644 21.7285 0 14.236 0ZM14.236 23.4244C8.99022 23.4244 4.79503 19.1656 4.79503 13.8416C4.79503 8.51762 8.99022 4.25881 14.236 4.25881C19.48 4.25881 23.677 8.51762 23.677 13.8416C23.5262 19.1656 19.331 23.4244 14.236 23.4244ZM26.3726 26.4672L14.236 31.7893L2.0976 26.4672L0 30.2697L14.236 36.3535L28.4721 30.2697L26.3726 26.4672Z" fill="white"/>
</svg>
