<svg width="31" height="27" viewBox="0 0 31 27" fill="none" xmlns="http://www.w3.org/2000/svg">
<path fill-rule="evenodd" clip-rule="evenodd" d="M27.7798 6.70422C27.7912 6.99802 27.7949 7.2917 27.7949 7.5855C27.7949 16.4929 21.529 26.776 10.0707 26.776C6.55097 26.776 3.27809 25.6542 0.520508 23.7446C1.00796 23.798 1.50301 23.8381 2.00565 23.8381C4.92403 23.8381 7.61197 22.7562 9.74409 20.94C7.01817 20.8999 4.7164 18.9368 3.92255 16.2659C4.30365 16.346 4.69611 16.3862 5.09747 16.3862C5.66342 16.3862 6.2129 16.3062 6.7396 16.1459C3.88707 15.5316 1.73851 12.8074 1.73851 9.53552C1.73851 9.49546 1.73851 9.48203 1.73851 9.45532C2.5792 9.94944 3.54143 10.2564 4.56317 10.2965C2.88938 9.08124 1.78912 7.01134 1.78912 4.67431C1.78912 3.4457 2.09552 2.28381 2.63488 1.28222C5.70645 5.36869 10.2987 8.05298 15.4758 8.33343C15.3694 7.83931 15.3149 7.31862 15.3149 6.79779C15.3149 3.07189 18.1042 0.0537109 21.5454 0.0537109C23.337 0.0537109 24.9551 0.868452 26.0908 2.17719C27.5126 1.88339 28.8446 1.32254 30.0499 0.547983C29.5827 2.12381 28.5964 3.44563 27.3075 4.27361C28.5685 4.11336 29.7714 3.75306 30.8868 3.21888C30.0499 4.56768 28.9965 5.75605 27.7798 6.70422Z" fill="#FCFCFC"/>
</svg>
