<?xml version="1.0" encoding="utf-8"?>
<!-- Generator: Adobe Illustrator 25.3.1, SVG Export Plug-In . SVG Version: 6.00 Build 0)  -->
<svg version="1.1" id="Layer_1" xmlns="http://www.w3.org/2000/svg" xmlns:xlink="http://www.w3.org/1999/xlink" x="0px" y="0px"
	 viewBox="0 0 170.04 138.54" style="enable-background:new 0 0 170.04 138.54;" xml:space="preserve">
<style type="text/css">
	.st0{fill:#007BEA;}
	.st1{fill:#FFFFFF;}
</style>
<g>
	<g>
		<path class="st0" d="M142.59,62.46c-10.86-1.9-23.52-1.68-28.5-1.21c-1.3,0.04-2.99,0.28-4.75,0.59c-1.8-2.34-4.02-5.24-4.34-5.71
			c-6.85-9.94-7.57-14.89-4.57-21.94c0.01-0.06,0.01-0.16,0.01-0.24c1.59-3.1,2.58-6.57,2.58-10.3c0-12.53-10.16-22.69-22.69-22.69
			S57.64,11.12,57.64,23.65c0,3.33,0.76,6.47,2.05,9.32c0,0.02-0.02,0.06-0.02,0.07c1.23,3.12,1.93,5.67,1.88,8.25
			c-0.35,5.54-5.91,16.4-12.61,25.99s-17.44,20.4-18.31,21.26c-10.68,10.57-17.15,9.34-23.08,14.48c0.04,0.02,0.1,0.06,0.14,0.09
			l0,0c-1.05,0.87-1.99,1.84-2.84,2.91c-0.03,0.04-0.07,0.08-0.1,0.12c-0.76,0.98-1.42,2.03-1.98,3.16
			c-0.08,0.16-0.18,0.31-0.26,0.48c-0.48,1.02-0.84,2.09-1.14,3.19c-0.07,0.27-0.19,0.52-0.25,0.8c-0.3,1.36-0.48,2.75-0.48,4.2
			c0,10.73,8.7,19.42,19.42,19.42c9.13,0,16.74-6.33,18.82-14.83c0.02,0.02,0.03,0.05,0.04,0.07c1.16-5.27,3.93-9.98,7.01-14.34
			c2.94-4.16,6.12-8.23,9.65-11.9c7.57-7.87,16.68-14.41,26.62-19.46c4.13-2.1,8.41-3.95,12.79-5.56c2.95-1.08,18.97-6.5,31.54-7.5
			c4.36-0.34,8.73-0.56,13.1-0.74c0.99-0.04,1.97-0.08,2.96-0.11C144.12,62.97,143.4,62.6,142.59,62.46z M99.02,64.15
			c-6.51,1.43-12.43,3.67-18.91,6.33c-10.83,4.43-21.15,9.77-30.13,17.68c-2.66,2.27-6.94,6.81-7.17,7.06
			c0.07-0.26,0.13-0.53,0.21-0.79c0.14-0.46,0.32-1.05,0.52-1.69c0.29-0.92,0.57-1.84,0.89-2.73c2.33-6.49,5.93-12.51,9.48-18.39
			c2.82-4.69,6.22-9.04,10.06-12.94c4.78-4.85,10.33-8.91,16.39-12.01c9.52,4.67,15.5,10.33,19.46,15.37
			c0.06,0.08,0.6,0.83,1.17,1.64C100.04,63.9,99.31,64.08,99.02,64.15z"/>
		<path class="st1" d="M152.99,88.71c-0.74-0.46-1.51-0.85-2.33-1.08c-0.05-0.01-0.12-0.03-0.21-0.06c-2-0.78-4.12-1.32-6.44-1.6
			c0,0-0.05,0-0.14-0.01c-0.11-0.01-0.22-0.02-0.32-0.03c-1.99-0.18-9.88-0.1-17.29-3.76c-1.93-0.96-6.73-5.28-12.08-12.13
			c-0.04-0.05-4.28,0.91-7.51,1.91c2.59,4.02,6.22,10.7,6.86,12.72c0.82,2.6,1.35,5.28,1.68,7.98c0.31,2.54,0.44,5.1,0.45,7.66
			c0.01,2.17-0.07,4.34-0.2,6.51c-0.09,1.51-0.22,3.03-0.27,4.54c-0.02,0.47-0.07,1.01,0.09,1.58
			c0.65,13.72,11.95,24.66,25.83,24.66c14.3,0,25.89-11.59,25.89-25.89C167.01,101.69,161.31,93.02,152.99,88.71z"/>
	</g>
</g>
</svg>
