<svg width="1440" height="960" viewBox="0 0 1440 960" fill="none" xmlns="http://www.w3.org/2000/svg">
    <g clip-path="url(#clip0_966_2637)">
        <g filter="url(#filter0_f_966_2637)">
            <circle cx="719.5" cy="479.5" r="245.5" fill="#1D9EEB" fill-opacity="0.5"/>
        </g>
        <path fill-rule="evenodd" clip-rule="evenodd"
              d="M531.55 320C531.55 323.014 532.143 325.998 533.297 328.783C534.45 331.567 536.141 334.097 538.272 336.228C540.403 338.359 542.933 340.05 545.717 341.203C548.502 342.356 551.486 342.95 554.5 342.95C557.514 342.95 560.498 342.356 563.282 341.203C566.067 340.05 568.597 338.359 570.728 336.228C572.859 334.097 574.549 331.567 575.703 328.783C576.856 325.998 577.45 323.014 577.45 320C577.45 313.913 575.032 308.076 570.728 303.772C566.424 299.468 560.587 297.05 554.5 297.05C548.413 297.05 542.576 299.468 538.272 303.772C533.968 308.076 531.55 313.913 531.55 320ZM574.75 320C574.75 325.371 572.616 330.521 568.819 334.319C565.021 338.117 559.87 340.25 554.5 340.25C549.129 340.25 543.979 338.117 540.181 334.319C536.383 330.521 534.25 325.371 534.25 320C534.25 314.629 536.383 309.479 540.181 305.681C543.979 301.884 549.129 299.75 554.5 299.75C559.87 299.75 565.021 301.884 568.819 305.681C572.616 309.479 574.75 314.629 574.75 320Z"
              fill="#F2F7FA"/>
        <path fill-rule="evenodd" clip-rule="evenodd"
              d="M545.05 320C545.05 331.869 548.943 341.6 554.5 341.6C560.056 341.6 563.95 331.869 563.95 320C563.95 308.131 560.056 298.4 554.5 298.4C548.943 298.4 545.05 308.131 545.05 320ZM561.25 320C561.25 330.5 557.888 338.9 554.5 338.9C551.111 338.9 547.75 330.5 547.75 320C547.75 309.5 551.111 301.1 554.5 301.1C557.888 301.1 561.25 309.5 561.25 320Z"
              fill="#F2F7FA"/>
        <path d="M537.585 307.343L539.394 305.339C539.683 305.598 539.991 305.852 540.32 306.098C543.879 308.765 549.495 310.391 555.615 310.391C560.835 310.391 565.705 309.211 569.264 307.178C570.084 306.714 570.859 306.174 571.578 305.566L573.333 307.618C572.528 308.306 571.616 308.941 570.606 309.519C566.618 311.8 561.285 313.091 555.615 313.091C548.946 313.091 542.758 311.301 538.7 308.258C538.314 307.969 537.942 307.665 537.585 307.343ZM537.585 332.69L539.394 334.688C539.683 334.429 539.991 334.175 540.32 333.932C543.879 331.265 549.495 329.639 555.615 329.639C560.835 329.639 565.705 330.816 569.264 332.852C570.131 333.349 570.906 333.889 571.578 334.461L573.333 332.409C572.485 331.692 571.572 331.056 570.606 330.509C566.618 328.23 561.285 326.939 555.615 326.939C548.946 326.939 542.758 328.729 538.7 331.769C538.306 332.066 537.933 332.374 537.585 332.69ZM532.9 321.35V318.65H576.1V321.35H532.9Z"
              fill="#F2F7FA"/>
        <path d="M607.059 313V296.09H609.684V313H607.059ZM612.496 313V300.672H615.027V302.535H615.086C615.73 301.281 616.996 300.438 618.859 300.438C621.566 300.438 623.125 302.184 623.125 305.02V313H620.582V305.5C620.582 303.648 619.715 302.605 617.957 302.605C616.176 302.605 615.027 303.895 615.027 305.816V313H612.496ZM629.898 313.246C627.461 313.246 626.289 312.215 626.289 309.754V302.688H624.52V300.672H626.289V297.461H628.879V300.672H631.188V302.688H628.879V309.602C628.879 310.855 629.441 311.23 630.508 311.23C630.777 311.23 631 311.207 631.188 311.184V313.141C630.895 313.188 630.414 313.246 629.898 313.246ZM638.242 313.246C634.621 313.246 632.43 310.773 632.43 306.883V306.871C632.43 303.016 634.656 300.438 638.113 300.438C641.57 300.438 643.691 302.922 643.691 306.625V307.48H634.961C635.008 309.812 636.285 311.172 638.301 311.172C639.801 311.172 640.797 310.398 641.113 309.473L641.148 309.379H643.551L643.527 309.508C643.129 311.465 641.23 313.246 638.242 313.246ZM638.125 302.512C636.484 302.512 635.219 303.625 634.996 305.688H641.184C640.973 303.555 639.777 302.512 638.125 302.512ZM645.66 313V300.672H648.191V302.781H648.25C648.648 301.34 649.68 300.438 651.086 300.438C651.449 300.438 651.766 300.496 651.965 300.531V302.887C651.766 302.805 651.32 302.746 650.828 302.746C649.199 302.746 648.191 303.812 648.191 305.652V313H645.66ZM653.535 313V300.672H656.066V302.535H656.125C656.77 301.281 658.035 300.438 659.898 300.438C662.605 300.438 664.164 302.184 664.164 305.02V313H661.621V305.5C661.621 303.648 660.754 302.605 658.996 302.605C657.215 302.605 656.066 303.895 656.066 305.816V313H653.535ZM671.875 313.246C668.254 313.246 666.062 310.773 666.062 306.883V306.871C666.062 303.016 668.289 300.438 671.746 300.438C675.203 300.438 677.324 302.922 677.324 306.625V307.48H668.594C668.641 309.812 669.918 311.172 671.934 311.172C673.434 311.172 674.43 310.398 674.746 309.473L674.781 309.379H677.184L677.16 309.508C676.762 311.465 674.863 313.246 671.875 313.246ZM671.758 302.512C670.117 302.512 668.852 303.625 668.629 305.688H674.816C674.605 303.555 673.41 302.512 671.758 302.512ZM683.617 313.246C681.18 313.246 680.008 312.215 680.008 309.754V302.688H678.238V300.672H680.008V297.461H682.598V300.672H684.906V302.688H682.598V309.602C682.598 310.855 683.16 311.23 684.227 311.23C684.496 311.23 684.719 311.207 684.906 311.184V313.141C684.613 313.188 684.133 313.246 683.617 313.246Z"
              fill="white"/>
        <rect x="505" y="273.5" width="430" height="93" rx="20.5" stroke="#1D9EEB" stroke-width="3"/>
        <g clip-path="url(#clip1_966_2637)">
            <path d="M318.938 155.259C320.813 155.259 322.612 154.514 323.938 153.188M318.938 155.259C317.062 155.259 315.263 154.514 313.937 153.188M318.938 155.259V160.562M323.938 153.188C325.264 151.862 326.009 150.063 326.009 148.188M323.938 153.188L327.688 156.938M326.009 148.188C326.009 146.312 325.264 144.513 323.938 143.187M326.009 148.188H331.312M323.938 143.187C322.612 141.861 320.813 141.116 318.938 141.116M323.938 143.187L327.688 139.437M318.938 141.116C317.062 141.116 315.263 141.861 313.937 143.187M318.938 141.116V135.812M313.937 143.187C312.611 144.513 311.866 146.312 311.866 148.188M313.937 143.187L310.187 139.437M311.866 148.188C311.866 150.063 312.611 151.862 313.937 153.188M311.866 148.188H306.562M313.937 153.188L310.187 156.938M317.758 135.812H320.117M326.855 138.605L328.52 140.27M331.312 147.008V149.367M328.52 156.105L326.855 157.77M320.117 160.562H317.758M311.02 157.77L309.355 156.105M306.562 149.367V147.008M309.355 140.27L311.02 138.605M295.875 166.75L299.639 163.926C300.023 163.638 300.462 163.431 300.929 163.318C301.396 163.205 301.88 163.189 302.354 163.27C302.827 163.351 303.279 163.528 303.681 163.79C304.084 164.051 304.429 164.393 304.695 164.793C305.081 165.372 305.287 166.053 305.287 166.75C305.287 167.447 305.081 168.128 304.695 168.707L300.994 174.258C299.856 175.963 298.228 177.283 296.325 178.043L290.812 180.25M297.562 154.938L289.474 158.405C287.084 159.428 285.179 161.332 284.155 163.722L281.507 169.9C280.966 171.161 280.687 172.519 280.688 173.891V185.312"
                  stroke="#F2F7FA" stroke-width="3.5" stroke-linecap="round" stroke-linejoin="round"/>
            <path d="M331.312 165.062V180.25C331.312 181.593 330.779 182.88 329.83 183.83C328.88 184.779 327.593 185.312 326.25 185.312H302.625C301.282 185.312 299.995 184.779 299.045 183.83C298.096 182.88 297.562 181.593 297.562 180.25V177.449M297.562 165.483V139.75C297.562 138.407 298.096 137.12 299.045 136.17C299.995 135.221 301.282 134.688 302.625 134.688H306.562"
                  stroke="#F2F7FA" stroke-width="3.5" stroke-linecap="round" stroke-linejoin="round"/>
        </g>
        <path d="M358.559 153V136.09H369.293V138.352H361.184V143.285H368.859V145.488H361.184V150.738H369.293V153H358.559ZM370.758 153L374.836 146.848L370.816 140.672H373.664L376.348 145.137H376.406L379.055 140.672H381.855L377.801 146.766L381.809 153H379.02L376.289 148.465H376.23L373.5 153H370.758ZM387.773 153.246C385.336 153.246 384.164 152.215 384.164 149.754V142.688H382.395V140.672H384.164V137.461H386.754V140.672H389.062V142.688H386.754V149.602C386.754 150.855 387.316 151.23 388.383 151.23C388.652 151.23 388.875 151.207 389.062 151.184V153.141C388.77 153.188 388.289 153.246 387.773 153.246ZM396.117 153.246C392.496 153.246 390.305 150.773 390.305 146.883V146.871C390.305 143.016 392.531 140.438 395.988 140.438C399.445 140.438 401.566 142.922 401.566 146.625V147.48H392.836C392.883 149.812 394.16 151.172 396.176 151.172C397.676 151.172 398.672 150.398 398.988 149.473L399.023 149.379H401.426L401.402 149.508C401.004 151.465 399.105 153.246 396.117 153.246ZM396 142.512C394.359 142.512 393.094 143.625 392.871 145.688H399.059C398.848 143.555 397.652 142.512 396 142.512ZM403.535 153V140.672H406.066V142.781H406.125C406.523 141.34 407.555 140.438 408.961 140.438C409.324 140.438 409.641 140.496 409.84 140.531V142.887C409.641 142.805 409.195 142.746 408.703 142.746C407.074 142.746 406.066 143.812 406.066 145.652V153H403.535ZM411.41 153V140.672H413.941V142.535H414C414.645 141.281 415.91 140.438 417.773 140.438C420.48 140.438 422.039 142.184 422.039 145.02V153H419.496V145.5C419.496 143.648 418.629 142.605 416.871 142.605C415.09 142.605 413.941 143.895 413.941 145.816V153H411.41ZM428.109 153.223C425.648 153.223 423.996 151.711 423.996 149.496V149.473C423.996 147.328 425.66 146.016 428.578 145.84L431.93 145.641V144.715C431.93 143.355 431.051 142.535 429.48 142.535C428.016 142.535 427.113 143.227 426.902 144.211L426.879 144.316H424.488L424.5 144.188C424.676 142.066 426.516 140.438 429.551 140.438C432.562 140.438 434.473 142.031 434.473 144.504V153H431.93V151.055H431.883C431.168 152.379 429.738 153.223 428.109 153.223ZM426.551 149.438C426.551 150.516 427.441 151.195 428.801 151.195C430.582 151.195 431.93 149.988 431.93 148.383V147.422L428.918 147.609C427.395 147.703 426.551 148.371 426.551 149.414V149.438ZM437.027 153V136.09H439.559V153H437.027ZM447.035 153V140.672H449.566V142.582H449.625C450.152 141.293 451.406 140.438 453.023 140.438C454.723 140.438 455.965 141.316 456.457 142.863H456.516C457.148 141.363 458.602 140.438 460.359 140.438C462.797 140.438 464.391 142.055 464.391 144.527V153H461.848V145.137C461.848 143.531 460.992 142.605 459.492 142.605C457.992 142.605 456.949 143.73 456.949 145.289V153H454.465V144.949C454.465 143.52 453.562 142.605 452.133 142.605C450.633 142.605 449.566 143.789 449.566 145.383V153H447.035ZM472.137 153.246C468.598 153.246 466.289 150.797 466.289 146.836V146.812C466.289 142.875 468.621 140.438 472.125 140.438C475.641 140.438 477.984 142.863 477.984 146.812V146.836C477.984 150.809 475.664 153.246 472.137 153.246ZM472.148 151.125C474.129 151.125 475.395 149.555 475.395 146.836V146.812C475.395 144.117 474.105 142.559 472.125 142.559C470.18 142.559 468.879 144.117 468.879 146.812V146.836C468.879 149.566 470.168 151.125 472.148 151.125ZM486.492 153.246C484.723 153.246 483.352 152.355 482.625 150.914H482.566V153H480.035V136.09H482.566V142.77H482.625C483.363 141.316 484.77 140.438 486.516 140.438C489.609 140.438 491.648 142.898 491.648 146.824V146.836C491.648 150.762 489.621 153.246 486.492 153.246ZM485.824 151.066C487.816 151.066 489.059 149.461 489.059 146.836V146.824C489.059 144.223 487.816 142.605 485.824 142.605C483.914 142.605 482.555 144.27 482.555 146.824V146.836C482.555 149.402 483.902 151.066 485.824 151.066ZM494.977 138.773C494.156 138.773 493.5 138.117 493.5 137.32C493.5 136.512 494.156 135.855 494.977 135.855C495.809 135.855 496.453 136.512 496.453 137.32C496.453 138.117 495.809 138.773 494.977 138.773ZM493.711 153V140.672H496.242V153H493.711ZM498.949 153V136.09H501.48V153H498.949ZM509.344 153.246C505.723 153.246 503.531 150.773 503.531 146.883V146.871C503.531 143.016 505.758 140.438 509.215 140.438C512.672 140.438 514.793 142.922 514.793 146.625V147.48H506.062C506.109 149.812 507.387 151.172 509.402 151.172C510.902 151.172 511.898 150.398 512.215 149.473L512.25 149.379H514.652L514.629 149.508C514.23 151.465 512.332 153.246 509.344 153.246ZM509.227 142.512C507.586 142.512 506.32 143.625 506.098 145.688H512.285C512.074 143.555 510.879 142.512 509.227 142.512ZM525.832 153.246C523.125 153.246 521.578 151.5 521.578 148.664V140.672H524.109V148.172C524.109 150.035 524.977 151.066 526.734 151.066C528.516 151.066 529.664 149.789 529.664 147.867V140.672H532.207V153H529.664V151.148H529.605C528.961 152.391 527.707 153.246 525.832 153.246ZM539.332 153.246C536.25 153.246 534.445 151.723 534.188 149.473L534.176 149.367H536.684L536.707 149.484C536.941 150.621 537.785 151.289 539.344 151.289C540.867 151.289 541.781 150.656 541.781 149.66V149.648C541.781 148.852 541.336 148.395 540.012 148.078L537.996 147.621C535.652 147.082 534.492 145.957 534.492 144.164V144.152C534.492 141.949 536.414 140.438 539.25 140.438C542.168 140.438 543.926 142.066 544.055 144.164L544.066 144.305H541.688L541.676 144.223C541.523 143.145 540.68 142.395 539.25 142.395C537.891 142.395 537.035 143.039 537.035 144.023V144.035C537.035 144.797 537.539 145.312 538.863 145.629L540.867 146.086C543.387 146.672 544.348 147.668 544.348 149.438V149.449C544.348 151.699 542.238 153.246 539.332 153.246ZM551.578 153.246C547.957 153.246 545.766 150.773 545.766 146.883V146.871C545.766 143.016 547.992 140.438 551.449 140.438C554.906 140.438 557.027 142.922 557.027 146.625V147.48H548.297C548.344 149.812 549.621 151.172 551.637 151.172C553.137 151.172 554.133 150.398 554.449 149.473L554.484 149.379H556.887L556.863 149.508C556.465 151.465 554.566 153.246 551.578 153.246ZM551.461 142.512C549.82 142.512 548.555 143.625 548.332 145.688H554.52C554.309 143.555 553.113 142.512 551.461 142.512ZM558.996 153V140.672H561.527V142.781H561.586C561.984 141.34 563.016 140.438 564.422 140.438C564.785 140.438 565.102 140.496 565.301 140.531V142.887C565.102 142.805 564.656 142.746 564.164 142.746C562.535 142.746 561.527 143.812 561.527 145.652V153H558.996Z"
              fill="white"/>
        <rect x="256.5" y="113.5" width="430" height="93" rx="20.5" stroke="#1D9EEB" stroke-width="3"/>
        <path d="M819.875 136.375H826.625V143.125H819.875V136.375ZM819.875 146.5H826.625V153.25H819.875V146.5ZM809.75 136.375H816.5V143.125H809.75V136.375ZM809.75 146.5H816.5V153.25H809.75V146.5Z"
              fill="#F2F7FA"/>
        <path d="M823.25 160V170.125H782.75V143.125H803V139.75H782.75C781.855 139.75 780.996 140.106 780.364 140.739C779.731 141.371 779.375 142.23 779.375 143.125V170.125C779.375 171.02 779.731 171.879 780.364 172.511C780.996 173.144 781.855 173.5 782.75 173.5H796.25V180.25H789.5V183.625H816.5V180.25H809.75V173.5H823.25C824.145 173.5 825.004 173.144 825.636 172.511C826.269 171.879 826.625 171.02 826.625 170.125V160H823.25ZM806.375 180.25H799.625V173.5H806.375V180.25Z"
              fill="#F2F7FA"/>
        <path d="M855.559 153V136.09H866.293V138.352H858.184V143.285H865.859V145.488H858.184V150.738H866.293V153H855.559ZM867.758 153L871.836 146.848L867.816 140.672H870.664L873.348 145.137H873.406L876.055 140.672H878.855L874.801 146.766L878.809 153H876.02L873.289 148.465H873.23L870.5 153H867.758ZM884.773 153.246C882.336 153.246 881.164 152.215 881.164 149.754V142.688H879.395V140.672H881.164V137.461H883.754V140.672H886.062V142.688H883.754V149.602C883.754 150.855 884.316 151.23 885.383 151.23C885.652 151.23 885.875 151.207 886.062 151.184V153.141C885.77 153.188 885.289 153.246 884.773 153.246ZM893.117 153.246C889.496 153.246 887.305 150.773 887.305 146.883V146.871C887.305 143.016 889.531 140.438 892.988 140.438C896.445 140.438 898.566 142.922 898.566 146.625V147.48H889.836C889.883 149.812 891.16 151.172 893.176 151.172C894.676 151.172 895.672 150.398 895.988 149.473L896.023 149.379H898.426L898.402 149.508C898.004 151.465 896.105 153.246 893.117 153.246ZM893 142.512C891.359 142.512 890.094 143.625 889.871 145.688H896.059C895.848 143.555 894.652 142.512 893 142.512ZM900.535 153V140.672H903.066V142.781H903.125C903.523 141.34 904.555 140.438 905.961 140.438C906.324 140.438 906.641 140.496 906.84 140.531V142.887C906.641 142.805 906.195 142.746 905.703 142.746C904.074 142.746 903.066 143.812 903.066 145.652V153H900.535ZM908.41 153V140.672H910.941V142.535H911C911.645 141.281 912.91 140.438 914.773 140.438C917.48 140.438 919.039 142.184 919.039 145.02V153H916.496V145.5C916.496 143.648 915.629 142.605 913.871 142.605C912.09 142.605 910.941 143.895 910.941 145.816V153H908.41ZM925.109 153.223C922.648 153.223 920.996 151.711 920.996 149.496V149.473C920.996 147.328 922.66 146.016 925.578 145.84L928.93 145.641V144.715C928.93 143.355 928.051 142.535 926.48 142.535C925.016 142.535 924.113 143.227 923.902 144.211L923.879 144.316H921.488L921.5 144.188C921.676 142.066 923.516 140.438 926.551 140.438C929.562 140.438 931.473 142.031 931.473 144.504V153H928.93V151.055H928.883C928.168 152.379 926.738 153.223 925.109 153.223ZM923.551 149.438C923.551 150.516 924.441 151.195 925.801 151.195C927.582 151.195 928.93 149.988 928.93 148.383V147.422L925.918 147.609C924.395 147.703 923.551 148.371 923.551 149.414V149.438ZM934.027 153V136.09H936.559V153H934.027ZM947.855 153L943.297 136.09H946.027L949.18 149.344H949.227L952.801 136.09H955.285L958.859 149.344H958.918L962.07 136.09H964.801L960.23 153H957.711L954.078 140.25H954.02L950.375 153H947.855ZM966.887 153V136.09H977.621V138.352H969.512V143.285H977.188V145.488H969.512V150.738H977.621V153H966.887ZM980.316 153V136.09H987.066C990.066 136.09 992.035 137.766 992.035 140.32V140.344C992.035 142.125 990.688 143.777 988.906 144.035V144.082C991.309 144.328 992.867 145.98 992.867 148.207V148.23C992.867 151.195 990.699 153 987.102 153H980.316ZM986.434 138.234H982.941V143.297H985.848C988.168 143.297 989.422 142.359 989.422 140.66V140.637C989.422 139.09 988.332 138.234 986.434 138.234ZM986.387 145.324H982.941V150.855H986.562C988.918 150.855 990.184 149.906 990.184 148.102V148.078C990.184 146.262 988.895 145.324 986.387 145.324ZM1003.89 153.246C1001.19 153.246 999.641 151.5 999.641 148.664V140.672H1002.17V148.172C1002.17 150.035 1003.04 151.066 1004.8 151.066C1006.58 151.066 1007.73 149.789 1007.73 147.867V140.672H1010.27V153H1007.73V151.148H1007.67C1007.02 152.391 1005.77 153.246 1003.89 153.246ZM1017.39 153.246C1014.31 153.246 1012.51 151.723 1012.25 149.473L1012.24 149.367H1014.75L1014.77 149.484C1015 150.621 1015.85 151.289 1017.41 151.289C1018.93 151.289 1019.84 150.656 1019.84 149.66V149.648C1019.84 148.852 1019.4 148.395 1018.07 148.078L1016.06 147.621C1013.71 147.082 1012.55 145.957 1012.55 144.164V144.152C1012.55 141.949 1014.48 140.438 1017.31 140.438C1020.23 140.438 1021.99 142.066 1022.12 144.164L1022.13 144.305H1019.75L1019.74 144.223C1019.59 143.145 1018.74 142.395 1017.31 142.395C1015.95 142.395 1015.1 143.039 1015.1 144.023V144.035C1015.1 144.797 1015.6 145.312 1016.93 145.629L1018.93 146.086C1021.45 146.672 1022.41 147.668 1022.41 149.438V149.449C1022.41 151.699 1020.3 153.246 1017.39 153.246ZM1029.64 153.246C1026.02 153.246 1023.83 150.773 1023.83 146.883V146.871C1023.83 143.016 1026.05 140.438 1029.51 140.438C1032.97 140.438 1035.09 142.922 1035.09 146.625V147.48H1026.36C1026.41 149.812 1027.68 151.172 1029.7 151.172C1031.2 151.172 1032.2 150.398 1032.51 149.473L1032.55 149.379H1034.95L1034.93 149.508C1034.53 151.465 1032.63 153.246 1029.64 153.246ZM1029.52 142.512C1027.88 142.512 1026.62 143.625 1026.39 145.688H1032.58C1032.37 143.555 1031.18 142.512 1029.52 142.512ZM1037.06 153V140.672H1039.59V142.781H1039.65C1040.05 141.34 1041.08 140.438 1042.48 140.438C1042.85 140.438 1043.16 140.496 1043.36 140.531V142.887C1043.16 142.805 1042.72 142.746 1042.23 142.746C1040.6 142.746 1039.59 143.812 1039.59 145.652V153H1037.06Z"
              fill="white"/>
        <rect x="753.5" y="113.5" width="430" height="93" rx="20.5" stroke="#1D9EEB" stroke-width="3"/>
        <path d="M541 503.625H530.875V493.5H541V503.625ZM534.25 500.25H537.625V496.875H534.25V500.25ZM559.562 503.625H549.438V493.5H559.562V503.625ZM552.812 500.25H556.188V496.875H552.812V500.25ZM578.125 503.625H568V493.5H578.125V503.625ZM571.375 500.25H574.75V496.875H571.375V500.25ZM554.5 469.875C553.165 469.875 551.86 469.479 550.75 468.737C549.64 467.996 548.775 466.942 548.264 465.708C547.753 464.475 547.619 463.118 547.88 461.808C548.14 460.499 548.783 459.296 549.727 458.352C550.671 457.408 551.874 456.765 553.183 456.505C554.493 456.244 555.85 456.378 557.083 456.889C558.317 457.4 559.371 458.265 560.112 459.375C560.854 460.485 561.25 461.79 561.25 463.125C561.248 464.915 560.536 466.63 559.271 467.896C558.005 469.161 556.29 469.873 554.5 469.875ZM554.5 459.75C553.832 459.75 553.18 459.948 552.625 460.319C552.07 460.69 551.637 461.217 551.382 461.833C551.126 462.45 551.06 463.129 551.19 463.783C551.32 464.438 551.642 465.039 552.114 465.511C552.586 465.983 553.187 466.305 553.842 466.435C554.496 466.565 555.175 466.499 555.792 466.243C556.408 465.988 556.935 465.555 557.306 465C557.677 464.445 557.875 463.793 557.875 463.125C557.874 462.23 557.518 461.372 556.885 460.74C556.253 460.107 555.395 459.751 554.5 459.75ZM571.375 480H562.938C561.148 479.998 559.432 479.286 558.167 478.021C556.902 476.755 556.19 475.04 556.188 473.25H552.812C552.81 475.04 552.098 476.755 550.833 478.021C549.568 479.286 547.852 479.998 546.062 480H537.625C536.73 480.001 535.872 480.357 535.24 480.99C534.607 481.622 534.251 482.48 534.25 483.375V490.125H537.625V483.375H546.062C548.557 483.374 550.962 482.448 552.812 480.776V490.125H556.188V480.776C558.038 482.448 560.443 483.374 562.938 483.375H571.375V490.125H574.75V483.375C574.749 482.48 574.393 481.622 573.76 480.99C573.128 480.357 572.27 480.001 571.375 480Z"
              fill="white"/>
        <path d="M605.805 473L611.957 456.09H614.793L620.934 473H618.18L616.633 468.43H610.117L608.559 473H605.805ZM613.352 458.891L610.82 466.32H615.918L613.398 458.891H613.352ZM622.504 477.102V460.672H625.035V462.793H625.094C625.832 461.328 627.191 460.438 628.949 460.438C632.09 460.438 634.105 462.898 634.105 466.836V466.848C634.105 470.773 632.078 473.246 628.984 473.246C627.238 473.246 625.82 472.355 625.094 470.926H625.035V477.102H622.504ZM628.293 471.066C630.285 471.066 631.527 469.449 631.527 466.848V466.836C631.527 464.211 630.273 462.605 628.293 462.605C626.371 462.605 625.023 464.27 625.023 466.836V466.848C625.023 469.402 626.383 471.066 628.293 471.066ZM636.074 477.102V460.672H638.605V462.793H638.664C639.402 461.328 640.762 460.438 642.52 460.438C645.66 460.438 647.676 462.898 647.676 466.836V466.848C647.676 470.773 645.648 473.246 642.555 473.246C640.809 473.246 639.391 472.355 638.664 470.926H638.605V477.102H636.074ZM641.863 471.066C643.855 471.066 645.098 469.449 645.098 466.848V466.836C645.098 464.211 643.844 462.605 641.863 462.605C639.941 462.605 638.594 464.27 638.594 466.836V466.848C638.594 469.402 639.953 471.066 641.863 471.066ZM654.613 473V456.09H657.145V473H654.613ZM665.043 473.246C661.504 473.246 659.195 470.797 659.195 466.836V466.812C659.195 462.875 661.527 460.438 665.031 460.438C668.547 460.438 670.891 462.863 670.891 466.812V466.836C670.891 470.809 668.57 473.246 665.043 473.246ZM665.055 471.125C667.035 471.125 668.301 469.555 668.301 466.836V466.812C668.301 464.117 667.012 462.559 665.031 462.559C663.086 462.559 661.785 464.117 661.785 466.812V466.836C661.785 469.566 663.074 471.125 665.055 471.125ZM676.469 473.223C674.008 473.223 672.355 471.711 672.355 469.496V469.473C672.355 467.328 674.02 466.016 676.938 465.84L680.289 465.641V464.715C680.289 463.355 679.41 462.535 677.84 462.535C676.375 462.535 675.473 463.227 675.262 464.211L675.238 464.316H672.848L672.859 464.188C673.035 462.066 674.875 460.438 677.91 460.438C680.922 460.438 682.832 462.031 682.832 464.504V473H680.289V471.055H680.242C679.527 472.379 678.098 473.223 676.469 473.223ZM674.91 469.438C674.91 470.516 675.801 471.195 677.16 471.195C678.941 471.195 680.289 469.988 680.289 468.383V467.422L677.277 467.609C675.754 467.703 674.91 468.371 674.91 469.414V469.438ZM689.898 473.246C686.758 473.246 684.742 470.762 684.742 466.836V466.824C684.742 462.898 686.781 460.438 689.875 460.438C691.621 460.438 693.027 461.316 693.766 462.77H693.812V456.09H696.355V473H693.812V470.914H693.766C693.027 472.355 691.668 473.246 689.898 473.246ZM690.566 471.066C692.477 471.066 693.824 469.402 693.824 466.836V466.824C693.824 464.27 692.465 462.605 690.566 462.605C688.574 462.605 687.332 464.223 687.332 466.824V466.836C687.332 469.461 688.562 471.066 690.566 471.066ZM710.383 473.246C708.613 473.246 707.242 472.355 706.516 470.914H706.457V473H703.926V456.09H706.457V462.77H706.516C707.254 461.316 708.66 460.438 710.406 460.438C713.5 460.438 715.539 462.898 715.539 466.824V466.836C715.539 470.762 713.512 473.246 710.383 473.246ZM709.715 471.066C711.707 471.066 712.949 469.461 712.949 466.836V466.824C712.949 464.223 711.707 462.605 709.715 462.605C707.805 462.605 706.445 464.27 706.445 466.824V466.836C706.445 469.402 707.793 471.066 709.715 471.066ZM721.117 473.223C718.656 473.223 717.004 471.711 717.004 469.496V469.473C717.004 467.328 718.668 466.016 721.586 465.84L724.938 465.641V464.715C724.938 463.355 724.059 462.535 722.488 462.535C721.023 462.535 720.121 463.227 719.91 464.211L719.887 464.316H717.496L717.508 464.188C717.684 462.066 719.523 460.438 722.559 460.438C725.57 460.438 727.48 462.031 727.48 464.504V473H724.938V471.055H724.891C724.176 472.379 722.746 473.223 721.117 473.223ZM719.559 469.438C719.559 470.516 720.449 471.195 721.809 471.195C723.59 471.195 724.938 469.988 724.938 468.383V467.422L721.926 467.609C720.402 467.703 719.559 468.371 719.559 469.414V469.438ZM730.035 473V456.09H732.566V473H730.035ZM738.789 473.223C736.328 473.223 734.676 471.711 734.676 469.496V469.473C734.676 467.328 736.34 466.016 739.258 465.84L742.609 465.641V464.715C742.609 463.355 741.73 462.535 740.16 462.535C738.695 462.535 737.793 463.227 737.582 464.211L737.559 464.316H735.168L735.18 464.188C735.355 462.066 737.195 460.438 740.23 460.438C743.242 460.438 745.152 462.031 745.152 464.504V473H742.609V471.055H742.562C741.848 472.379 740.418 473.223 738.789 473.223ZM737.23 469.438C737.23 470.516 738.121 471.195 739.48 471.195C741.262 471.195 742.609 469.988 742.609 468.383V467.422L739.598 467.609C738.074 467.703 737.23 468.371 737.23 469.414V469.438ZM747.613 473V460.672H750.145V462.535H750.203C750.848 461.281 752.113 460.438 753.977 460.438C756.684 460.438 758.242 462.184 758.242 465.02V473H755.699V465.5C755.699 463.648 754.832 462.605 753.074 462.605C751.293 462.605 750.145 463.895 750.145 465.816V473H747.613ZM765.988 473.246C762.391 473.246 760.141 470.773 760.141 466.824V466.812C760.141 462.91 762.438 460.438 765.953 460.438C769.129 460.438 771.051 462.477 771.262 464.797L771.273 464.879H768.859L768.836 464.785C768.566 463.578 767.629 462.559 765.977 462.559C764.008 462.559 762.73 464.199 762.73 466.836V466.848C762.73 469.543 764.031 471.125 765.988 471.125C767.547 471.125 768.543 470.223 768.848 468.887L768.859 468.793H771.297L771.285 468.875C771.016 471.348 768.953 473.246 765.988 473.246ZM778.352 473.246C774.73 473.246 772.539 470.773 772.539 466.883V466.871C772.539 463.016 774.766 460.438 778.223 460.438C781.68 460.438 783.801 462.922 783.801 466.625V467.48H775.07C775.117 469.812 776.395 471.172 778.41 471.172C779.91 471.172 780.906 470.398 781.223 469.473L781.258 469.379H783.66L783.637 469.508C783.238 471.465 781.34 473.246 778.352 473.246ZM778.234 462.512C776.594 462.512 775.328 463.625 775.105 465.688H781.293C781.082 463.555 779.887 462.512 778.234 462.512ZM785.77 473V460.672H788.301V462.781H788.359C788.758 461.34 789.789 460.438 791.195 460.438C791.559 460.438 791.875 460.496 792.074 460.531V462.887C791.875 462.805 791.43 462.746 790.938 462.746C789.309 462.746 788.301 463.812 788.301 465.652V473H785.77Z"
              fill="white"/>
        <rect x="505" y="433.5" width="430" height="93" rx="20.5" stroke="#1D9EEB" stroke-width="3"/>
        <g clip-path="url(#clip2_966_2637)">
            <path d="M326.04 625H320.25V628H325.5V658H320.25V661H328.5V627.505C328.504 627.179 328.443 626.855 328.322 626.552C328.2 626.249 328.02 625.974 327.791 625.741C327.562 625.508 327.29 625.323 326.99 625.196C326.689 625.068 326.366 625.002 326.04 625Z"
                  fill="#F2F7FA"/>
            <path d="M286.5 628H291.75V625H285.96C285.634 625.002 285.311 625.068 285.011 625.196C284.71 625.323 284.438 625.508 284.209 625.741C283.98 625.974 283.8 626.249 283.678 626.552C283.557 626.855 283.496 627.179 283.5 627.505V661H291.75V658H286.5V628Z"
                  fill="#F2F7FA"/>
            <path d="M306.015 654.67C307.507 654.67 308.715 653.468 308.715 651.985C308.715 650.502 307.507 649.3 306.015 649.3C304.524 649.3 303.315 650.502 303.315 651.985C303.315 653.468 304.524 654.67 306.015 654.67Z"
                  fill="#F2F7FA"/>
            <path d="M315.48 619H296.52C295.852 619 295.211 619.265 294.738 619.738C294.265 620.211 294 620.852 294 621.52V661H318V621.52C318 620.852 317.735 620.211 317.262 619.738C316.789 619.265 316.148 619 315.48 619ZM315 658H297V622H315V658Z"
                  fill="#F2F7FA"/>
            <path d="M299.25 626.815H312.75V629.215H299.25V626.815Z" fill="#F2F7FA"/>
        </g>
        <path d="M358.559 633V616.09H361.184V624.188H361.254L368.074 616.09H371.191L364.781 623.566L371.742 633H368.496L362.906 625.359L361.184 627.352V633H358.559ZM377.262 633.246C374.555 633.246 373.008 631.5 373.008 628.664V620.672H375.539V628.172C375.539 630.035 376.406 631.066 378.164 631.066C379.945 631.066 381.094 629.789 381.094 627.867V620.672H383.637V633H381.094V631.148H381.035C380.391 632.391 379.137 633.246 377.262 633.246ZM392.695 633.246C390.926 633.246 389.555 632.355 388.828 630.914H388.77V633H386.238V616.09H388.77V622.77H388.828C389.566 621.316 390.973 620.438 392.719 620.438C395.812 620.438 397.852 622.898 397.852 626.824V626.836C397.852 630.762 395.824 633.246 392.695 633.246ZM392.027 631.066C394.02 631.066 395.262 629.461 395.262 626.836V626.824C395.262 624.223 394.02 622.605 392.027 622.605C390.117 622.605 388.758 624.27 388.758 626.824V626.836C388.758 629.402 390.105 631.066 392.027 631.066ZM405.07 633.246C401.449 633.246 399.258 630.773 399.258 626.883V626.871C399.258 623.016 401.484 620.438 404.941 620.438C408.398 620.438 410.52 622.922 410.52 626.625V627.48H401.789C401.836 629.812 403.113 631.172 405.129 631.172C406.629 631.172 407.625 630.398 407.941 629.473L407.977 629.379H410.379L410.355 629.508C409.957 631.465 408.059 633.246 405.07 633.246ZM404.953 622.512C403.312 622.512 402.047 623.625 401.824 625.688H408.012C407.801 623.555 406.605 622.512 404.953 622.512ZM412.488 633V620.672H415.02V622.781H415.078C415.477 621.34 416.508 620.438 417.914 620.438C418.277 620.438 418.594 620.496 418.793 620.531V622.887C418.594 622.805 418.148 622.746 417.656 622.746C416.027 622.746 415.02 623.812 415.02 625.652V633H412.488ZM420.363 633V620.672H422.895V622.535H422.953C423.598 621.281 424.863 620.438 426.727 620.438C429.434 620.438 430.992 622.184 430.992 625.02V633H428.449V625.5C428.449 623.648 427.582 622.605 425.824 622.605C424.043 622.605 422.895 623.895 422.895 625.816V633H420.363ZM438.703 633.246C435.082 633.246 432.891 630.773 432.891 626.883V626.871C432.891 623.016 435.117 620.438 438.574 620.438C442.031 620.438 444.152 622.922 444.152 626.625V627.48H435.422C435.469 629.812 436.746 631.172 438.762 631.172C440.262 631.172 441.258 630.398 441.574 629.473L441.609 629.379H444.012L443.988 629.508C443.59 631.465 441.691 633.246 438.703 633.246ZM438.586 622.512C436.945 622.512 435.68 623.625 435.457 625.688H441.645C441.434 623.555 440.238 622.512 438.586 622.512ZM450.445 633.246C448.008 633.246 446.836 632.215 446.836 629.754V622.688H445.066V620.672H446.836V617.461H449.426V620.672H451.734V622.688H449.426V629.602C449.426 630.855 449.988 631.23 451.055 631.23C451.324 631.23 451.547 631.207 451.734 631.184V633.141C451.441 633.188 450.961 633.246 450.445 633.246ZM458.789 633.246C455.168 633.246 452.977 630.773 452.977 626.883V626.871C452.977 623.016 455.203 620.438 458.66 620.438C462.117 620.438 464.238 622.922 464.238 626.625V627.48H455.508C455.555 629.812 456.832 631.172 458.848 631.172C460.348 631.172 461.344 630.398 461.66 629.473L461.695 629.379H464.098L464.074 629.508C463.676 631.465 461.777 633.246 458.789 633.246ZM458.672 622.512C457.031 622.512 455.766 623.625 455.543 625.688H461.73C461.52 623.555 460.324 622.512 458.672 622.512ZM470.824 633.246C467.742 633.246 465.938 631.723 465.68 629.473L465.668 629.367H468.176L468.199 629.484C468.434 630.621 469.277 631.289 470.836 631.289C472.359 631.289 473.273 630.656 473.273 629.66V629.648C473.273 628.852 472.828 628.395 471.504 628.078L469.488 627.621C467.145 627.082 465.984 625.957 465.984 624.164V624.152C465.984 621.949 467.906 620.438 470.742 620.438C473.66 620.438 475.418 622.066 475.547 624.164L475.559 624.305H473.18L473.168 624.223C473.016 623.145 472.172 622.395 470.742 622.395C469.383 622.395 468.527 623.039 468.527 624.023V624.035C468.527 624.797 469.031 625.312 470.355 625.629L472.359 626.086C474.879 626.672 475.84 627.668 475.84 629.438V629.449C475.84 631.699 473.73 633.246 470.824 633.246ZM487.98 633.246C484.383 633.246 482.133 630.773 482.133 626.824V626.812C482.133 622.91 484.43 620.438 487.945 620.438C491.121 620.438 493.043 622.477 493.254 624.797L493.266 624.879H490.852L490.828 624.785C490.559 623.578 489.621 622.559 487.969 622.559C486 622.559 484.723 624.199 484.723 626.836V626.848C484.723 629.543 486.023 631.125 487.98 631.125C489.539 631.125 490.535 630.223 490.84 628.887L490.852 628.793H493.289L493.277 628.875C493.008 631.348 490.945 633.246 487.98 633.246ZM495.176 633V616.09H497.707V633H495.176ZM504.504 633.246C501.797 633.246 500.25 631.5 500.25 628.664V620.672H502.781V628.172C502.781 630.035 503.648 631.066 505.406 631.066C507.188 631.066 508.336 629.789 508.336 627.867V620.672H510.879V633H508.336V631.148H508.277C507.633 632.391 506.379 633.246 504.504 633.246ZM518.004 633.246C514.922 633.246 513.117 631.723 512.859 629.473L512.848 629.367H515.355L515.379 629.484C515.613 630.621 516.457 631.289 518.016 631.289C519.539 631.289 520.453 630.656 520.453 629.66V629.648C520.453 628.852 520.008 628.395 518.684 628.078L516.668 627.621C514.324 627.082 513.164 625.957 513.164 624.164V624.152C513.164 621.949 515.086 620.438 517.922 620.438C520.84 620.438 522.598 622.066 522.727 624.164L522.738 624.305H520.359L520.348 624.223C520.195 623.145 519.352 622.395 517.922 622.395C516.562 622.395 515.707 623.039 515.707 624.023V624.035C515.707 624.797 516.211 625.312 517.535 625.629L519.539 626.086C522.059 626.672 523.02 627.668 523.02 629.438V629.449C523.02 631.699 520.91 633.246 518.004 633.246ZM529.312 633.246C526.875 633.246 525.703 632.215 525.703 629.754V622.688H523.934V620.672H525.703V617.461H528.293V620.672H530.602V622.688H528.293V629.602C528.293 630.855 528.855 631.23 529.922 631.23C530.191 631.23 530.414 631.207 530.602 631.184V633.141C530.309 633.188 529.828 633.246 529.312 633.246ZM537.656 633.246C534.035 633.246 531.844 630.773 531.844 626.883V626.871C531.844 623.016 534.07 620.438 537.527 620.438C540.984 620.438 543.105 622.922 543.105 626.625V627.48H534.375C534.422 629.812 535.699 631.172 537.715 631.172C539.215 631.172 540.211 630.398 540.527 629.473L540.562 629.379H542.965L542.941 629.508C542.543 631.465 540.645 633.246 537.656 633.246ZM537.539 622.512C535.898 622.512 534.633 623.625 534.41 625.688H540.598C540.387 623.555 539.191 622.512 537.539 622.512ZM545.074 633V620.672H547.605V622.781H547.664C548.062 621.34 549.094 620.438 550.5 620.438C550.863 620.438 551.18 620.496 551.379 620.531V622.887C551.18 622.805 550.734 622.746 550.242 622.746C548.613 622.746 547.605 623.812 547.605 625.652V633H545.074ZM562.148 637.102C559.805 634.195 558.762 630.773 558.762 626.59C558.762 622.395 559.816 618.984 562.148 616.09H564.375C562.664 618.082 561.363 622.641 561.363 626.59C561.363 630.527 562.664 635.109 564.375 637.102H562.148ZM566.379 633V616.09H569.004V630.738H576.879V633H566.379ZM580.242 637.102H578.016C579.727 635.109 581.027 630.527 581.027 626.59C581.027 622.641 579.727 618.082 578.016 616.09H580.242C582.574 618.996 583.629 622.406 583.629 626.59C583.629 630.773 582.574 634.195 580.242 637.102Z"
              fill="white"/>
        <rect x="256.5" y="593.5" width="430" height="93" rx="20.5" stroke="#1D9EEB" stroke-width="3"/>
        <g clip-path="url(#clip3_966_2637)">
            <path d="M823.04 625H817.25V628H822.5V658H817.25V661H825.5V627.505C825.504 627.179 825.443 626.855 825.322 626.552C825.2 626.249 825.02 625.974 824.791 625.741C824.562 625.508 824.29 625.323 823.99 625.196C823.689 625.068 823.366 625.002 823.04 625Z"
                  fill="#F2F7FA"/>
            <path d="M783.5 628H788.75V625H782.96C782.634 625.002 782.311 625.068 782.011 625.196C781.71 625.323 781.438 625.508 781.209 625.741C780.98 625.974 780.8 626.249 780.678 626.552C780.557 626.855 780.496 627.179 780.5 627.505V661H788.75V658H783.5V628Z"
                  fill="#F2F7FA"/>
            <path d="M803.015 654.67C804.507 654.67 805.715 653.468 805.715 651.985C805.715 650.502 804.507 649.3 803.015 649.3C801.524 649.3 800.315 650.502 800.315 651.985C800.315 653.468 801.524 654.67 803.015 654.67Z"
                  fill="#F2F7FA"/>
            <path d="M812.48 619H793.52C792.852 619 792.211 619.265 791.738 619.738C791.265 620.211 791 620.852 791 621.52V661H815V621.52C815 620.852 814.735 620.211 814.262 619.738C813.789 619.265 813.148 619 812.48 619ZM812 658H794V622H812V658Z"
                  fill="#F2F7FA"/>
            <path d="M796.25 626.815H809.75V629.215H796.25V626.815Z" fill="#F2F7FA"/>
        </g>
        <path d="M855.559 633V616.09H858.184V624.188H858.254L865.074 616.09H868.191L861.781 623.566L868.742 633H865.496L859.906 625.359L858.184 627.352V633H855.559ZM874.262 633.246C871.555 633.246 870.008 631.5 870.008 628.664V620.672H872.539V628.172C872.539 630.035 873.406 631.066 875.164 631.066C876.945 631.066 878.094 629.789 878.094 627.867V620.672H880.637V633H878.094V631.148H878.035C877.391 632.391 876.137 633.246 874.262 633.246ZM889.695 633.246C887.926 633.246 886.555 632.355 885.828 630.914H885.77V633H883.238V616.09H885.77V622.77H885.828C886.566 621.316 887.973 620.438 889.719 620.438C892.812 620.438 894.852 622.898 894.852 626.824V626.836C894.852 630.762 892.824 633.246 889.695 633.246ZM889.027 631.066C891.02 631.066 892.262 629.461 892.262 626.836V626.824C892.262 624.223 891.02 622.605 889.027 622.605C887.117 622.605 885.758 624.27 885.758 626.824V626.836C885.758 629.402 887.105 631.066 889.027 631.066ZM902.07 633.246C898.449 633.246 896.258 630.773 896.258 626.883V626.871C896.258 623.016 898.484 620.438 901.941 620.438C905.398 620.438 907.52 622.922 907.52 626.625V627.48H898.789C898.836 629.812 900.113 631.172 902.129 631.172C903.629 631.172 904.625 630.398 904.941 629.473L904.977 629.379H907.379L907.355 629.508C906.957 631.465 905.059 633.246 902.07 633.246ZM901.953 622.512C900.312 622.512 899.047 623.625 898.824 625.688H905.012C904.801 623.555 903.605 622.512 901.953 622.512ZM909.488 633V620.672H912.02V622.781H912.078C912.477 621.34 913.508 620.438 914.914 620.438C915.277 620.438 915.594 620.496 915.793 620.531V622.887C915.594 622.805 915.148 622.746 914.656 622.746C913.027 622.746 912.02 623.812 912.02 625.652V633H909.488ZM917.363 633V620.672H919.895V622.535H919.953C920.598 621.281 921.863 620.438 923.727 620.438C926.434 620.438 927.992 622.184 927.992 625.02V633H925.449V625.5C925.449 623.648 924.582 622.605 922.824 622.605C921.043 622.605 919.895 623.895 919.895 625.816V633H917.363ZM935.703 633.246C932.082 633.246 929.891 630.773 929.891 626.883V626.871C929.891 623.016 932.117 620.438 935.574 620.438C939.031 620.438 941.152 622.922 941.152 626.625V627.48H932.422C932.469 629.812 933.746 631.172 935.762 631.172C937.262 631.172 938.258 630.398 938.574 629.473L938.609 629.379H941.012L940.988 629.508C940.59 631.465 938.691 633.246 935.703 633.246ZM935.586 622.512C933.945 622.512 932.68 623.625 932.457 625.688H938.645C938.434 623.555 937.238 622.512 935.586 622.512ZM947.445 633.246C945.008 633.246 943.836 632.215 943.836 629.754V622.688H942.066V620.672H943.836V617.461H946.426V620.672H948.734V622.688H946.426V629.602C946.426 630.855 946.988 631.23 948.055 631.23C948.324 631.23 948.547 631.207 948.734 631.184V633.141C948.441 633.188 947.961 633.246 947.445 633.246ZM955.789 633.246C952.168 633.246 949.977 630.773 949.977 626.883V626.871C949.977 623.016 952.203 620.438 955.66 620.438C959.117 620.438 961.238 622.922 961.238 626.625V627.48H952.508C952.555 629.812 953.832 631.172 955.848 631.172C957.348 631.172 958.344 630.398 958.66 629.473L958.695 629.379H961.098L961.074 629.508C960.676 631.465 958.777 633.246 955.789 633.246ZM955.672 622.512C954.031 622.512 952.766 623.625 952.543 625.688H958.73C958.52 623.555 957.324 622.512 955.672 622.512ZM967.824 633.246C964.742 633.246 962.938 631.723 962.68 629.473L962.668 629.367H965.176L965.199 629.484C965.434 630.621 966.277 631.289 967.836 631.289C969.359 631.289 970.273 630.656 970.273 629.66V629.648C970.273 628.852 969.828 628.395 968.504 628.078L966.488 627.621C964.145 627.082 962.984 625.957 962.984 624.164V624.152C962.984 621.949 964.906 620.438 967.742 620.438C970.66 620.438 972.418 622.066 972.547 624.164L972.559 624.305H970.18L970.168 624.223C970.016 623.145 969.172 622.395 967.742 622.395C966.383 622.395 965.527 623.039 965.527 624.023V624.035C965.527 624.797 966.031 625.312 967.355 625.629L969.359 626.086C971.879 626.672 972.84 627.668 972.84 629.438V629.449C972.84 631.699 970.73 633.246 967.824 633.246ZM984.98 633.246C981.383 633.246 979.133 630.773 979.133 626.824V626.812C979.133 622.91 981.43 620.438 984.945 620.438C988.121 620.438 990.043 622.477 990.254 624.797L990.266 624.879H987.852L987.828 624.785C987.559 623.578 986.621 622.559 984.969 622.559C983 622.559 981.723 624.199 981.723 626.836V626.848C981.723 629.543 983.023 631.125 984.98 631.125C986.539 631.125 987.535 630.223 987.84 628.887L987.852 628.793H990.289L990.277 628.875C990.008 631.348 987.945 633.246 984.98 633.246ZM992.176 633V616.09H994.707V633H992.176ZM1001.5 633.246C998.797 633.246 997.25 631.5 997.25 628.664V620.672H999.781V628.172C999.781 630.035 1000.65 631.066 1002.41 631.066C1004.19 631.066 1005.34 629.789 1005.34 627.867V620.672H1007.88V633H1005.34V631.148H1005.28C1004.63 632.391 1003.38 633.246 1001.5 633.246ZM1015 633.246C1011.92 633.246 1010.12 631.723 1009.86 629.473L1009.85 629.367H1012.36L1012.38 629.484C1012.61 630.621 1013.46 631.289 1015.02 631.289C1016.54 631.289 1017.45 630.656 1017.45 629.66V629.648C1017.45 628.852 1017.01 628.395 1015.68 628.078L1013.67 627.621C1011.32 627.082 1010.16 625.957 1010.16 624.164V624.152C1010.16 621.949 1012.09 620.438 1014.92 620.438C1017.84 620.438 1019.6 622.066 1019.73 624.164L1019.74 624.305H1017.36L1017.35 624.223C1017.2 623.145 1016.35 622.395 1014.92 622.395C1013.56 622.395 1012.71 623.039 1012.71 624.023V624.035C1012.71 624.797 1013.21 625.312 1014.54 625.629L1016.54 626.086C1019.06 626.672 1020.02 627.668 1020.02 629.438V629.449C1020.02 631.699 1017.91 633.246 1015 633.246ZM1026.31 633.246C1023.88 633.246 1022.7 632.215 1022.7 629.754V622.688H1020.93V620.672H1022.7V617.461H1025.29V620.672H1027.6V622.688H1025.29V629.602C1025.29 630.855 1025.86 631.23 1026.92 631.23C1027.19 631.23 1027.41 631.207 1027.6 631.184V633.141C1027.31 633.188 1026.83 633.246 1026.31 633.246ZM1034.66 633.246C1031.04 633.246 1028.84 630.773 1028.84 626.883V626.871C1028.84 623.016 1031.07 620.438 1034.53 620.438C1037.98 620.438 1040.11 622.922 1040.11 626.625V627.48H1031.38C1031.42 629.812 1032.7 631.172 1034.71 631.172C1036.21 631.172 1037.21 630.398 1037.53 629.473L1037.56 629.379H1039.96L1039.94 629.508C1039.54 631.465 1037.64 633.246 1034.66 633.246ZM1034.54 622.512C1032.9 622.512 1031.63 623.625 1031.41 625.688H1037.6C1037.39 623.555 1036.19 622.512 1034.54 622.512ZM1042.07 633V620.672H1044.61V622.781H1044.66C1045.06 621.34 1046.09 620.438 1047.5 620.438C1047.86 620.438 1048.18 620.496 1048.38 620.531V622.887C1048.18 622.805 1047.73 622.746 1047.24 622.746C1045.61 622.746 1044.61 623.812 1044.61 625.652V633H1042.07ZM1059.15 637.102C1056.8 634.195 1055.76 630.773 1055.76 626.59C1055.76 622.395 1056.82 618.984 1059.15 616.09H1061.38C1059.66 618.082 1058.36 622.641 1058.36 626.59C1058.36 630.527 1059.66 635.109 1061.38 637.102H1059.15ZM1063.38 633V616.09H1066V630.738H1073.88V633H1063.38ZM1077.24 637.102H1075.02C1076.73 635.109 1078.03 630.527 1078.03 626.59C1078.03 622.641 1076.73 618.082 1075.02 616.09H1077.24C1079.57 618.996 1080.63 622.406 1080.63 626.59C1080.63 630.773 1079.57 634.195 1077.24 637.102Z"
              fill="white"/>
        <rect x="753.5" y="593.5" width="430" height="93" rx="20.5" stroke="#1D9EEB" stroke-width="3"/>
        <g clip-path="url(#clip4_966_2637)">
            <path d="M567.25 779.12C561.655 779.12 556 781.1 556 784.865V787.25C557.005 787.296 558.006 787.396 559 787.55V784.865C559 783.89 562.135 782.105 567.25 782.105C572.365 782.105 575.5 783.905 575.5 784.865V800.36C575.5 801.17 573.31 802.52 569.65 802.955V805.955C574.345 805.475 578.5 803.555 578.5 800.33V784.865C578.5 781.1 572.845 779.12 567.25 779.12Z"
                  fill="#F2F7FA"/>
            <path d="M533.5 800.36V784.865C533.5 783.89 536.635 782.105 541.75 782.105C546.865 782.105 550 783.905 550 784.865V787.55C550.994 787.396 551.995 787.296 553 787.25V784.865C553 781.085 547.345 779.105 541.75 779.105C536.155 779.105 530.5 781.1 530.5 784.865V800.36C530.5 803.6 534.655 805.505 539.35 806V803C535.69 802.52 533.5 801.17 533.5 800.36Z"
                  fill="#F2F7FA"/>
            <path d="M554.5 789.275C547.105 789.275 541.525 792.095 541.525 795.845V814.31C541.525 818.06 547.105 820.88 554.5 820.88C561.895 820.88 567.475 818.06 567.475 814.31V795.845C567.475 792.095 561.895 789.275 554.5 789.275ZM564.475 800.78C563.2 802.28 559.345 803.78 554.5 803.78C552.474 803.801 550.454 803.538 548.5 803V805.19C550.464 805.672 552.479 805.908 554.5 805.895C557.976 806.036 561.425 805.227 564.475 803.555V808.235C563.2 809.735 559.345 811.235 554.5 811.235C552.473 811.251 550.454 810.983 548.5 810.44V812.63C550.464 813.112 552.479 813.348 554.5 813.335C557.976 813.476 561.425 812.667 564.475 810.995V814.43C564.475 815.855 560.5 818 554.5 818C548.5 818 544.525 815.855 544.525 814.43V795.845C544.525 794.42 548.5 792.275 554.5 792.275C560.5 792.275 564.475 794.42 564.475 795.845V800.78Z"
                  fill="#F2F7FA"/>
        </g>
        <path d="M607.059 793V776.09H613.023C618.039 776.09 621.027 779.172 621.027 784.492V784.516C621.027 789.859 618.062 793 613.023 793H607.059ZM609.684 790.727H612.777C616.363 790.727 618.344 788.535 618.344 784.539V784.516C618.344 780.543 616.34 778.352 612.777 778.352H609.684V790.727ZM628.527 793.246C624.988 793.246 622.68 790.797 622.68 786.836V786.812C622.68 782.875 625.012 780.438 628.516 780.438C632.031 780.438 634.375 782.863 634.375 786.812V786.836C634.375 790.809 632.055 793.246 628.527 793.246ZM628.539 791.125C630.52 791.125 631.785 789.555 631.785 786.836V786.812C631.785 784.117 630.496 782.559 628.516 782.559C626.57 782.559 625.27 784.117 625.27 786.812V786.836C625.27 789.566 626.559 791.125 628.539 791.125ZM641.629 793.246C638.031 793.246 635.781 790.773 635.781 786.824V786.812C635.781 782.91 638.078 780.438 641.594 780.438C644.77 780.438 646.691 782.477 646.902 784.797L646.914 784.879H644.5L644.477 784.785C644.207 783.578 643.27 782.559 641.617 782.559C639.648 782.559 638.371 784.199 638.371 786.836V786.848C638.371 789.543 639.672 791.125 641.629 791.125C643.188 791.125 644.184 790.223 644.488 788.887L644.5 788.793H646.938L646.926 788.875C646.656 791.348 644.594 793.246 641.629 793.246ZM652.926 793.246C650.219 793.246 648.672 791.5 648.672 788.664V780.672H651.203V788.172C651.203 790.035 652.07 791.066 653.828 791.066C655.609 791.066 656.758 789.789 656.758 787.867V780.672H659.301V793H656.758V791.148H656.699C656.055 792.391 654.801 793.246 652.926 793.246ZM661.809 793V780.672H664.34V782.582H664.398C664.926 781.293 666.18 780.438 667.797 780.438C669.496 780.438 670.738 781.316 671.23 782.863H671.289C671.922 781.363 673.375 780.438 675.133 780.438C677.57 780.438 679.164 782.055 679.164 784.527V793H676.621V785.137C676.621 783.531 675.766 782.605 674.266 782.605C672.766 782.605 671.723 783.73 671.723 785.289V793H669.238V784.949C669.238 783.52 668.336 782.605 666.906 782.605C665.406 782.605 664.34 783.789 664.34 785.383V793H661.809ZM686.875 793.246C683.254 793.246 681.062 790.773 681.062 786.883V786.871C681.062 783.016 683.289 780.438 686.746 780.438C690.203 780.438 692.324 782.922 692.324 786.625V787.48H683.594C683.641 789.812 684.918 791.172 686.934 791.172C688.434 791.172 689.43 790.398 689.746 789.473L689.781 789.379H692.184L692.16 789.508C691.762 791.465 689.863 793.246 686.875 793.246ZM686.758 782.512C685.117 782.512 683.852 783.625 683.629 785.688H689.816C689.605 783.555 688.41 782.512 686.758 782.512ZM694.293 793V780.672H696.824V782.535H696.883C697.527 781.281 698.793 780.438 700.656 780.438C703.363 780.438 704.922 782.184 704.922 785.02V793H702.379V785.5C702.379 783.648 701.512 782.605 699.754 782.605C697.973 782.605 696.824 783.895 696.824 785.816V793H694.293ZM711.695 793.246C709.258 793.246 708.086 792.215 708.086 789.754V782.688H706.316V780.672H708.086V777.461H710.676V780.672H712.984V782.688H710.676V789.602C710.676 790.855 711.238 791.23 712.305 791.23C712.574 791.23 712.797 791.207 712.984 791.184V793.141C712.691 793.188 712.211 793.246 711.695 793.246ZM726.508 793.246C724.738 793.246 723.367 792.355 722.641 790.914H722.582V793H720.051V776.09H722.582V782.77H722.641C723.379 781.316 724.785 780.438 726.531 780.438C729.625 780.438 731.664 782.898 731.664 786.824V786.836C731.664 790.762 729.637 793.246 726.508 793.246ZM725.84 791.066C727.832 791.066 729.074 789.461 729.074 786.836V786.824C729.074 784.223 727.832 782.605 725.84 782.605C723.93 782.605 722.57 784.27 722.57 786.824V786.836C722.57 789.402 723.918 791.066 725.84 791.066ZM737.242 793.223C734.781 793.223 733.129 791.711 733.129 789.496V789.473C733.129 787.328 734.793 786.016 737.711 785.84L741.062 785.641V784.715C741.062 783.355 740.184 782.535 738.613 782.535C737.148 782.535 736.246 783.227 736.035 784.211L736.012 784.316H733.621L733.633 784.188C733.809 782.066 735.648 780.438 738.684 780.438C741.695 780.438 743.605 782.031 743.605 784.504V793H741.062V791.055H741.016C740.301 792.379 738.871 793.223 737.242 793.223ZM735.684 789.438C735.684 790.516 736.574 791.195 737.934 791.195C739.715 791.195 741.062 789.988 741.062 788.383V787.422L738.051 787.609C736.527 787.703 735.684 788.371 735.684 789.414V789.438ZM750.684 793.246C747.602 793.246 745.797 791.723 745.539 789.473L745.527 789.367H748.035L748.059 789.484C748.293 790.621 749.137 791.289 750.695 791.289C752.219 791.289 753.133 790.656 753.133 789.66V789.648C753.133 788.852 752.688 788.395 751.363 788.078L749.348 787.621C747.004 787.082 745.844 785.957 745.844 784.164V784.152C745.844 781.949 747.766 780.438 750.602 780.438C753.52 780.438 755.277 782.066 755.406 784.164L755.418 784.305H753.039L753.027 784.223C752.875 783.145 752.031 782.395 750.602 782.395C749.242 782.395 748.387 783.039 748.387 784.023V784.035C748.387 784.797 748.891 785.312 750.215 785.629L752.219 786.086C754.738 786.672 755.699 787.668 755.699 789.438V789.449C755.699 791.699 753.59 793.246 750.684 793.246ZM762.93 793.246C759.309 793.246 757.117 790.773 757.117 786.883V786.871C757.117 783.016 759.344 780.438 762.801 780.438C766.258 780.438 768.379 782.922 768.379 786.625V787.48H759.648C759.695 789.812 760.973 791.172 762.988 791.172C764.488 791.172 765.484 790.398 765.801 789.473L765.836 789.379H768.238L768.215 789.508C767.816 791.465 765.918 793.246 762.93 793.246ZM762.812 782.512C761.172 782.512 759.906 783.625 759.684 785.688H765.871C765.66 783.555 764.465 782.512 762.812 782.512ZM774.953 793.246C771.812 793.246 769.797 790.762 769.797 786.836V786.824C769.797 782.898 771.836 780.438 774.93 780.438C776.676 780.438 778.082 781.316 778.82 782.77H778.867V776.09H781.41V793H778.867V790.914H778.82C778.082 792.355 776.723 793.246 774.953 793.246ZM775.621 791.066C777.531 791.066 778.879 789.402 778.879 786.836V786.824C778.879 784.27 777.52 782.605 775.621 782.605C773.629 782.605 772.387 784.223 772.387 786.824V786.836C772.387 789.461 773.617 791.066 775.621 791.066ZM793.492 793.246C790.352 793.246 788.336 790.762 788.336 786.836V786.824C788.336 782.898 790.375 780.438 793.469 780.438C795.215 780.438 796.621 781.316 797.359 782.77H797.406V776.09H799.949V793H797.406V790.914H797.359C796.621 792.355 795.262 793.246 793.492 793.246ZM794.16 791.066C796.07 791.066 797.418 789.402 797.418 786.836V786.824C797.418 784.27 796.059 782.605 794.16 782.605C792.168 782.605 790.926 784.223 790.926 786.824V786.836C790.926 789.461 792.156 791.066 794.16 791.066ZM809.102 793.246C807.332 793.246 805.961 792.355 805.234 790.914H805.176V793H802.645V776.09H805.176V782.77H805.234C805.973 781.316 807.379 780.438 809.125 780.438C812.219 780.438 814.258 782.898 814.258 786.824V786.836C814.258 790.762 812.23 793.246 809.102 793.246ZM808.434 791.066C810.426 791.066 811.668 789.461 811.668 786.836V786.824C811.668 784.223 810.426 782.605 808.434 782.605C806.523 782.605 805.164 784.27 805.164 786.824V786.836C805.164 789.402 806.512 791.066 808.434 791.066Z"
              fill="white"/>
        <rect x="505" y="753.5" width="430" height="93" rx="20.5" stroke="#1D9EEB" stroke-width="3"/>
    </g>
    <path d="M720 441.217L727.217 434L720 426.783L712.783 434L720 441.217ZM721.25 434L721.25 368L718.75 368L718.75 434L721.25 434Z"
          fill="url(#paint0_linear_966_2637)"/>
    <path d="M719.75 282.227L726.967 275.01L719.75 267.793L712.533 275.01L719.75 282.227ZM721 275.01L721 242.998L718.5 242.998L718.5 275.01L721 275.01Z"
          fill="url(#paint1_linear_966_2637)"/>
    <path d="M721 761.217L728.217 754L721 746.783L713.783 754L721 761.217ZM722.25 754V726.76H719.75V754H722.25Z"
          fill="url(#paint2_linear_966_2637)"/>
    <path d="M720 560L720 528" stroke="url(#paint3_linear_966_2637)" stroke-width="2.5"/>
    <path d="M720.002 241.727L480.357 243.438C475.949 243.47 472.346 239.929 472.3 235.521L472 206.467"
          stroke="url(#paint4_linear_966_2637)" stroke-width="2.5"/>
    <path d="M719.998 241.731L961.011 243.442C965.419 243.473 969.021 239.933 969.067 235.525L969.368 206.467"
          stroke="url(#paint5_linear_966_2637)" stroke-width="2.5"/>
    <path d="M468 559L683.976 559.854L721 560" stroke="url(#paint6_linear_966_2637)" stroke-width="2.5"/>
    <path d="M720.002 725.501L472.322 726.242C467.927 726.255 464.345 722.72 464.299 718.325L463.998 689.461"
          stroke="url(#paint7_linear_966_2637)" stroke-width="2.5"/>
    <path d="M720.002 725.5L966.184 725.295C970.568 725.292 974.132 721.761 974.177 717.378L974.485 687.617"
          stroke="url(#paint8_linear_966_2637)" stroke-width="2.5"/>
    <path d="M976.501 599.217L983.718 592L976.501 584.783L969.284 592L976.501 599.217ZM976.501 576.033L977.751 576.033L976.501 576.033ZM928.384 561.314L968.501 561.315L968.501 558.815L928.384 558.814L928.384 561.314ZM975.251 568.065L975.251 576.033L977.751 576.033L977.751 568.065L975.251 568.065ZM975.251 576.033L975.251 592L977.751 592L977.751 576.033L975.251 576.033ZM968.501 561.315C972.229 561.315 975.251 564.337 975.251 568.065L977.751 568.065C977.751 562.956 973.61 558.815 968.501 558.815L968.501 561.315Z"
          fill="url(#paint9_linear_966_2637)"/>
    <path d="M456.325 598.649L449.11 591.431L456.328 584.215L463.543 591.433L456.325 598.649ZM456.329 575.204L457.579 575.204L457.579 575.205L456.329 575.204ZM504.497 560.25L464.332 560.223L464.333 557.723L504.499 557.75L504.497 560.25ZM457.577 566.974L457.579 575.204L455.079 575.205L455.077 566.975L457.577 566.974ZM457.579 575.205L457.577 591.432L455.077 591.432L455.079 575.204L457.579 575.205ZM464.332 560.223C460.601 560.22 457.576 563.244 457.577 566.974L455.077 566.975C455.076 561.863 459.222 557.719 464.333 557.723L464.332 560.223Z"
          fill="url(#paint10_linear_966_2637)"/>
    <path d="M965 560L755 560L719 560" stroke="url(#paint11_linear_966_2637)" stroke-width="2.5"/>
    <defs>
        <filter id="filter0_f_966_2637" x="27.19" y="-212.81" width="1384.62" height="1384.62"
                filterUnits="userSpaceOnUse" color-interpolation-filters="sRGB">
            <feFlood flood-opacity="0" result="BackgroundImageFix"/>
            <feBlend mode="normal" in="SourceGraphic" in2="BackgroundImageFix" result="shape"/>
            <feGaussianBlur stdDeviation="223.405" result="effect1_foregroundBlur_966_2637"/>
        </filter>
        <linearGradient id="paint0_linear_966_2637" x1="711" y1="507.5" x2="868.654" y2="411.836"
                        gradientUnits="userSpaceOnUse">
            <stop stop-color="white"/>
            <stop offset="1" stop-color="#1D9EEB" stop-opacity="0"/>
        </linearGradient>
        <linearGradient id="paint1_linear_966_2637" x1="716.82" y1="279.266" x2="738.69" y2="267.518"
                        gradientUnits="userSpaceOnUse">
            <stop offset="0.0001" stop-color="#1D9EEB"/>
            <stop offset="0.677083" stop-color="#1D9EEB"/>
        </linearGradient>
        <linearGradient id="paint2_linear_966_2637" x1="-24823.1" y1="757.59" x2="-24823.1" y2="721.08"
                        gradientUnits="userSpaceOnUse">
            <stop offset="0.0001" stop-color="#1D9EEB"/>
            <stop offset="1" stop-color="#928DC6"/>
            <stop offset="1" stop-color="#1D9EEB"/>
        </linearGradient>
        <linearGradient id="paint3_linear_966_2637" x1="679" y1="661.5" x2="799.64" y2="609.574"
                        gradientUnits="userSpaceOnUse">
            <stop stop-color="white"/>
            <stop offset="1" stop-color="#1D9EEB" stop-opacity="0"/>
        </linearGradient>
        <linearGradient id="paint4_linear_966_2637" x1="1058.51" y1="279.475" x2="1064.51" y2="139.768"
                        gradientUnits="userSpaceOnUse">
            <stop stop-color="#FCFCFC" stop-opacity="0.6"/>
            <stop offset="1" stop-color="#1D9EEB" stop-opacity="0"/>
        </linearGradient>
        <linearGradient id="paint5_linear_966_2637" x1="381.324" y1="279.466" x2="375.348" y2="139.744"
                        gradientUnits="userSpaceOnUse">
            <stop stop-color="#FCFCFC" stop-opacity="0.6"/>
            <stop offset="1" stop-color="#1D9EEB" stop-opacity="0"/>
        </linearGradient>
        <linearGradient id="paint6_linear_966_2637" x1="-859.129" y1="455.424" x2="-819.521" y2="782.906"
                        gradientUnits="userSpaceOnUse">
            <stop stop-color="white"/>
            <stop offset="1" stop-color="#1D9EEB"/>
        </linearGradient>
        <linearGradient id="paint7_linear_966_2637" x1="1520.88" y1="722.655" x2="1522.07" y2="588.253"
                        gradientUnits="userSpaceOnUse">
            <stop stop-color="#1D9EEB" stop-opacity="0.6"/>
            <stop offset="1" stop-color="#1D9EEB" stop-opacity="0"/>
        </linearGradient>
        <linearGradient id="paint8_linear_966_2637" x1="720.003" y1="742.499" x2="713.612" y2="624.271"
                        gradientUnits="userSpaceOnUse">
            <stop offset="0.28125" stop-color="#1D9EEB" stop-opacity="0.6"/>
            <stop offset="1" stop-color="#1D9EEB" stop-opacity="0"/>
        </linearGradient>
        <linearGradient id="paint9_linear_966_2637" x1="835.5" y1="551.5" x2="828.539" y2="633.145"
                        gradientUnits="userSpaceOnUse">
            <stop stop-color="#1D9EEB"/>
            <stop offset="1" stop-color="white"/>
        </linearGradient>
        <linearGradient id="paint10_linear_966_2637" x1="597.333" y1="550.249" x2="604.535" y2="633.2"
                        gradientUnits="userSpaceOnUse">
            <stop stop-color="#1D9EEB"/>
            <stop offset="1" stop-color="white"/>
        </linearGradient>
        <linearGradient id="paint11_linear_966_2637" x1="2255.79" y1="658.33" x2="2213.76" y2="331.297"
                        gradientUnits="userSpaceOnUse">
            <stop stop-color="white"/>
            <stop offset="1" stop-color="#1D9EEB"/>
        </linearGradient>
        <clipPath id="clip0_966_2637">
            <rect width="1440" height="960" fill="white"/>
        </clipPath>
        <clipPath id="clip1_966_2637">
            <rect width="54" height="54" fill="white" transform="translate(279 133)"/>
        </clipPath>
        <clipPath id="clip2_966_2637">
            <rect width="54" height="54" fill="white" transform="translate(279 613)"/>
        </clipPath>
        <clipPath id="clip3_966_2637">
            <rect width="54" height="54" fill="white" transform="translate(776 613)"/>
        </clipPath>
        <clipPath id="clip4_966_2637">
            <rect width="54" height="54" fill="white" transform="translate(527.5 773)"/>
        </clipPath>
    </defs>
</svg>
