<svg width="302" height="180" viewBox="0 0 302 180" fill="none" xmlns="http://www.w3.org/2000/svg">
<path d="M85.3996 65.4001C85.3996 69.1001 85.7996 72.1001 86.4996 74.3001C87.2996 76.5001 88.2996 78.9001 89.6996 81.5001C90.1996 82.3001 90.3996 83.1001 90.3996 83.8001C90.3996 84.8001 89.7996 85.8001 88.4996 86.8001L82.1996 91.0001C81.2996 91.6001 80.3996 91.9001 79.5996 91.9001C78.5996 91.9001 77.5996 91.4001 76.5996 90.5001C75.1996 89.0001 73.9996 87.4001 72.9996 85.8001C71.9996 84.1001 70.9996 82.2001 69.8996 79.9001C62.0996 89.1001 52.2996 93.7001 40.4996 93.7001C32.0996 93.7001 25.3996 91.3001 20.4996 86.5001C15.5996 81.7001 13.0996 75.3001 13.0996 67.3001C13.0996 58.8001 16.0996 51.9001 22.1996 46.7001C28.2996 41.5001 36.3996 38.9001 46.6996 38.9001C50.0996 38.9001 53.5996 39.2001 57.2996 39.7001C60.9996 40.2001 64.7996 41.0001 68.7996 41.9001V34.6001C68.7996 27.0001 67.1996 21.7001 64.0996 18.6001C60.8996 15.5001 55.4996 14.0001 47.7996 14.0001C44.2996 14.0001 40.6996 14.4001 36.9996 15.3001C33.2996 16.2001 29.6996 17.3001 26.1996 18.7001C24.5996 19.4001 23.3996 19.8001 22.6996 20.0001C21.9996 20.2001 21.4996 20.3001 21.0996 20.3001C19.6996 20.3001 18.9996 19.3001 18.9996 17.2001V12.3001C18.9996 10.7001 19.1996 9.5001 19.6996 8.8001C20.1996 8.1001 21.0996 7.4001 22.4996 6.7001C25.9996 4.9001 30.1996 3.4001 35.0996 2.2001C39.9996 0.900098 45.1996 0.300098 50.6996 0.300098C62.5996 0.300098 71.2996 3.0001 76.8996 8.4001C82.3996 13.8001 85.1996 22.0001 85.1996 33.0001V65.4001H85.3996ZM44.7996 80.6001C48.0996 80.6001 51.4996 80.0001 55.0996 78.8001C58.6996 77.6001 61.8996 75.4001 64.5996 72.4001C66.1996 70.5001 67.3996 68.4001 67.9996 66.0001C68.5996 63.6001 68.9996 60.7001 68.9996 57.3001V53.1001C66.0996 52.4001 62.9996 51.8001 59.7996 51.4001C56.5996 51.0001 53.4996 50.8001 50.3996 50.8001C43.6996 50.8001 38.7996 52.1001 35.4996 54.8001C32.1996 57.5001 30.5996 61.3001 30.5996 66.3001C30.5996 71.0001 31.7996 74.5001 34.2996 76.9001C36.6996 79.4001 40.1996 80.6001 44.7996 80.6001ZM125.1 91.4001C123.3 91.4001 122.1 91.1001 121.3 90.4001C120.5 89.8001 119.8 88.4001 119.2 86.5001L95.6996 9.2001C95.0996 7.2001 94.7996 5.9001 94.7996 5.2001C94.7996 3.6001 95.5996 2.7001 97.1996 2.7001H107C108.9 2.7001 110.2 3.0001 110.9 3.7001C111.7 4.3001 112.3 5.7001 112.9 7.6001L129.7 73.8001L145.3 7.6001C145.8 5.6001 146.4 4.3001 147.2 3.7001C148 3.1001 149.4 2.7001 151.2 2.7001H159.2C161.1 2.7001 162.4 3.0001 163.2 3.7001C164 4.3001 164.7 5.7001 165.1 7.6001L180.9 74.6001L198.2 7.6001C198.8 5.6001 199.5 4.3001 200.2 3.7001C201 3.1001 202.3 2.7001 204.1 2.7001H213.4C215 2.7001 215.9 3.5001 215.9 5.2001C215.9 5.7001 215.8 6.2001 215.7 6.8001C215.6 7.4001 215.4 8.2001 215 9.3001L190.9 86.6001C190.3 88.6001 189.6 89.9001 188.8 90.5001C188 91.1001 186.7 91.5001 185 91.5001H176.4C174.5 91.5001 173.2 91.2001 172.4 90.5001C171.6 89.8001 170.9 88.5001 170.5 86.5001L155 22.0001L139.6 86.4001C139.1 88.4001 138.5 89.7001 137.7 90.4001C136.9 91.1001 135.5 91.4001 133.7 91.4001H125.1ZM253.6 94.1001C248.4 94.1001 243.2 93.5001 238.2 92.3001C233.2 91.1001 229.3 89.8001 226.7 88.3001C225.1 87.4001 224 86.4001 223.6 85.5001C223.2 84.6001 223 83.6001 223 82.7001V77.6001C223 75.5001 223.8 74.5001 225.3 74.5001C225.9 74.5001 226.5 74.6001 227.1 74.8001C227.7 75.0001 228.6 75.4001 229.6 75.8001C233 77.3001 236.7 78.5001 240.6 79.3001C244.6 80.1001 248.5 80.5001 252.5 80.5001C258.8 80.5001 263.7 79.4001 267.1 77.2001C270.5 75.0001 272.3 71.8001 272.3 67.7001C272.3 64.9001 271.4 62.6001 269.6 60.7001C267.8 58.8001 264.4 57.1001 259.5 55.5001L245 51.0001C237.7 48.7001 232.3 45.3001 229 40.8001C225.7 36.4001 224 31.5001 224 26.3001C224 22.1001 224.9 18.4001 226.7 15.2001C228.5 12.0001 230.9 9.2001 233.9 7.0001C236.9 4.7001 240.3 3.0001 244.3 1.8001C248.3 0.600098 252.5 0.100098 256.9 0.100098C259.1 0.100098 261.4 0.200098 263.6 0.500098C265.9 0.800098 268 1.2001 270.1 1.6001C272.1 2.1001 274 2.6001 275.8 3.2001C277.6 3.8001 279 4.4001 280 5.0001C281.4 5.8001 282.4 6.6001 283 7.5001C283.6 8.3001 283.9 9.4001 283.9 10.8001V15.5001C283.9 17.6001 283.1 18.7001 281.6 18.7001C280.8 18.7001 279.5 18.3001 277.8 17.5001C272.1 14.9001 265.7 13.6001 258.6 13.6001C252.9 13.6001 248.4 14.5001 245.3 16.4001C242.2 18.3001 240.6 21.2001 240.6 25.3001C240.6 28.1001 241.6 30.5001 243.6 32.4001C245.6 34.3001 249.3 36.2001 254.6 37.9001L268.8 42.4001C276 44.7001 281.2 47.9001 284.3 52.0001C287.4 56.1001 288.9 60.8001 288.9 66.0001C288.9 70.3001 288 74.2001 286.3 77.6001C284.5 81.0001 282.1 84.0001 279 86.4001C275.9 88.9001 272.2 90.7001 267.9 92.0001C263.4 93.4001 258.7 94.1001 253.6 94.1001Z" fill="white"/>
<path fill-rule="evenodd" clip-rule="evenodd" d="M272.5 142.7C239.6 167 191.8 179.9 150.7 179.9C93.1 179.9 41.2 158.6 1.99999 123.2C-1.10001 120.4 1.69999 116.6 5.39999 118.8C47.8 143.4 100.1 158.3 154.2 158.3C190.7 158.3 230.8 150.7 267.7 135.1C273.2 132.6 277.9 138.7 272.5 142.7Z" fill="white"/>
<path fill-rule="evenodd" clip-rule="evenodd" d="M286.2 127.1C282 121.7 258.4 124.5 247.7 125.8C244.5 126.2 244 123.4 246.9 121.3C265.7 108.1 296.6 111.9 300.2 116.3C303.8 120.8 299.2 151.7 281.6 166.5C278.9 168.8 276.3 167.6 277.5 164.6C281.5 154.7 290.4 132.4 286.2 127.1Z" fill="white"/>
</svg>
