<svg width="510" height="473" viewBox="0 0 510 473" fill="none" xmlns="http://www.w3.org/2000/svg">
<g filter="url(#filter0_d_422_858)">
<rect x="6" y="3" width="494" height="457" rx="13" fill="white"/>
</g>
<path d="M110.262 428.199C106.821 428.199 104.67 425.833 104.67 422.036V422.019C104.67 418.231 106.829 415.865 110.262 415.865C113.703 415.865 115.854 418.239 115.854 422.019V422.036C115.854 425.824 113.711 428.199 110.262 428.199ZM110.262 426.561C112.553 426.561 113.96 424.79 113.96 422.036V422.019C113.96 419.248 112.528 417.503 110.262 417.503C108.004 417.503 106.556 419.24 106.556 422.019V422.036C106.556 424.815 107.995 426.561 110.262 426.561ZM119.8 428L116.665 419.298H118.567L120.751 426.255H120.792L122.976 419.298H124.837L121.719 428H119.8ZM129.246 428.174C126.69 428.174 125.143 426.428 125.143 423.682V423.674C125.143 420.952 126.715 419.132 129.155 419.132C131.596 419.132 133.093 420.886 133.093 423.5V424.104H126.93C126.963 425.75 127.865 426.71 129.288 426.71C130.347 426.71 131.05 426.164 131.273 425.51L131.298 425.444H132.994L132.977 425.535C132.696 426.916 131.356 428.174 129.246 428.174ZM129.164 420.597C128.006 420.597 127.112 421.382 126.955 422.838H131.323C131.174 421.333 130.33 420.597 129.164 420.597ZM134.483 428V419.298H136.269V420.787H136.311C136.592 419.769 137.32 419.132 138.312 419.132C138.569 419.132 138.792 419.174 138.933 419.199V420.861C138.792 420.803 138.478 420.762 138.131 420.762C136.981 420.762 136.269 421.515 136.269 422.813V428H134.483ZM142.415 428.157C140.678 428.157 139.512 427.09 139.512 425.527V425.51C139.512 423.996 140.687 423.07 142.746 422.946L145.112 422.805V422.152C145.112 421.192 144.492 420.613 143.383 420.613C142.349 420.613 141.712 421.101 141.563 421.796L141.547 421.87H139.859L139.868 421.779C139.992 420.282 141.29 419.132 143.433 419.132C145.559 419.132 146.907 420.257 146.907 422.003V428H145.112V426.627H145.079C144.574 427.562 143.565 428.157 142.415 428.157ZM141.315 425.485C141.315 426.246 141.944 426.726 142.903 426.726C144.161 426.726 145.112 425.874 145.112 424.741V424.063L142.986 424.195C141.911 424.261 141.315 424.733 141.315 425.469V425.485ZM148.71 428V416.063H150.497V428H148.71ZM152.4 428V416.063H154.187V428H152.4Z" fill="black" fill-opacity="0.63"/>
<path d="M220.1 428V416.063H224.542C226.883 416.063 228.505 417.635 228.505 419.976V419.993C228.505 422.325 226.883 423.922 224.542 423.922H221.953V428H220.1ZM224.079 417.627H221.953V422.367H224.079C225.692 422.367 226.619 421.498 226.619 420.001V419.984C226.619 418.495 225.692 417.627 224.079 417.627ZM233.244 428.174C230.688 428.174 229.142 426.428 229.142 423.682V423.674C229.142 420.952 230.713 419.132 233.153 419.132C235.594 419.132 237.091 420.886 237.091 423.5V424.104H230.928C230.961 425.75 231.863 426.71 233.286 426.71C234.345 426.71 235.048 426.164 235.271 425.51L235.296 425.444H236.992L236.975 425.535C236.694 426.916 235.354 428.174 233.244 428.174ZM233.162 420.597C232.004 420.597 231.11 421.382 230.953 422.838H235.321C235.172 421.333 234.328 420.597 233.162 420.597ZM238.481 428V419.298H240.267V420.787H240.309C240.59 419.769 241.318 419.132 242.311 419.132C242.567 419.132 242.79 419.174 242.931 419.199V420.861C242.79 420.803 242.476 420.762 242.129 420.762C240.979 420.762 240.267 421.515 240.267 422.813V428H238.481ZM244.577 428V420.721H243.378V419.298H244.577V418.371C244.577 416.684 245.371 415.89 247.142 415.89C247.506 415.89 247.903 415.923 248.142 415.964V417.288C247.969 417.263 247.745 417.246 247.522 417.246C246.72 417.246 246.339 417.635 246.339 418.404V419.298H248.109V420.721H246.372V428H244.577ZM252.494 428.174C249.995 428.174 248.366 426.445 248.366 423.649V423.632C248.366 420.853 250.012 419.132 252.485 419.132C254.967 419.132 256.621 420.845 256.621 423.632V423.649C256.621 426.453 254.983 428.174 252.494 428.174ZM252.502 426.676C253.9 426.676 254.793 425.568 254.793 423.649V423.632C254.793 421.73 253.883 420.63 252.485 420.63C251.112 420.63 250.194 421.73 250.194 423.632V423.649C250.194 425.576 251.104 426.676 252.502 426.676ZM258.003 428V419.298H259.79V420.787H259.831C260.112 419.769 260.84 419.132 261.833 419.132C262.089 419.132 262.312 419.174 262.453 419.199V420.861C262.312 420.803 261.998 420.762 261.651 420.762C260.501 420.762 259.79 421.515 259.79 422.813V428H258.003ZM263.562 428V419.298H265.348V420.646H265.39C265.762 419.736 266.647 419.132 267.789 419.132C268.988 419.132 269.865 419.753 270.212 420.845H270.254C270.7 419.786 271.726 419.132 272.967 419.132C274.687 419.132 275.812 420.274 275.812 422.019V428H274.017V422.449C274.017 421.316 273.414 420.663 272.355 420.663C271.296 420.663 270.56 421.457 270.56 422.557V428H268.806V422.317C268.806 421.308 268.169 420.663 267.16 420.663C266.101 420.663 265.348 421.498 265.348 422.623V428H263.562ZM280.097 428.157C278.36 428.157 277.194 427.09 277.194 425.527V425.51C277.194 423.996 278.369 423.07 280.428 422.946L282.794 422.805V422.152C282.794 421.192 282.174 420.613 281.065 420.613C280.031 420.613 279.394 421.101 279.245 421.796L279.229 421.87H277.541L277.55 421.779C277.674 420.282 278.972 419.132 281.115 419.132C283.241 419.132 284.589 420.257 284.589 422.003V428H282.794V426.627H282.761C282.256 427.562 281.247 428.157 280.097 428.157ZM278.997 425.485C278.997 426.246 279.626 426.726 280.585 426.726C281.843 426.726 282.794 425.874 282.794 424.741V424.063L280.668 424.195C279.593 424.261 278.997 424.733 278.997 425.469V425.485ZM286.326 428V419.298H288.113V420.613H288.154C288.609 419.728 289.503 419.132 290.818 419.132C292.729 419.132 293.829 420.365 293.829 422.367V428H292.034V422.706C292.034 421.399 291.422 420.663 290.181 420.663C288.924 420.663 288.113 421.573 288.113 422.929V428H286.326ZM299.297 428.174C296.757 428.174 295.169 426.428 295.169 423.641V423.632C295.169 420.878 296.79 419.132 299.272 419.132C301.514 419.132 302.87 420.572 303.019 422.21L303.028 422.267H301.324L301.307 422.201C301.117 421.349 300.455 420.63 299.289 420.63C297.899 420.63 296.997 421.788 296.997 423.649V423.657C296.997 425.56 297.915 426.676 299.297 426.676C300.397 426.676 301.1 426.04 301.315 425.097L301.324 425.03H303.044L303.036 425.088C302.846 426.834 301.39 428.174 299.297 428.174ZM308.024 428.174C305.468 428.174 303.921 426.428 303.921 423.682V423.674C303.921 420.952 305.493 419.132 307.933 419.132C310.373 419.132 311.87 420.886 311.87 423.5V424.104H305.708C305.741 425.75 306.642 426.71 308.065 426.71C309.124 426.71 309.827 426.164 310.051 425.51L310.075 425.444H311.771L311.755 425.535C311.473 426.916 310.133 428.174 308.024 428.174ZM307.941 420.597C306.783 420.597 305.89 421.382 305.733 422.838H310.1C309.951 421.333 309.108 420.597 307.941 420.597Z" fill="black" fill-opacity="0.63"/>
<path d="M381.17 428.199C378.49 428.199 376.72 426.925 376.571 424.824L376.562 424.699H378.366L378.382 424.807C378.548 425.907 379.648 426.594 381.244 426.594C382.841 426.594 383.85 425.874 383.85 424.757V424.749C383.85 423.79 383.197 423.268 381.617 422.921L380.318 422.648C377.977 422.152 376.844 421.076 376.844 419.306V419.298C376.852 417.263 378.647 415.865 381.17 415.865C383.66 415.865 385.364 417.222 385.488 419.223L385.496 419.364H383.693L383.685 419.248C383.519 418.14 382.56 417.47 381.145 417.47C379.665 417.478 378.722 418.181 378.722 419.223V419.232C378.722 420.125 379.4 420.671 380.889 420.994L382.196 421.267C384.661 421.788 385.72 422.789 385.72 424.633V424.642C385.72 426.817 383.999 428.199 381.17 428.199ZM387.176 430.895V419.298H388.962V420.795H389.004C389.525 419.761 390.484 419.132 391.725 419.132C393.942 419.132 395.365 420.869 395.365 423.649V423.657C395.365 426.428 393.934 428.174 391.75 428.174C390.517 428.174 389.517 427.545 389.004 426.536H388.962V430.895H387.176ZM391.262 426.635C392.668 426.635 393.545 425.494 393.545 423.657V423.649C393.545 421.796 392.66 420.663 391.262 420.663C389.905 420.663 388.954 421.837 388.954 423.649V423.657C388.954 425.46 389.914 426.635 391.262 426.635ZM400.469 428.174C397.913 428.174 396.366 426.428 396.366 423.682V423.674C396.366 420.952 397.937 419.132 400.378 419.132C402.818 419.132 404.315 420.886 404.315 423.5V424.104H398.153C398.186 425.75 399.087 426.71 400.51 426.71C401.569 426.71 402.272 426.164 402.495 425.51L402.52 425.444H404.216L404.199 425.535C403.918 426.916 402.578 428.174 400.469 428.174ZM400.386 420.597C399.228 420.597 398.335 421.382 398.177 422.838H402.545C402.396 421.333 401.552 420.597 400.386 420.597ZM409.419 428.174C406.863 428.174 405.316 426.428 405.316 423.682V423.674C405.316 420.952 406.888 419.132 409.328 419.132C411.768 419.132 413.266 420.886 413.266 423.5V424.104H407.103C407.136 425.75 408.038 426.71 409.46 426.71C410.519 426.71 411.222 426.164 411.446 425.51L411.471 425.444H413.166L413.15 425.535C412.869 426.916 411.528 428.174 409.419 428.174ZM409.336 420.597C408.178 420.597 407.285 421.382 407.128 422.838H411.495C411.347 421.333 410.503 420.597 409.336 420.597ZM417.906 428.174C415.689 428.174 414.267 426.42 414.267 423.649V423.641C414.267 420.869 415.706 419.132 417.89 419.132C419.122 419.132 420.115 419.753 420.636 420.778H420.669V416.063H422.464V428H420.669V426.528H420.636C420.115 427.545 419.155 428.174 417.906 428.174ZM418.378 426.635C419.726 426.635 420.677 425.46 420.677 423.649V423.641C420.677 421.837 419.718 420.663 418.378 420.663C416.972 420.663 416.095 421.804 416.095 423.641V423.649C416.095 425.502 416.963 426.635 418.378 426.635Z" fill="black" fill-opacity="0.63"/>
<line x1="69" y1="107" x2="471" y2="107" stroke="#DCDCDC" stroke-width="2"/>
<line x1="69" y1="164" x2="471" y2="164" stroke="#DCDCDC" stroke-width="2"/>
<line x1="69" y1="221" x2="471" y2="221" stroke="#DCDCDC" stroke-width="2"/>
<line x1="69" y1="278" x2="471" y2="278" stroke="#DCDCDC" stroke-width="2"/>
<line x1="69" y1="335" x2="471" y2="335" stroke="#DCDCDC" stroke-width="2"/>
<line x1="69" y1="392" x2="471" y2="392" stroke="#DCDCDC" stroke-width="2"/>
<line x1="130" y1="327" x2="130" y2="145" stroke="#A3A3A3" stroke-width="2"/>
<circle cx="130" cy="186" r="10" fill="#313131"/>
<line x1="104" y1="137.5" x2="156" y2="137.5" stroke="#A3A3A3" stroke-width="2"/>
<line x1="104" y1="317" x2="156" y2="317" stroke="#A3A3A3" stroke-width="2"/>
<circle cx="130" cy="137" r="10" fill="#246FFF"/>
<circle cx="130" cy="317" r="10" fill="#FF7872"/>
<circle cx="130" cy="212" r="10" fill="#49CCF9"/>
<circle cx="130" cy="278" r="10" fill="#5CC2A0"/>
<line x1="264" y1="365" x2="264" y2="150" stroke="#A3A3A3" stroke-width="2"/>
<circle cx="264" cy="318" r="10" fill="#313131"/>
<line x1="238" y1="150.5" x2="290" y2="150.5" stroke="#A3A3A3" stroke-width="2"/>
<line x1="238" y1="355" x2="290" y2="355" stroke="#A3A3A3" stroke-width="2"/>
<circle cx="264" cy="150" r="10" fill="#246FFF"/>
<circle cx="264" cy="264" r="10" fill="#FF7872"/>
<circle cx="264" cy="217" r="10" fill="#49CCF9"/>
<circle cx="264" cy="355" r="10" fill="#5CC2A0"/>
<line x1="399" y1="392" x2="399" y2="105" stroke="#A3A3A3" stroke-width="2"/>
<circle cx="399" cy="155" r="10" fill="#313131"/>
<line x1="373" y1="106.5" x2="425" y2="106.5" stroke="#A3A3A3" stroke-width="2"/>
<line x1="373" y1="392" x2="425" y2="392" stroke="#A3A3A3" stroke-width="2"/>
<circle cx="399" cy="392" r="10" fill="#FF7872"/>
<circle cx="399" cy="279" r="10" fill="#5CC2A0"/>
<circle cx="399" cy="201" r="10" fill="#246FFF"/>
<circle cx="400" cy="108" r="10" fill="#49CCF9"/>
<path d="M42.9458 399V388.9H42.9044L39.7858 391.117V389.297L42.9292 387.063H44.7574V399H42.9458ZM51.9458 399.223C49.5634 399.223 47.818 397.767 47.7105 395.683H49.4807C49.6131 396.866 50.6305 397.676 51.9623 397.676C53.4678 397.676 54.5101 396.626 54.5101 395.129C54.5101 393.631 53.4678 392.556 51.9789 392.556C50.9449 392.556 50.0515 393.028 49.5882 393.813H47.8925L48.5211 387.063H55.6268V388.627H50.0101L49.6792 392.291H49.7206C50.2417 391.539 51.2178 391.084 52.3842 391.084C54.6756 391.084 56.3217 392.763 56.3217 395.079C56.3217 397.528 54.5184 399.223 51.9458 399.223Z" fill="black" fill-opacity="0.63"/>
<path d="M44.0956 342.199C41.5478 342.199 39.8851 340.809 39.7197 338.865L39.7114 338.757H41.4899L41.4982 338.848C41.614 339.907 42.6149 340.652 44.0956 340.652C45.5515 340.652 46.5358 339.841 46.5358 338.683V338.666C46.5358 337.318 45.5597 336.565 43.9632 336.565H42.5156V335.126H43.9136C45.2785 335.126 46.205 334.324 46.205 333.215V333.199C46.205 332.049 45.4274 331.379 44.079 331.379C42.7555 331.379 41.829 332.074 41.7132 333.182L41.705 333.256H39.9678L39.9761 333.174C40.1581 331.18 41.7463 329.865 44.079 329.865C46.4531 329.865 48.0083 331.122 48.0083 332.959V332.975C48.0083 334.456 46.9494 335.449 45.4936 335.755V335.796C47.2472 335.953 48.4219 337.012 48.4219 338.683V338.699C48.4219 340.743 46.6268 342.199 44.0956 342.199ZM54.5267 342.199C51.6728 342.199 49.9687 339.824 49.9687 336.036V336.019C49.9687 332.231 51.6728 329.865 54.5267 329.865C57.3722 329.865 59.0846 332.231 59.0846 336.019V336.036C59.0846 339.824 57.3722 342.199 54.5267 342.199ZM54.5267 340.652C56.2224 340.652 57.2151 338.898 57.2151 336.036V336.019C57.2151 333.157 56.2224 331.42 54.5267 331.42C52.8226 331.42 51.8382 333.157 51.8382 336.019V336.036C51.8382 338.898 52.8226 340.652 54.5267 340.652Z" fill="black" fill-opacity="0.63"/>
<path d="M45.6011 285V282.626H39.6287V281.013L44.6994 273.063H47.3796V281.071H49.0257V282.626H47.3796V285H45.6011ZM41.3493 281.096H45.6176V274.528H45.568L41.3493 281.046V281.096ZM54.7004 285.199C52.3097 285.199 50.6471 283.751 50.4816 281.782L50.4733 281.683H52.2436L52.2518 281.749C52.409 282.824 53.3851 283.652 54.7169 283.652C56.2224 283.652 57.273 282.609 57.273 281.129V281.112C57.2647 279.648 56.2142 278.614 54.7335 278.614C53.9972 278.614 53.3603 278.829 52.8805 279.259C52.6572 279.449 52.4669 279.681 52.3097 279.946H50.6884L51.2757 273.063H58.3897V274.627H52.773L52.409 278.407H52.4504C52.9881 277.605 53.9807 277.15 55.1553 277.15C57.4384 277.15 59.0846 278.796 59.0846 281.079V281.096C59.0846 283.519 57.273 285.199 54.7004 285.199Z" fill="black" fill-opacity="0.63"/>
<path d="M44.4182 228.199C41.9779 228.199 39.7279 226.503 39.7279 222.21V222.193C39.7279 218.214 41.5064 215.865 44.4926 215.865C46.6186 215.865 48.2151 217.081 48.5956 218.859L48.6204 218.959H46.7592L46.7344 218.876C46.3952 217.983 45.6176 217.42 44.4761 217.42C42.4246 217.42 41.5892 219.397 41.5147 221.763C41.5064 221.87 41.5064 221.978 41.5064 222.085H41.5478C42.0193 221.01 43.227 220.166 44.8483 220.166C47.1314 220.166 48.7776 221.829 48.7776 224.087V224.104C48.7776 226.486 46.9329 228.199 44.4182 228.199ZM41.8704 224.112C41.8704 225.527 42.9789 226.643 44.3934 226.643C45.8079 226.643 46.9329 225.543 46.9329 224.153V224.137C46.9329 222.698 45.8741 221.672 44.4182 221.672C42.9706 221.672 41.8704 222.689 41.8704 224.104V224.112ZM54.9568 228.199C52.1029 228.199 50.3989 225.824 50.3989 222.036V222.019C50.3989 218.231 52.1029 215.865 54.9568 215.865C57.8024 215.865 59.5147 218.231 59.5147 222.019V222.036C59.5147 225.824 57.8024 228.199 54.9568 228.199ZM54.9568 226.652C56.6526 226.652 57.6452 224.898 57.6452 222.036V222.019C57.6452 219.157 56.6526 217.42 54.9568 217.42C53.2528 217.42 52.2684 219.157 52.2684 222.019V222.036C52.2684 224.898 53.2528 226.652 54.9568 226.652Z" fill="black" fill-opacity="0.63"/>
<path d="M40.5882 171L45.8906 160.668V160.627H39.5956V159.063H47.7187V160.668L42.5322 171H40.5882ZM53.625 171.199C51.2344 171.199 49.5717 169.751 49.4062 167.782L49.398 167.683H51.1682L51.1765 167.749C51.3336 168.824 52.3097 169.652 53.6415 169.652C55.1471 169.652 56.1976 168.609 56.1976 167.129V167.112C56.1893 165.648 55.1388 164.614 53.6581 164.614C52.9219 164.614 52.2849 164.829 51.8051 165.259C51.5818 165.449 51.3915 165.681 51.2344 165.946H49.6131L50.2004 159.063H57.3143V160.627H51.6976L51.3336 164.407H51.375C51.9127 163.605 52.9053 163.15 54.08 163.15C56.3631 163.15 58.0092 164.796 58.0092 167.079V167.096C58.0092 169.519 56.1976 171.199 53.625 171.199Z" fill="black" fill-opacity="0.63"/>
<path d="M34.9458 114V103.9H34.9044L31.7858 106.051V104.297L34.9292 102.063H36.7574V114H34.9458ZM44.0285 114.199C41.1746 114.199 39.4706 111.824 39.4706 108.036V108.019C39.4706 104.231 41.1746 101.865 44.0285 101.865C46.8741 101.865 48.5864 104.231 48.5864 108.019V108.036C48.5864 111.824 46.8741 114.199 44.0285 114.199ZM44.0285 112.652C45.7243 112.652 46.7169 110.898 46.7169 108.036V108.019C46.7169 105.157 45.7243 103.42 44.0285 103.42C42.3244 103.42 41.3401 105.157 41.3401 108.019V108.036C41.3401 110.898 42.3244 112.652 44.0285 112.652ZM54.6002 114.199C51.7463 114.199 50.0423 111.824 50.0423 108.036V108.019C50.0423 104.231 51.7463 101.865 54.6002 101.865C57.4458 101.865 59.1581 104.231 59.1581 108.019V108.036C59.1581 111.824 57.4458 114.199 54.6002 114.199ZM54.6002 112.652C56.296 112.652 57.2886 110.898 57.2886 108.036V108.019C57.2886 105.157 56.296 103.42 54.6002 103.42C52.8961 103.42 51.9118 105.157 51.9118 108.019V108.036C51.9118 110.898 52.8961 112.652 54.6002 112.652Z" fill="black" fill-opacity="0.63"/>
<path d="M47.7891 48.2812C42.9961 48.2812 39.9492 44.9062 39.9492 39.5391V39.5273C39.9492 34.1602 42.9961 30.8086 47.7891 30.8086C51.5156 30.8086 54.3164 33.1055 54.8438 36.4453L54.8672 36.5508H52.2656L52.1953 36.3164C51.6328 34.3359 50.0625 33.1289 47.7891 33.1289C44.6484 33.1289 42.6328 35.6133 42.6328 39.5273V39.5391C42.6328 43.4531 44.6602 45.9609 47.7891 45.9609C50.0391 45.9609 51.5977 44.7891 52.2305 42.6445L52.2656 42.5391H54.8672L54.8555 42.6562C54.3281 46.0195 51.5273 48.2812 47.7891 48.2812ZM60.5391 48.2227C58.0781 48.2227 56.4258 46.7109 56.4258 44.4961V44.4727C56.4258 42.3281 58.0898 41.0156 61.0078 40.8398L64.3594 40.6406V39.7148C64.3594 38.3555 63.4805 37.5352 61.9102 37.5352C60.4453 37.5352 59.543 38.2266 59.332 39.2109L59.3086 39.3164H56.918L56.9297 39.1875C57.1055 37.0664 58.9453 35.4375 61.9805 35.4375C64.9922 35.4375 66.9023 37.0312 66.9023 39.5039V48H64.3594V46.0547H64.3125C63.5977 47.3789 62.168 48.2227 60.5391 48.2227ZM58.9805 44.4375C58.9805 45.5156 59.8711 46.1953 61.2305 46.1953C63.0117 46.1953 64.3594 44.9883 64.3594 43.3828V42.4219L61.3477 42.6094C59.8242 42.7031 58.9805 43.3711 58.9805 44.4141V44.4375ZM69.3633 48V35.6719H71.8945V37.5352H71.9531C72.5977 36.2812 73.8633 35.4375 75.7266 35.4375C78.4336 35.4375 79.9922 37.1836 79.9922 40.0195V48H77.4492V40.5C77.4492 38.6484 76.582 37.6055 74.8242 37.6055C73.043 37.6055 71.8945 38.8945 71.8945 40.8164V48H69.3633ZM87.0469 48.2461C83.9062 48.2461 81.8906 45.7617 81.8906 41.8359V41.8242C81.8906 37.8984 83.9297 35.4375 87.0234 35.4375C88.7695 35.4375 90.1758 36.3164 90.9141 37.7695H90.9609V31.0898H93.5039V48H90.9609V45.9141H90.9141C90.1758 47.3555 88.8164 48.2461 87.0469 48.2461ZM87.7148 46.0664C89.625 46.0664 90.9727 44.4023 90.9727 41.8359V41.8242C90.9727 39.2695 89.6133 37.6055 87.7148 37.6055C85.7227 37.6055 84.4805 39.2227 84.4805 41.8242V41.8359C84.4805 44.4609 85.7109 46.0664 87.7148 46.0664ZM97.4766 33.7734C96.6562 33.7734 96 33.1172 96 32.3203C96 31.5117 96.6562 30.8555 97.4766 30.8555C98.3086 30.8555 98.9531 31.5117 98.9531 32.3203C98.9531 33.1172 98.3086 33.7734 97.4766 33.7734ZM96.2109 48V35.6719H98.7422V48H96.2109ZM105.961 48.2461C102.82 48.2461 100.805 45.7617 100.805 41.8359V41.8242C100.805 37.8984 102.844 35.4375 105.938 35.4375C107.684 35.4375 109.09 36.3164 109.828 37.7695H109.875V31.0898H112.418V48H109.875V45.9141H109.828C109.09 47.3555 107.73 48.2461 105.961 48.2461ZM106.629 46.0664C108.539 46.0664 109.887 44.4023 109.887 41.8359V41.8242C109.887 39.2695 108.527 37.6055 106.629 37.6055C104.637 37.6055 103.395 39.2227 103.395 41.8242V41.8359C103.395 44.4609 104.625 46.0664 106.629 46.0664ZM118.641 48.2227C116.18 48.2227 114.527 46.7109 114.527 44.4961V44.4727C114.527 42.3281 116.191 41.0156 119.109 40.8398L122.461 40.6406V39.7148C122.461 38.3555 121.582 37.5352 120.012 37.5352C118.547 37.5352 117.645 38.2266 117.434 39.2109L117.41 39.3164H115.02L115.031 39.1875C115.207 37.0664 117.047 35.4375 120.082 35.4375C123.094 35.4375 125.004 37.0312 125.004 39.5039V48H122.461V46.0547H122.414C121.699 47.3789 120.27 48.2227 118.641 48.2227ZM117.082 44.4375C117.082 45.5156 117.973 46.1953 119.332 46.1953C121.113 46.1953 122.461 44.9883 122.461 43.3828V42.4219L119.449 42.6094C117.926 42.7031 117.082 43.3711 117.082 44.4141V44.4375ZM131.789 48.2461C129.352 48.2461 128.18 47.2148 128.18 44.7539V37.6875H126.41V35.6719H128.18V32.4609H130.77V35.6719H133.078V37.6875H130.77V44.6016C130.77 45.8555 131.332 46.2305 132.398 46.2305C132.668 46.2305 132.891 46.207 133.078 46.1836V48.1406C132.785 48.1875 132.305 48.2461 131.789 48.2461ZM140.133 48.2461C136.512 48.2461 134.32 45.7734 134.32 41.8828V41.8711C134.32 38.0156 136.547 35.4375 140.004 35.4375C143.461 35.4375 145.582 37.9219 145.582 41.625V42.4805H136.852C136.898 44.8125 138.176 46.1719 140.191 46.1719C141.691 46.1719 142.688 45.3984 143.004 44.4727L143.039 44.3789H145.441L145.418 44.5078C145.02 46.4648 143.121 48.2461 140.133 48.2461ZM140.016 37.5117C138.375 37.5117 137.109 38.625 136.887 40.6875H143.074C142.863 38.5547 141.668 37.5117 140.016 37.5117ZM152.73 48V31.0898H155.355V48H152.73ZM158.168 48V35.6719H160.699V37.5352H160.758C161.402 36.2812 162.668 35.4375 164.531 35.4375C167.238 35.4375 168.797 37.1836 168.797 40.0195V48H166.254V40.5C166.254 38.6484 165.387 37.6055 163.629 37.6055C161.848 37.6055 160.699 38.8945 160.699 40.8164V48H158.168ZM175.863 48.2461C172.781 48.2461 170.977 46.7227 170.719 44.4727L170.707 44.3672H173.215L173.238 44.4844C173.473 45.6211 174.316 46.2891 175.875 46.2891C177.398 46.2891 178.312 45.6562 178.312 44.6602V44.6484C178.312 43.8516 177.867 43.3945 176.543 43.0781L174.527 42.6211C172.184 42.082 171.023 40.957 171.023 39.1641V39.1523C171.023 36.9492 172.945 35.4375 175.781 35.4375C178.699 35.4375 180.457 37.0664 180.586 39.1641L180.598 39.3047H178.219L178.207 39.2227C178.055 38.1445 177.211 37.3945 175.781 37.3945C174.422 37.3945 173.566 38.0391 173.566 39.0234V39.0352C173.566 39.7969 174.07 40.3125 175.395 40.6289L177.398 41.0859C179.918 41.6719 180.879 42.668 180.879 44.4375V44.4492C180.879 46.6992 178.77 48.2461 175.863 48.2461ZM184.219 33.7734C183.398 33.7734 182.742 33.1172 182.742 32.3203C182.742 31.5117 183.398 30.8555 184.219 30.8555C185.051 30.8555 185.695 31.5117 185.695 32.3203C185.695 33.1172 185.051 33.7734 184.219 33.7734ZM182.953 48V35.6719H185.484V48H182.953ZM193.5 52.3477C190.336 52.3477 188.332 50.8828 187.957 48.9961L187.945 48.8906H190.453L190.5 48.9844C190.84 49.7695 191.906 50.3086 193.488 50.3086C195.504 50.3086 196.617 49.2305 196.617 47.5078V45.8203H196.559C195.855 47.1562 194.449 48.0117 192.68 48.0117C189.586 48.0117 187.547 45.5859 187.547 41.7422V41.7305C187.547 37.8633 189.609 35.4375 192.738 35.4375C194.473 35.4375 195.832 36.375 196.559 37.7695H196.617V35.6719H199.16V47.6602C199.16 50.4727 196.98 52.3477 193.5 52.3477ZM193.395 45.9492C195.328 45.9492 196.617 44.3203 196.617 41.7773V41.7656C196.617 39.2344 195.316 37.6055 193.395 37.6055C191.391 37.6055 190.137 39.2227 190.137 41.7656V41.7773C190.137 44.3555 191.391 45.9492 193.395 45.9492ZM201.762 48V31.0898H204.293V37.6992H204.352C205.008 36.2695 206.332 35.4375 208.172 35.4375C210.809 35.4375 212.543 37.4062 212.543 40.3828V48H210.012V40.8633C210.012 38.8242 208.98 37.6055 207.199 37.6055C205.453 37.6055 204.293 38.9414 204.293 40.8633V48H201.762ZM219.328 48.2461C216.891 48.2461 215.719 47.2148 215.719 44.7539V37.6875H213.949V35.6719H215.719V32.4609H218.309V35.6719H220.617V37.6875H218.309V44.6016C218.309 45.8555 218.871 46.2305 219.938 46.2305C220.207 46.2305 220.43 46.207 220.617 46.1836V48.1406C220.324 48.1875 219.844 48.2461 219.328 48.2461ZM227.332 48.2461C224.25 48.2461 222.445 46.7227 222.188 44.4727L222.176 44.3672H224.684L224.707 44.4844C224.941 45.6211 225.785 46.2891 227.344 46.2891C228.867 46.2891 229.781 45.6562 229.781 44.6602V44.6484C229.781 43.8516 229.336 43.3945 228.012 43.0781L225.996 42.6211C223.652 42.082 222.492 40.957 222.492 39.1641V39.1523C222.492 36.9492 224.414 35.4375 227.25 35.4375C230.168 35.4375 231.926 37.0664 232.055 39.1641L232.066 39.3047H229.688L229.676 39.2227C229.523 38.1445 228.68 37.3945 227.25 37.3945C225.891 37.3945 225.035 38.0391 225.035 39.0234V39.0352C225.035 39.7969 225.539 40.3125 226.863 40.6289L228.867 41.0859C231.387 41.6719 232.348 42.668 232.348 44.4375V44.4492C232.348 46.6992 230.238 48.2461 227.332 48.2461Z" fill="black"/>
<defs>
<filter id="filter0_d_422_858" x="0" y="0" width="510" height="473" filterUnits="userSpaceOnUse" color-interpolation-filters="sRGB">
<feFlood flood-opacity="0" result="BackgroundImageFix"/>
<feColorMatrix in="SourceAlpha" type="matrix" values="0 0 0 0 0 0 0 0 0 0 0 0 0 0 0 0 0 0 127 0" result="hardAlpha"/>
<feMorphology radius="2" operator="dilate" in="SourceAlpha" result="effect1_dropShadow_422_858"/>
<feOffset dx="2" dy="5"/>
<feGaussianBlur stdDeviation="3"/>
<feComposite in2="hardAlpha" operator="out"/>
<feColorMatrix type="matrix" values="0 0 0 0 0 0 0 0 0 0 0 0 0 0 0 0 0 0 0.11 0"/>
<feBlend mode="normal" in2="BackgroundImageFix" result="effect1_dropShadow_422_858"/>
<feBlend mode="normal" in="SourceGraphic" in2="effect1_dropShadow_422_858" result="shape"/>
</filter>
</defs>
</svg>
