<svg width="1920" height="715" viewBox="0 0 1920 715" fill="none" xmlns="http://www.w3.org/2000/svg">
<line x1="-31" y1="103" x2="1934" y2="103" stroke="#2F4777" stroke-width="2"/>
<line x1="-31" y1="210" x2="1934" y2="210" stroke="#2F4777" stroke-width="2"/>
<g filter="url(#filter0_f_143_16875)">
<line x1="-29" y1="317" x2="1936" y2="317" stroke="url(#paint0_linear_143_16875)" stroke-width="2"/>
</g>
<g filter="url(#filter1_f_143_16875)">
<line x1="-29" y1="317" x2="1936" y2="317" stroke="url(#paint1_linear_143_16875)" stroke-width="2"/>
</g>
<g filter="url(#filter2_f_143_16875)">
<line x1="-29" y1="317" x2="1936" y2="317" stroke="url(#paint2_linear_143_16875)" stroke-width="2"/>
</g>
<line x1="-29" y1="317" x2="1936" y2="317" stroke="url(#paint3_linear_143_16875)" stroke-width="2"/>
<line x1="-29" y1="426" x2="1936" y2="426" stroke="#2F4777" stroke-width="2"/>
<line x1="-29" y1="535" x2="1936" y2="535" stroke="#2F4777" stroke-width="2"/>
<line x1="-29" y1="644" x2="1936" y2="644" stroke="#2F4777" stroke-width="2"/>
<line x1="100" y1="0.00140056" x2="99" y2="714.001" stroke="#2F4777" stroke-width="2"/>
<line x1="214" y1="0.00140819" x2="213" y2="714.001" stroke="#2F4777" stroke-width="2"/>
<line x1="328" y1="0.00140819" x2="327" y2="714.001" stroke="#2F4777" stroke-width="2"/>
<line x1="442" y1="0.00140819" x2="441" y2="714.001" stroke="#2F4777" stroke-width="2"/>
<line x1="556" y1="0.00140819" x2="555" y2="714.001" stroke="#2F4777" stroke-width="2"/>
<line x1="670" y1="0.00140819" x2="669" y2="714.001" stroke="#2F4777" stroke-width="2"/>
<line x1="784" y1="0.00140819" x2="783" y2="714.001" stroke="#2F4777" stroke-width="2"/>
<line x1="898" y1="0.00140819" x2="897" y2="714.001" stroke="#2F4777" stroke-width="2"/>
<line x1="1012" y1="0.00140819" x2="1011" y2="714.001" stroke="#2F4777" stroke-width="2"/>
<line x1="1126" y1="0.00140819" x2="1125" y2="714.001" stroke="#2F4777" stroke-width="2"/>
<line x1="1240" y1="0.00140819" x2="1239" y2="714.001" stroke="#2F4777" stroke-width="2"/>
<line x1="1354" y1="0.00140819" x2="1353" y2="714.001" stroke="#2F4777" stroke-width="2"/>
<line x1="1468" y1="0.00140819" x2="1467" y2="714.001" stroke="#2F4777" stroke-width="2"/>
<line x1="1582" y1="0.00140819" x2="1581" y2="714.001" stroke="#2F4777" stroke-width="2"/>
<line x1="1696" y1="0.00140819" x2="1695" y2="714.001" stroke="#2F4777" stroke-width="2"/>
<line x1="1810" y1="0.00140819" x2="1809" y2="714.001" stroke="#2F4777" stroke-width="2"/>
<defs>
<filter id="filter0_f_143_16875" x="-38" y="307" width="1983" height="20" filterUnits="userSpaceOnUse" color-interpolation-filters="sRGB">
<feFlood flood-opacity="0" result="BackgroundImageFix"/>
<feBlend mode="normal" in="SourceGraphic" in2="BackgroundImageFix" result="shape"/>
<feGaussianBlur stdDeviation="4.5" result="effect1_foregroundBlur_143_16875"/>
</filter>
<filter id="filter1_f_143_16875" x="-38" y="307" width="1983" height="20" filterUnits="userSpaceOnUse" color-interpolation-filters="sRGB">
<feFlood flood-opacity="0" result="BackgroundImageFix"/>
<feBlend mode="normal" in="SourceGraphic" in2="BackgroundImageFix" result="shape"/>
<feGaussianBlur stdDeviation="4.5" result="effect1_foregroundBlur_143_16875"/>
</filter>
<filter id="filter2_f_143_16875" x="-38" y="307" width="1983" height="20" filterUnits="userSpaceOnUse" color-interpolation-filters="sRGB">
<feFlood flood-opacity="0" result="BackgroundImageFix"/>
<feBlend mode="normal" in="SourceGraphic" in2="BackgroundImageFix" result="shape"/>
<feGaussianBlur stdDeviation="4.5" result="effect1_foregroundBlur_143_16875"/>
</filter>
<linearGradient id="paint0_linear_143_16875" x1="1914.5" y1="318" x2="-1.00006" y2="318" gradientUnits="userSpaceOnUse">
<stop offset="0.242904" stop-color="#49CCF9" stop-opacity="0"/>
<stop offset="0.45966" stop-color="#49CCF9"/>
<stop offset="0.722784" stop-color="#49CCF9" stop-opacity="0"/>
</linearGradient>
<linearGradient id="paint1_linear_143_16875" x1="1914.5" y1="318" x2="-1.00006" y2="318" gradientUnits="userSpaceOnUse">
<stop offset="0.0272892" stop-color="#49CCF9" stop-opacity="0"/>
<stop offset="0.45966" stop-color="#49CCF9"/>
<stop offset="1" stop-color="#49CCF9" stop-opacity="0"/>
</linearGradient>
<linearGradient id="paint2_linear_143_16875" x1="1914.5" y1="318" x2="-1.00006" y2="318" gradientUnits="userSpaceOnUse">
<stop offset="0.270308" stop-color="#49CCF9" stop-opacity="0"/>
<stop offset="0.45966" stop-color="#49CCF9"/>
<stop offset="0.703196" stop-color="#49CCF9" stop-opacity="0"/>
</linearGradient>
<linearGradient id="paint3_linear_143_16875" x1="1914.5" y1="318" x2="-1.00006" y2="318" gradientUnits="userSpaceOnUse">
<stop offset="0.0272892" stop-color="#49CCF9" stop-opacity="0"/>
<stop offset="0.45966" stop-color="#49CCF9"/>
<stop offset="1" stop-color="#49CCF9" stop-opacity="0"/>
</linearGradient>
</defs>
</svg>
