<svg width="334" height="237" viewBox="0 0 300 237" fill="none" xmlns="http://www.w3.org/2000/svg">
<path d="M145.008 39.4187C143.639 39.4187 142.787 38.5026 142.787 37.0376V37.0312C142.787 35.5662 143.645 34.6534 145.008 34.6534C146.374 34.6534 147.23 35.5694 147.23 37.0312V37.0376C147.23 38.5026 146.377 39.4187 145.008 39.4187ZM145.008 38.6016C145.774 38.6016 146.247 37.9919 146.247 37.0376V37.0312C146.247 36.0705 145.765 35.4705 145.008 35.4705C144.255 35.4705 143.77 36.0673 143.77 37.0312V37.0376C143.77 38.0015 144.252 38.6016 145.008 38.6016ZM149.132 39.4091C148.372 39.4091 148.015 39.1154 148.015 38.3813V36.6195H147.539V35.9173H148.015V35.0811H148.956V35.9173H149.582V36.6195H148.956V38.2792C148.956 38.5984 149.1 38.7069 149.381 38.7069C149.464 38.7069 149.525 38.6973 149.582 38.6909V39.374C149.477 39.3899 149.327 39.4091 149.132 39.4091ZM150.118 39.3389V34.7332H151.05V36.5078H151.069C151.245 36.0833 151.606 35.8471 152.119 35.8471C152.86 35.8471 153.32 36.3642 153.32 37.1908V39.3389H152.388V37.3823C152.388 36.9036 152.151 36.6195 151.727 36.6195C151.315 36.6195 151.05 36.9323 151.05 37.3791V39.3389H150.118ZM155.477 39.4091C154.43 39.4091 153.795 38.7292 153.795 37.6345V37.6313C153.795 36.5429 154.437 35.8471 155.439 35.8471C156.441 35.8471 157.07 36.5269 157.07 37.5611V37.8483H154.714C154.724 38.3941 155.021 38.7133 155.496 38.7133C155.879 38.7133 156.112 38.5026 156.179 38.3111L156.186 38.292H157.041L157.032 38.3271C156.926 38.8314 156.454 39.4091 155.477 39.4091ZM155.455 36.5429C155.072 36.5429 154.785 36.7982 154.724 37.261H156.176C156.119 36.7887 155.841 36.5429 155.455 36.5429ZM157.552 39.3389V35.9173H158.484V36.5142H158.503C158.605 36.0929 158.883 35.8471 159.282 35.8471C159.384 35.8471 159.48 35.863 159.55 35.8822V36.7025C159.473 36.6706 159.346 36.6514 159.212 36.6514C158.752 36.6514 158.484 36.9259 158.484 37.4238V39.3389H157.552ZM161.34 39.4091C160.392 39.4091 159.866 38.9718 159.792 38.3239L159.789 38.2952H160.699L160.705 38.3239C160.766 38.592 160.967 38.7484 161.34 38.7484C161.692 38.7484 161.905 38.6111 161.905 38.3909V38.3877C161.905 38.2058 161.79 38.1005 161.455 38.0271L160.874 37.9058C160.211 37.7653 159.875 37.4334 159.875 36.9227V36.9195C159.875 36.2684 160.437 35.8471 161.309 35.8471C162.218 35.8471 162.726 36.329 162.748 36.9291V36.961H161.889L161.886 36.9355C161.854 36.6897 161.653 36.5046 161.309 36.5046C160.986 36.5046 160.785 36.6482 160.785 36.8684V36.8716C160.785 37.0472 160.903 37.1621 161.248 37.2355L161.829 37.36C162.544 37.51 162.837 37.7909 162.837 38.2952V38.2984C162.837 38.9686 162.221 39.4091 161.34 39.4091Z" fill="#0A265F"/>
<path d="M211.586 17.0059C211.586 13.9974 214.025 11.5586 217.033 11.5586H296.521C299.529 11.5586 301.968 13.9974 301.968 17.0059V49.2651H211.586V17.0059Z" fill="#0A265F"/>
<path d="M265.549 29.4555C263.929 29.1704 262.039 29.206 261.295 29.2733C261.101 29.2813 260.847 29.3169 260.586 29.3605C260.316 29.0119 259.988 28.5802 259.936 28.5089C258.914 27.0236 258.807 26.2869 259.255 25.2333C259.255 25.2254 259.255 25.2096 259.255 25.1977C259.492 24.7343 259.639 24.2154 259.639 23.6609C259.639 21.7914 258.122 20.2744 256.253 20.2744C254.383 20.2744 252.866 21.7914 252.866 23.6609C252.866 24.16 252.981 24.6273 253.171 25.0511C253.171 25.0551 253.167 25.0591 253.167 25.063C253.349 25.5304 253.456 25.9067 253.448 26.2948C253.397 27.1226 252.565 28.7426 251.567 30.1724C250.569 31.6023 248.965 33.2183 248.834 33.345C247.242 34.9214 246.275 34.7392 245.388 35.5076C245.392 35.5116 245.404 35.5156 245.408 35.5195C245.253 35.6502 245.111 35.7928 244.984 35.9552C244.98 35.9631 244.976 35.9671 244.968 35.9711C244.865 36.1216 244.766 36.28 244.683 36.4463C244.671 36.4701 244.655 36.4939 244.643 36.5176C244.572 36.6681 244.517 36.8305 244.473 36.9929C244.461 37.0325 244.445 37.0722 244.438 37.1118C244.394 37.3177 244.366 37.5237 244.366 37.7415C244.366 39.3417 245.665 40.6408 247.266 40.6408C248.628 40.6408 249.765 39.6982 250.074 38.4267C250.078 38.4307 250.078 38.4347 250.082 38.4386C250.256 37.6544 250.668 36.9494 251.127 36.2998C251.567 35.678 252.038 35.0719 252.569 34.5254C253.698 33.353 255.056 32.3746 256.542 31.6221C257.16 31.3092 257.797 31.0319 258.451 30.7903C258.89 30.6279 261.283 29.8199 263.156 29.6734C263.806 29.6219 264.459 29.5902 265.113 29.5625C265.259 29.5585 265.406 29.5506 265.553 29.5466C265.778 29.5308 265.671 29.4793 265.549 29.4555ZM259.049 29.709C258.078 29.9229 257.195 30.2556 256.229 30.6517C254.613 31.3132 253.072 32.1093 251.733 33.2896C251.337 33.6302 250.7 34.3075 250.664 34.3432C250.676 34.3036 250.684 34.2639 250.696 34.2243C250.715 34.157 250.743 34.0659 250.775 33.9708C250.818 33.8322 250.862 33.6976 250.909 33.5629C251.258 32.5965 251.797 31.6974 252.323 30.8181C252.743 30.117 253.25 29.4674 253.825 28.8852C254.538 28.1604 255.365 27.5544 256.268 27.0909C257.69 27.788 258.582 28.6317 259.172 29.3842C259.18 29.3961 259.263 29.507 259.346 29.6298C259.199 29.6694 259.088 29.6971 259.049 29.709Z" fill="#49CCF9"/>
<path d="M267.101 33.3726C266.99 33.3053 266.875 33.2459 266.752 33.2103C266.744 33.2103 266.732 33.2063 266.72 33.2023C266.423 33.0875 266.106 33.0043 265.758 32.9647C265.758 32.9647 265.75 32.9647 265.738 32.9647C265.722 32.9647 265.706 32.9607 265.691 32.9607C265.393 32.933 264.217 32.9449 263.112 32.3983C262.823 32.2557 262.106 31.6101 261.31 30.5882C261.302 30.5803 260.672 30.7229 260.189 30.8734C260.577 31.4754 261.116 32.4696 261.211 32.7706C261.334 33.1588 261.413 33.5588 261.46 33.9628C261.508 34.343 261.528 34.7233 261.528 35.1075C261.528 35.4323 261.516 35.757 261.496 36.0779C261.484 36.3036 261.464 36.5294 261.456 36.7552C261.452 36.8265 261.445 36.9057 261.468 36.9928C261.563 39.0405 263.251 40.6724 265.322 40.6724C267.457 40.6724 269.188 38.9415 269.188 36.8067C269.192 35.3095 268.344 34.0183 267.101 33.3726Z" fill="#FCFCFC"/>
<path d="M6.09782 63.7412L7.9673 58.5132H9.01797L10.8874 63.7412H9.90561L9.4636 62.3898H7.51804L7.07604 63.7412H6.09782ZM8.48177 59.4443L7.75354 61.6688H9.22811L8.5035 59.4443H8.48177ZM11.3548 63.7412V59.9008H12.2569V60.5638H12.2751C12.3946 60.1001 12.7134 59.8211 13.1555 59.8211C13.2678 59.8211 13.3728 59.8392 13.4417 59.8573V60.6725C13.3656 60.6435 13.2279 60.6218 13.0757 60.6218C12.5649 60.6218 12.2569 60.9442 12.2569 61.5131V63.7412H11.3548ZM15.4561 63.8173C14.3148 63.8173 13.6011 63.0492 13.6011 61.8174V61.8138C13.6011 60.5892 14.3257 59.8211 15.4452 59.8211C16.456 59.8211 17.0864 60.4624 17.1408 61.2305L17.1444 61.2594H16.293L16.2857 61.2268C16.2097 60.8537 15.9343 60.553 15.4561 60.553C14.8873 60.553 14.5213 61.0348 14.5213 61.821V61.8246C14.5213 62.6253 14.8909 63.0891 15.4597 63.0891C15.9162 63.0891 16.206 62.8173 16.2894 62.4152L16.2966 62.3826H17.148L17.1444 62.4079C17.0756 63.2086 16.427 63.8173 15.4561 63.8173ZM17.7132 63.7412V58.5132H18.6153V60.5457H18.6371C18.8363 60.0856 19.2457 59.8211 19.8218 59.8211C20.6479 59.8211 21.1768 60.4225 21.1768 61.35V63.7412H20.2747V61.5275C20.2747 60.937 19.9776 60.5819 19.4595 60.5819C18.9487 60.5819 18.6153 60.9696 18.6153 61.5275V63.7412H17.7132ZM22.3833 59.3501C22.1007 59.3501 21.8797 59.1255 21.8797 58.8574C21.8797 58.582 22.1007 58.361 22.3833 58.361C22.6659 58.361 22.8832 58.582 22.8832 58.8574C22.8832 59.1255 22.6659 59.3501 22.3833 59.3501ZM21.9304 63.7412V59.9008H22.8325V63.7412H21.9304ZM25.0281 63.8173C24.2238 63.8173 23.8433 63.4912 23.8433 62.7014V60.5964H23.2999V59.9008H23.8433V58.9262H24.76V59.9008H25.4737V60.5964H24.76V62.6253C24.76 63.0021 24.9266 63.1217 25.2563 63.1217C25.3433 63.1217 25.4121 63.1108 25.4737 63.1072V63.7847C25.3686 63.7992 25.2092 63.8173 25.0281 63.8173ZM27.7091 63.8173C26.557 63.8173 25.8614 63.0528 25.8614 61.8319V61.8283C25.8614 60.6182 26.5679 59.8211 27.6656 59.8211C28.7634 59.8211 29.4445 60.5928 29.4445 61.7522V62.042H26.7563C26.7707 62.7159 27.1403 63.1144 27.7272 63.1144C28.1765 63.1144 28.4699 62.8753 28.5569 62.6181L28.5641 62.5927H29.4083L29.3974 62.6326C29.2779 63.2231 28.7127 63.8173 27.7091 63.8173ZM27.6765 60.5276C27.1983 60.5276 26.8396 60.85 26.7671 61.4406H28.5678C28.5025 60.8319 28.1547 60.5276 27.6765 60.5276ZM31.7234 63.8173C30.5822 63.8173 29.8684 63.0492 29.8684 61.8174V61.8138C29.8684 60.5892 30.593 59.8211 31.7125 59.8211C32.7234 59.8211 33.3538 60.4624 33.4081 61.2305L33.4117 61.2594H32.5603L32.5531 61.2268C32.477 60.8537 32.2016 60.553 31.7234 60.553C31.1546 60.553 30.7887 61.0348 30.7887 61.821V61.8246C30.7887 62.6253 31.1582 63.0891 31.727 63.0891C32.1835 63.0891 32.4734 62.8173 32.5567 62.4152L32.5639 62.3826H33.4154L33.4117 62.4079C33.3429 63.2086 32.6944 63.8173 31.7234 63.8173ZM35.3827 63.8173C34.5783 63.8173 34.1979 63.4912 34.1979 62.7014V60.5964H33.6545V59.9008H34.1979V58.9262H35.1145V59.9008H35.8283V60.5964H35.1145V62.6253C35.1145 63.0021 35.2812 63.1217 35.6109 63.1217C35.6979 63.1217 35.7667 63.1108 35.8283 63.1072V63.7847C35.7232 63.7992 35.5638 63.8173 35.3827 63.8173ZM37.7557 63.8173C36.9116 63.8173 36.4297 63.2738 36.4297 62.3826V59.9008H37.3318V62.2051C37.3318 62.7485 37.5854 63.0565 38.0999 63.0565C38.618 63.0565 38.9477 62.6833 38.9477 62.1253V59.9008H39.8498V63.7412H38.9477V63.1398H38.9296C38.7303 63.5492 38.3354 63.8173 37.7557 63.8173ZM40.5925 63.7412V59.9008H41.4947V60.5638H41.5128C41.6324 60.1001 41.9512 59.8211 42.3932 59.8211C42.5055 59.8211 42.6106 59.8392 42.6794 59.8573V60.6725C42.6033 60.6435 42.4656 60.6218 42.3135 60.6218C41.8026 60.6218 41.4947 60.9442 41.4947 61.5131V63.7412H40.5925ZM44.6866 63.8173C43.5344 63.8173 42.8388 63.0528 42.8388 61.8319V61.8283C42.8388 60.6182 43.5453 59.8211 44.6431 59.8211C45.7409 59.8211 46.422 60.5928 46.422 61.7522V62.042H43.7337C43.7482 62.7159 44.1177 63.1144 44.7047 63.1144C45.1539 63.1144 45.4474 62.8753 45.5343 62.6181L45.5416 62.5927H46.3857L46.3749 62.6326C46.2553 63.2231 45.6901 63.8173 44.6866 63.8173ZM44.6539 60.5276C44.1757 60.5276 43.817 60.85 43.7446 61.4406H45.5452C45.48 60.8319 45.1322 60.5276 44.6539 60.5276ZM48.5813 63.7412V58.5132H49.516V63.7412H48.5813ZM50.3457 63.7412V59.9008H51.2478V60.5022H51.266C51.4652 60.0892 51.8565 59.8211 52.4398 59.8211C53.284 59.8211 53.7658 60.3646 53.7658 61.2558V63.7412H52.8637V61.437C52.8637 60.8899 52.6101 60.5819 52.0956 60.5819C51.5775 60.5819 51.2478 60.9587 51.2478 61.5131V63.7412H50.3457ZM55.9179 63.8173C55.1136 63.8173 54.7332 63.4912 54.7332 62.7014V60.5964H54.1897V59.9008H54.7332V58.9262H55.6498V59.9008H56.3635V60.5964H55.6498V62.6253C55.6498 63.0021 55.8165 63.1217 56.1462 63.1217C56.2331 63.1217 56.3019 63.1108 56.3635 63.1072V63.7847C56.2585 63.7992 56.0991 63.8173 55.9179 63.8173ZM58.5989 63.8173C57.4468 63.8173 56.7512 63.0528 56.7512 61.8319V61.8283C56.7512 60.6182 57.4577 59.8211 58.5555 59.8211C59.6532 59.8211 60.3344 60.5928 60.3344 61.7522V62.042H57.6461C57.6606 62.7159 58.0301 63.1144 58.617 63.1144C59.0663 63.1144 59.3598 62.8753 59.4467 62.6181L59.454 62.5927H60.2981L60.2873 62.6326C60.1677 63.2231 59.6025 63.8173 58.5989 63.8173ZM58.5663 60.5276C58.0881 60.5276 57.7294 60.85 57.657 61.4406H59.4576C59.3924 60.8319 59.0446 60.5276 58.5663 60.5276ZM60.9177 63.7412V59.9008H61.8198V60.5638H61.8379C61.9575 60.1001 62.2763 59.8211 62.7183 59.8211C62.8306 59.8211 62.9357 59.8392 63.0045 59.8573V60.6725C62.9284 60.6435 62.7908 60.6218 62.6386 60.6218C62.1277 60.6218 61.8198 60.9442 61.8198 61.5131V63.7412H60.9177ZM64.6276 63.7412L63.269 59.9008H64.2291L65.1204 62.9043H65.1421L66.0297 59.9008H66.9717L65.6203 63.7412H64.6276ZM67.8666 59.3501C67.584 59.3501 67.363 59.1255 67.363 58.8574C67.363 58.582 67.584 58.361 67.8666 58.361C68.1492 58.361 68.3666 58.582 68.3666 58.8574C68.3666 59.1255 68.1492 59.3501 67.8666 59.3501ZM67.4137 63.7412V59.9008H68.3159V63.7412H67.4137ZM70.7723 63.8173C69.6201 63.8173 68.9245 63.0528 68.9245 61.8319V61.8283C68.9245 60.6182 69.631 59.8211 70.7288 59.8211C71.8266 59.8211 72.5077 60.5928 72.5077 61.7522V62.042H69.8194C69.8339 62.7159 70.2034 63.1144 70.7904 63.1144C71.2396 63.1144 71.5331 62.8753 71.62 62.6181L71.6273 62.5927H72.4715L72.4606 62.6326C72.341 63.2231 71.7758 63.8173 70.7723 63.8173ZM70.7397 60.5276C70.2614 60.5276 69.9027 60.85 69.8303 61.4406H71.6309C71.5657 60.8319 71.2179 60.5276 70.7397 60.5276ZM73.8265 63.7412L72.7867 59.9008H73.6924L74.3409 62.8499H74.359L75.109 59.9008H75.9749L76.7249 62.8499H76.7466L77.3951 59.9008H78.2864L77.2466 63.7412H76.2974L75.5402 60.9334H75.522L74.7685 63.7412H73.8265ZM80.2211 63.8173C79.2139 63.8173 78.6378 63.3391 78.5581 62.6253L78.5545 62.5927H79.4421L79.4494 62.6253C79.5182 62.955 79.7682 63.1507 80.2247 63.1507C80.6631 63.1507 80.9276 62.9731 80.9276 62.6905V62.6869C80.9276 62.455 80.7935 62.3246 80.395 62.234L79.7573 62.0927C79.0219 61.9297 78.6523 61.571 78.6523 61.0022V60.9986C78.6523 60.2957 79.2646 59.8211 80.1921 59.8211C81.1486 59.8211 81.7065 60.3464 81.7391 61.0095L81.7428 61.0493H80.9022L80.8986 61.0203C80.8587 60.7124 80.6124 60.4877 80.1921 60.4877C79.7936 60.4877 79.5436 60.6725 79.5436 60.9551V60.9587C79.5436 61.1797 79.6921 61.3247 80.0907 61.4152L80.7319 61.5565C81.5254 61.7341 81.8333 62.0456 81.8333 62.6036V62.6072C81.8333 63.3318 81.1631 63.8173 80.2211 63.8173Z" fill="#0A265F"/>
<path d="M148.451 58.3388C148.619 58.1709 148.891 58.1709 149.059 58.3388L151.333 60.6133L153.608 58.3388C153.776 58.1709 154.048 58.1709 154.216 58.3388C154.383 58.5066 154.383 58.7787 154.216 58.9465L151.941 61.221L154.216 63.4955C154.383 63.6633 154.383 63.9354 154.216 64.1032C154.048 64.271 153.776 64.271 153.608 64.1032L151.333 61.8287L149.059 64.1032C148.891 64.271 148.619 64.271 148.451 64.1032C148.283 63.9354 148.283 63.6633 148.451 63.4955L150.726 61.221L148.451 58.9465C148.283 58.7787 148.283 58.5066 148.451 58.3388Z" fill="#D40D00"/>
<rect width="90.2902" height="23.4123" transform="translate(211.655 49.3799)" fill="#0A265F"/>
<g clip-path="url(#clip0_677_2083)">
<path d="M259.825 59.289L259.065 58.5263C259.039 58.5007 259.005 58.4863 258.968 58.4863C258.932 58.4863 258.898 58.5007 258.872 58.5263L255.66 61.7402C255.635 61.7658 255.6 61.7802 255.564 61.7802C255.528 61.7802 255.493 61.7658 255.467 61.7402L254.707 60.9776C254.681 60.952 254.647 60.9376 254.611 60.9376C254.574 60.9376 254.54 60.952 254.514 60.9776L253.754 61.7402C253.701 61.7934 253.701 61.8796 253.754 61.9328L255.467 63.6468C255.493 63.6724 255.528 63.6868 255.564 63.6868C255.6 63.6868 255.635 63.6724 255.66 63.6468L259.825 59.4796C259.877 59.4267 259.877 59.3419 259.825 59.289Z" fill="#0A265F"/>
</g>
<path d="M260.733 58.1818C260.91 58.3395 260.926 58.6111 260.769 58.7885L256.185 63.9452C256.103 64.037 255.986 64.0894 255.864 64.0894C255.741 64.0894 255.624 64.037 255.543 63.9452L253.251 61.3668C253.093 61.1895 253.109 60.9178 253.286 60.7602C253.464 60.6025 253.735 60.6185 253.893 60.7958L255.864 63.0129L260.126 58.2175C260.284 58.0401 260.556 58.0241 260.733 58.1818Z" fill="#49CCF9"/>
<path d="M8.74262 81.855C9.49379 81.855 10.0892 82.0977 10.5288 82.5832C10.9708 83.0687 11.1918 83.7268 11.1918 84.5577C11.1918 85.3886 10.972 86.0468 10.5324 86.5323C10.0928 87.0153 9.49621 87.2569 8.74262 87.2569C7.98904 87.2569 7.39245 87.0153 6.95285 86.5323C6.51326 86.0468 6.29346 85.3886 6.29346 84.5577C6.29346 83.7268 6.51326 83.0687 6.95285 82.5832C7.39245 82.0977 7.98904 81.855 8.74262 81.855ZM8.74262 82.5687C8.24506 82.5687 7.85015 82.7474 7.5579 83.1049C7.26806 83.4624 7.12313 83.9466 7.12313 84.5577C7.12313 85.1664 7.26806 85.6495 7.5579 86.0069C7.85015 86.3644 8.24506 86.5431 8.74262 86.5431C9.23777 86.5431 9.63026 86.3644 9.9201 86.0069C10.2124 85.6495 10.3585 85.1664 10.3585 84.5577C10.3585 83.9466 10.2124 83.4624 9.9201 83.1049C9.63026 82.7474 9.23777 82.5687 8.74262 82.5687ZM16.9017 83.3585L15.8582 87.1699H15.043L14.2424 84.315H14.2242L13.4308 87.1699H12.6229L11.5758 83.3585H12.3584L13.054 86.3584H13.0685L13.8619 83.3585H14.6155L15.4126 86.3584H15.4307L16.1263 83.3585H16.9017ZM17.3799 87.1699V83.3585H18.1262V83.9962H18.1443C18.2506 83.7739 18.4052 83.6013 18.6081 83.4781C18.811 83.3549 19.0561 83.2933 19.3436 83.2933C19.7614 83.2933 20.0863 83.4189 20.3182 83.6701C20.55 83.9189 20.666 84.2631 20.666 84.7026V87.1699H19.8798V84.8548C19.8798 84.565 19.8109 84.3452 19.6733 84.1954C19.538 84.0433 19.3363 83.9672 19.0682 83.9672C18.7929 83.9672 18.5731 84.0565 18.4088 84.2353C18.2446 84.414 18.1625 84.6519 18.1625 84.949V87.1699H17.3799ZM24.2636 86.6156C24.539 86.6156 24.7696 86.5323 24.9556 86.3656C25.144 86.1965 25.2382 85.9888 25.2382 85.7425V85.4417L24.2998 85.4997C24.0656 85.5166 23.8844 85.5746 23.7564 85.6736C23.6308 85.7702 23.568 85.9007 23.568 86.0649C23.568 86.2316 23.6308 86.3656 23.7564 86.4671C23.8844 86.5661 24.0535 86.6156 24.2636 86.6156ZM24.0462 87.2351C23.6719 87.2351 23.3663 87.1289 23.1296 86.9163C22.8953 86.7038 22.7782 86.4272 22.7782 86.0866C22.7782 85.7533 22.9014 85.4888 23.1477 85.2932C23.3941 85.0951 23.7431 84.984 24.1948 84.9599L25.2382 84.8983V84.6048C25.2382 84.3923 25.1706 84.2268 25.0353 84.1085C24.9001 83.9877 24.7129 83.9273 24.4738 83.9273C24.2515 83.9273 24.0704 83.9768 23.9303 84.0759C23.7926 84.1749 23.7057 84.3114 23.6694 84.4853H22.9303C22.9521 84.1326 23.1043 83.8452 23.3868 83.623C23.6694 83.4008 24.0414 83.2897 24.5027 83.2897C24.9641 83.2897 25.3312 83.4032 25.6041 83.6302C25.8795 83.8573 26.0172 84.1616 26.0172 84.5432V87.1699H25.2672V86.5431H25.2491C25.1404 86.7533 24.9749 86.9211 24.7527 87.0467C24.5329 87.1723 24.2974 87.2351 24.0462 87.2351ZM26.778 87.1699V83.3585H27.5243V83.9962H27.5424C27.6487 83.7739 27.8033 83.6013 28.0062 83.4781C28.2091 83.3549 28.4542 83.2933 28.7417 83.2933C29.1595 83.2933 29.4844 83.4189 29.7163 83.6701C29.9481 83.9189 30.0641 84.2631 30.0641 84.7026V87.1699H29.2779V84.8548C29.2779 84.565 29.209 84.3452 29.0714 84.1954C28.9361 84.0433 28.7344 83.9672 28.4663 83.9672C28.191 83.9672 27.9712 84.0565 27.8069 84.2353C27.6427 84.414 27.5606 84.6519 27.5606 84.949V87.1699H26.778ZM32.1545 86.6156C32.4299 86.6156 32.6606 86.5323 32.8465 86.3656C33.0349 86.1965 33.1291 85.9888 33.1291 85.7425V85.4417L32.1908 85.4997C31.9565 85.5166 31.7753 85.5746 31.6473 85.6736C31.5217 85.7702 31.4589 85.9007 31.4589 86.0649C31.4589 86.2316 31.5217 86.3656 31.6473 86.4671C31.7753 86.5661 31.9444 86.6156 32.1545 86.6156ZM31.9372 87.2351C31.5628 87.2351 31.2572 87.1289 31.0205 86.9163C30.7863 86.7038 30.6691 86.4272 30.6691 86.0866C30.6691 85.7533 30.7923 85.4888 31.0387 85.2932C31.285 85.0951 31.634 84.984 32.0857 84.9599L33.1291 84.8983V84.6048C33.1291 84.3923 33.0615 84.2268 32.9262 84.1085C32.791 83.9877 32.6038 83.9273 32.3647 83.9273C32.1425 83.9273 31.9613 83.9768 31.8212 84.0759C31.6836 84.1749 31.5966 84.3114 31.5604 84.4853H30.8213C30.843 84.1326 30.9952 83.8452 31.2778 83.623C31.5604 83.4008 31.9323 83.2897 32.3937 83.2897C32.855 83.2897 33.2221 83.4032 33.4951 83.6302C33.7704 83.8573 33.9081 84.1616 33.9081 84.5432V87.1699H33.1581V86.5431H33.14C33.0313 86.7533 32.8659 86.9211 32.6437 87.0467C32.4239 87.1723 32.1884 87.2351 31.9372 87.2351ZM34.6979 87.1699V81.9419H35.4805V87.1699H34.6979ZM36.6616 88.5901C36.5142 88.5901 36.408 88.5841 36.3428 88.572V87.938C36.3814 87.9477 36.4659 87.9525 36.5964 87.9525C36.7799 87.9525 36.9236 87.9102 37.0275 87.8257C37.1314 87.7436 37.2135 87.6047 37.2739 87.409C37.2739 87.4066 37.2859 87.3668 37.3101 87.2895L37.3427 87.1735L35.966 83.3585H36.8137L37.7811 86.4598H37.792L38.7593 83.3585H39.5853L38.1543 87.3692C37.9924 87.8305 37.8028 88.1493 37.5854 88.3257C37.3681 88.502 37.0601 88.5901 36.6616 88.5901ZM40.2737 82.4564H41.0599V83.3585H41.7845V83.978H41.0599V86.0794C41.0599 86.2436 41.0974 86.3644 41.1722 86.4417C41.2471 86.519 41.3643 86.5576 41.5237 86.5576C41.6396 86.5576 41.7253 86.5516 41.7809 86.5395V87.1591C41.6843 87.1832 41.5394 87.1953 41.3461 87.1953C40.9621 87.1953 40.6867 87.1168 40.5201 86.9598C40.3558 86.8004 40.2737 86.5359 40.2737 86.1663V83.978H39.7194V83.3585H40.2737V82.4564ZM42.4548 87.1699V83.3585H43.2373V87.1699H42.4548ZM43.1685 82.6701C43.0791 82.7571 42.9717 82.8006 42.8461 82.8006C42.7205 82.8006 42.613 82.7571 42.5236 82.6701C42.4367 82.5832 42.3932 82.4781 42.3932 82.3549C42.3932 82.2293 42.4367 82.1231 42.5236 82.0361C42.613 81.9492 42.7205 81.9057 42.8461 81.9057C42.9741 81.9057 43.0816 81.9492 43.1685 82.0361C43.2579 82.1231 43.3026 82.2293 43.3026 82.3549C43.3026 82.4781 43.2579 82.5832 43.1685 82.6701ZM47.3096 84.67H46.5633C46.5222 84.4551 46.4232 84.28 46.2662 84.1447C46.1116 84.0094 45.9123 83.9418 45.6684 83.9418C45.3641 83.9418 45.1201 84.0614 44.9365 84.3005C44.7554 84.5372 44.6648 84.8584 44.6648 85.2642C44.6648 85.6772 44.7554 86.0009 44.9365 86.2352C45.1201 86.4695 45.3665 86.5866 45.6756 86.5866C45.9148 86.5866 46.1104 86.525 46.2626 86.4018C46.4171 86.2762 46.5174 86.1023 46.5633 85.8801H47.3169C47.2758 86.2883 47.1043 86.618 46.8024 86.8692C46.5029 87.118 46.1249 87.2424 45.6684 87.2424C45.1201 87.2424 44.6829 87.0661 44.3569 86.7134C44.0308 86.3584 43.8678 85.8753 43.8678 85.2642C43.8678 84.6604 44.0308 84.1809 44.3569 83.8259C44.6829 83.4684 45.1177 83.2897 45.6611 83.2897C46.1346 83.2897 46.5186 83.4225 46.8133 83.6882C47.1079 83.9515 47.2734 84.2788 47.3096 84.67ZM47.8023 84.4382C47.8023 84.0976 47.94 83.821 48.2154 83.6085C48.4907 83.3959 48.8506 83.2897 49.295 83.2897C49.7177 83.2897 50.0643 83.3972 50.3348 83.6121C50.6078 83.8247 50.7503 84.1012 50.7623 84.4418H50.0269C50.0076 84.2679 49.9315 84.1314 49.7986 84.0324C49.6658 83.9334 49.4907 83.8838 49.2733 83.8838C49.0607 83.8838 48.8893 83.9309 48.7588 84.0251C48.6308 84.1193 48.5668 84.2413 48.5668 84.3911C48.5668 84.6229 48.7612 84.7872 49.1501 84.8838L49.7914 85.0323C50.1754 85.1241 50.4471 85.2497 50.6066 85.4091C50.7684 85.5661 50.8493 85.7859 50.8493 86.0685C50.8493 86.4163 50.702 86.6989 50.4073 86.9163C50.115 87.1337 49.7346 87.2424 49.266 87.2424C48.8192 87.2424 48.4545 87.1361 48.1719 86.9236C47.8917 86.711 47.7359 86.4284 47.7045 86.0758H48.4798C48.5112 86.2593 48.597 86.4006 48.7371 86.4997C48.8772 86.5963 49.0656 86.6446 49.3023 86.6446C49.5366 86.6446 49.7213 86.5999 49.8566 86.5105C49.9943 86.4188 50.0631 86.2956 50.0631 86.141C50.0631 86.0178 50.022 85.92 49.9399 85.8475C49.8578 85.7751 49.7177 85.7135 49.5197 85.6627L48.8385 85.4961C48.1477 85.3294 47.8023 84.9768 47.8023 84.4382ZM54.3962 87.2351C53.9132 87.2351 53.5255 87.0564 53.2332 86.6989C52.941 86.3415 52.7949 85.8632 52.7949 85.2642C52.7949 84.6652 52.9398 84.1882 53.2296 83.8331C53.5219 83.4757 53.9083 83.2969 54.389 83.2969C54.6571 83.2969 54.8962 83.3597 55.1063 83.4853C55.3165 83.6085 55.4759 83.7776 55.5846 83.9925H55.5991V81.9419H56.3853V87.1699H55.6244V86.5214H55.6099C55.4964 86.7436 55.3334 86.9187 55.1208 87.0467C54.9107 87.1723 54.6692 87.2351 54.3962 87.2351ZM54.6027 83.9563C54.2936 83.9563 54.0484 84.0747 53.8673 84.3114C53.6861 84.5457 53.5955 84.8633 53.5955 85.2642C53.5955 85.6676 53.6861 85.9864 53.8673 86.2207C54.0484 86.455 54.2936 86.5721 54.6027 86.5721C54.9047 86.5721 55.1474 86.4538 55.331 86.2171C55.5145 85.9779 55.6063 85.6603 55.6063 85.2642C55.6063 84.8705 55.5145 84.5541 55.331 84.315C55.1474 84.0759 54.9047 83.9563 54.6027 83.9563ZM58.5229 86.6156C58.7982 86.6156 59.0289 86.5323 59.2148 86.3656C59.4032 86.1965 59.4974 85.9888 59.4974 85.7425V85.4417L58.5591 85.4997C58.3248 85.5166 58.1436 85.5746 58.0156 85.6736C57.89 85.7702 57.8272 85.9007 57.8272 86.0649C57.8272 86.2316 57.89 86.3656 58.0156 86.4671C58.1436 86.5661 58.3127 86.6156 58.5229 86.6156ZM58.3055 87.2351C57.9311 87.2351 57.6256 87.1289 57.3888 86.9163C57.1546 86.7038 57.0374 86.4272 57.0374 86.0866C57.0374 85.7533 57.1606 85.4888 57.407 85.2932C57.6533 85.0951 58.0023 84.984 58.454 84.9599L59.4974 84.8983V84.6048C59.4974 84.3923 59.4298 84.2268 59.2946 84.1085C59.1593 83.9877 58.9721 83.9273 58.733 83.9273C58.5108 83.9273 58.3296 83.9768 58.1895 84.0759C58.0519 84.1749 57.9649 84.3114 57.9287 84.4853H57.1896C57.2113 84.1326 57.3635 83.8452 57.6461 83.623C57.9287 83.4008 58.3006 83.2897 58.762 83.2897C59.2233 83.2897 59.5904 83.4032 59.8634 83.6302C60.1387 83.8573 60.2764 84.1616 60.2764 84.5432V87.1699H59.5264V86.5431H59.5083C59.3996 86.7533 59.2342 86.9211 59.012 87.0467C58.7922 87.1723 58.5567 87.2351 58.3055 87.2351ZM60.9684 84.4382C60.9684 84.0976 61.1061 83.821 61.3814 83.6085C61.6568 83.3959 62.0166 83.2897 62.4611 83.2897C62.8838 83.2897 63.2304 83.3972 63.5009 83.6121C63.7738 83.8247 63.9163 84.1012 63.9284 84.4418H63.1929C63.1736 84.2679 63.0975 84.1314 62.9647 84.0324C62.8318 83.9334 62.6567 83.8838 62.4393 83.8838C62.2268 83.8838 62.0553 83.9309 61.9249 84.0251C61.7968 84.1193 61.7328 84.2413 61.7328 84.3911C61.7328 84.6229 61.9273 84.7872 62.3161 84.8838L62.9574 85.0323C63.3415 85.1241 63.6132 85.2497 63.7726 85.4091C63.9344 85.5661 64.0153 85.7859 64.0153 86.0685C64.0153 86.4163 63.868 86.6989 63.5733 86.9163C63.2811 87.1337 62.9007 87.2424 62.4321 87.2424C61.9852 87.2424 61.6205 87.1361 61.3379 86.9236C61.0578 86.711 60.902 86.4284 60.8706 86.0758H61.6459C61.6773 86.2593 61.763 86.4006 61.9031 86.4997C62.0432 86.5963 62.2316 86.6446 62.4683 86.6446C62.7026 86.6446 62.8874 86.5999 63.0226 86.5105C63.1603 86.4188 63.2291 86.2956 63.2291 86.141C63.2291 86.0178 63.1881 85.92 63.106 85.8475C63.0238 85.7751 62.8838 85.7135 62.6857 85.6627L62.0046 85.4961C61.3138 85.3294 60.9684 84.9768 60.9684 84.4382ZM64.653 87.1699V81.9419H65.4283V83.9962H65.4464C65.5527 83.7715 65.7085 83.5988 65.9138 83.4781C66.1191 83.3549 66.3655 83.2933 66.6529 83.2933C67.0683 83.2933 67.3944 83.4213 67.6311 83.6773C67.8702 83.9334 67.9898 84.2788 67.9898 84.7135V87.1699H67.2036V84.8657C67.2036 84.5807 67.1323 84.3597 66.9898 84.2027C66.8497 84.0457 66.6432 83.9672 66.3703 83.9672C66.0829 83.9672 65.8546 84.059 65.6855 84.2425C65.5189 84.4237 65.4356 84.6652 65.4356 84.9671V87.1699H64.653ZM70.7759 87.2351C70.5005 87.2351 70.2578 87.1723 70.0477 87.0467C69.8375 86.9211 69.6721 86.746 69.5513 86.5214H69.5368V87.1699H68.776V81.9419H69.5586V84.007H69.5767C69.6926 83.7848 69.8544 83.6109 70.0622 83.4853C70.2723 83.3597 70.5114 83.2969 70.7795 83.2969C71.2602 83.2969 71.6442 83.4744 71.9316 83.8295C72.2215 84.1846 72.3664 84.6628 72.3664 85.2642C72.3664 85.8681 72.2227 86.3475 71.9352 86.7026C71.6478 87.0576 71.2614 87.2351 70.7759 87.2351ZM70.5657 83.9563C70.2662 83.9563 70.0223 84.0771 69.8339 84.3186C69.6479 84.5577 69.5549 84.8729 69.5549 85.2642C69.5549 85.6579 69.6479 85.9743 69.8339 86.2134C70.0223 86.4526 70.2662 86.5721 70.5657 86.5721C70.8725 86.5721 71.1152 86.455 71.294 86.2207C71.4727 85.9864 71.5621 85.6676 71.5621 85.2642C71.5621 84.8633 71.4727 84.5457 71.294 84.3114C71.1152 84.0747 70.8725 83.9563 70.5657 83.9563ZM75.9314 86.7134C75.603 87.0661 75.1646 87.2424 74.6163 87.2424C74.068 87.2424 73.6296 87.0661 73.3011 86.7134C72.9726 86.3584 72.8084 85.8753 72.8084 85.2642C72.8084 84.6555 72.9726 84.1749 73.3011 83.8223C73.6296 83.4672 74.068 83.2897 74.6163 83.2897C75.1646 83.2897 75.603 83.4672 75.9314 83.8223C76.2599 84.1749 76.4242 84.6555 76.4242 85.2642C76.4242 85.8753 76.2599 86.3584 75.9314 86.7134ZM74.6163 86.5975C74.9279 86.5975 75.1742 86.4803 75.3554 86.2461C75.5365 86.0118 75.6271 85.6845 75.6271 85.2642C75.6271 84.8464 75.5353 84.5203 75.3518 84.286C75.1706 84.0517 74.9254 83.9346 74.6163 83.9346C74.3071 83.9346 74.0608 84.0517 73.8772 84.286C73.696 84.5203 73.6055 84.8464 73.6055 85.2642C73.6055 85.6845 73.696 86.0118 73.8772 86.2461C74.0608 86.4803 74.3071 86.5975 74.6163 86.5975ZM78.3625 86.6156C78.6378 86.6156 78.8685 86.5323 79.0545 86.3656C79.2429 86.1965 79.3371 85.9888 79.3371 85.7425V85.4417L78.3987 85.4997C78.1644 85.5166 77.9833 85.5746 77.8553 85.6736C77.7297 85.7702 77.6669 85.9007 77.6669 86.0649C77.6669 86.2316 77.7297 86.3656 77.8553 86.4671C77.9833 86.5661 78.1523 86.6156 78.3625 86.6156ZM78.1451 87.2351C77.7707 87.2351 77.4652 87.1289 77.2285 86.9163C76.9942 86.7038 76.877 86.4272 76.877 86.0866C76.877 85.7533 77.0002 85.4888 77.2466 85.2932C77.493 85.0951 77.842 84.984 78.2936 84.9599L79.3371 84.8983V84.6048C79.3371 84.3923 79.2694 84.2268 79.1342 84.1085C78.9989 83.9877 78.8117 83.9273 78.5726 83.9273C78.3504 83.9273 78.1693 83.9768 78.0292 84.0759C77.8915 84.1749 77.8045 84.3114 77.7683 84.4853H77.0292C77.0509 84.1326 77.2031 83.8452 77.4857 83.623C77.7683 83.4008 78.1403 83.2897 78.6016 83.2897C79.0629 83.2897 79.4301 83.4032 79.703 83.6302C79.9783 83.8573 80.116 84.1616 80.116 84.5432V87.1699H79.3661V86.5431H79.3479C79.2392 86.7533 79.0738 86.9211 78.8516 87.0467C78.6318 87.1723 78.3963 87.2351 78.1451 87.2351ZM80.8769 87.1699V83.3585H81.6232V84.007H81.6413C81.7041 83.7848 81.8164 83.6109 81.9782 83.4853C82.1401 83.3597 82.3333 83.2969 82.5579 83.2969C82.6328 83.2969 82.7222 83.3066 82.826 83.3259V84.0541C82.756 84.0251 82.6388 84.0107 82.4746 84.0107C82.2234 84.0107 82.0241 84.0892 81.8768 84.2461C81.7319 84.4031 81.6594 84.6169 81.6594 84.8874V87.1699H80.8769ZM84.5759 87.2351C84.0929 87.2351 83.7052 87.0564 83.413 86.6989C83.1207 86.3415 82.9746 85.8632 82.9746 85.2642C82.9746 84.6652 83.1195 84.1882 83.4093 83.8331C83.7016 83.4757 84.088 83.2969 84.5687 83.2969C84.8368 83.2969 85.0759 83.3597 85.2861 83.4853C85.4962 83.6085 85.6556 83.7776 85.7643 83.9925H85.7788V81.9419H86.565V87.1699H85.8042V86.5214H85.7897C85.6761 86.7436 85.5131 86.9187 85.3006 87.0467C85.0904 87.1723 84.8489 87.2351 84.5759 87.2351ZM84.7825 83.9563C84.4733 83.9563 84.2281 84.0747 84.047 84.3114C83.8658 84.5457 83.7753 84.8633 83.7753 85.2642C83.7753 85.6676 83.8658 85.9864 84.047 86.2207C84.2281 86.455 84.4733 86.5721 84.7825 86.5721C85.0844 86.5721 85.3271 86.4538 85.5107 86.2171C85.6943 85.9779 85.786 85.6603 85.786 85.2642C85.786 84.8705 85.6943 84.5541 85.5107 84.315C85.3271 84.0759 85.0844 83.9563 84.7825 83.9563Z" fill="#0A265F"/>
<path d="M148.451 81.58C148.619 81.4121 148.891 81.4121 149.059 81.58L151.333 83.8545L153.608 81.58C153.776 81.4121 154.048 81.4121 154.216 81.58C154.383 81.7478 154.383 82.0199 154.216 82.1877L151.941 84.4622L154.216 86.7367C154.383 86.9045 154.383 87.1766 154.216 87.3444C154.048 87.5123 153.776 87.5123 153.608 87.3444L151.333 85.0699L149.059 87.3444C148.891 87.5123 148.619 87.5123 148.451 87.3444C148.283 87.1766 148.283 86.9045 148.451 86.7367L150.726 84.4622L148.451 82.1877C148.283 82.0199 148.283 81.7478 148.451 81.58Z" fill="#D40D00"/>
<rect width="90.2902" height="23.4123" transform="translate(211.655 72.792)" fill="#0A265F"/>
<g clip-path="url(#clip1_677_2083)">
<path d="M259.825 82.6981L259.065 81.9355C259.039 81.9099 259.005 81.8955 258.968 81.8955C258.932 81.8955 258.898 81.9099 258.872 81.9355L255.66 85.1494C255.635 85.175 255.6 85.1894 255.564 85.1894C255.528 85.1894 255.493 85.175 255.467 85.1494L254.707 84.3868C254.681 84.3612 254.647 84.3468 254.611 84.3468C254.574 84.3468 254.54 84.3612 254.514 84.3868L253.754 85.1494C253.701 85.2026 253.701 85.2888 253.754 85.342L255.467 87.0559C255.493 87.0815 255.528 87.096 255.564 87.096C255.6 87.096 255.635 87.0815 255.66 87.0559L259.825 82.8888C259.877 82.8358 259.877 82.7511 259.825 82.6981Z" fill="#0A265F"/>
</g>
<path d="M260.481 81.7873C260.658 81.9449 260.674 82.2166 260.516 82.3939L255.932 87.5507C255.851 87.6424 255.734 87.6949 255.611 87.6949C255.489 87.6949 255.372 87.6424 255.29 87.5507L252.998 84.9723C252.841 84.7949 252.857 84.5233 253.034 84.3656C253.211 84.208 253.483 84.2239 253.641 84.4013L255.611 86.6184L259.874 81.8229C260.032 81.6456 260.303 81.6296 260.481 81.7873Z" fill="#49CCF9"/>
<rect x="0.505371" y="97.7715" width="211.46" height="19.5165" rx="2.08428" fill="#D9D9D9" fill-opacity="0.44"/>
<rect x="0.505371" y="145.279" width="211.46" height="19.5165" rx="2.08428" fill="#D9D9D9" fill-opacity="0.44"/>
<rect x="0.505371" y="192.788" width="211.46" height="19.5165" rx="2.08428" fill="#D9D9D9" fill-opacity="0.44"/>
<path d="M9.87663 110.554L9.431 109.202H7.50717L7.06154 110.554H6.09782L7.95281 105.326H9.0071L10.8621 110.554H9.87663ZM8.4564 106.25L7.72456 108.481H9.20999L8.48177 106.25H8.4564ZM12.3584 110.554H11.4237V105.326H12.3584V110.554ZM17.0176 110.641C15.5249 110.641 14.5865 109.615 14.5865 107.938C14.5865 106.271 15.5322 105.239 17.0176 105.239C18.2313 105.239 19.1552 105.996 19.2711 107.119H18.3509C18.2277 106.463 17.6951 106.032 17.0176 106.032C16.1191 106.032 15.543 106.771 15.543 107.938C15.543 109.112 16.1155 109.847 17.0212 109.847C17.7132 109.847 18.2096 109.474 18.3545 108.844H19.2711C19.1081 109.963 18.253 110.641 17.0176 110.641ZM21.5898 110.63C20.4631 110.63 19.7312 109.88 19.7312 108.634C19.7312 107.394 20.4703 106.634 21.5898 106.634C22.7093 106.634 23.4484 107.391 23.4484 108.634C23.4484 109.88 22.7166 110.63 21.5898 110.63ZM21.5898 109.916C22.1623 109.916 22.5318 109.452 22.5318 108.634C22.5318 107.818 22.1623 107.351 21.5898 107.351C21.021 107.351 20.6479 107.818 20.6479 108.634C20.6479 109.452 21.0174 109.916 21.5898 109.916ZM25.4628 110.615C24.4955 110.615 23.8687 109.851 23.8687 108.63C23.8687 107.416 24.4955 106.648 25.4628 106.648C26.0135 106.648 26.4483 106.934 26.6512 107.358H26.6729V105.326H27.5751V110.554H26.691V109.898H26.6765C26.4664 110.329 26.0244 110.615 25.4628 110.615ZM25.7346 107.391C25.1549 107.391 24.7926 107.873 24.7926 108.634C24.7926 109.398 25.1513 109.876 25.7346 109.876C26.3034 109.876 26.6765 109.394 26.6765 108.634C26.6765 107.88 26.3034 107.391 25.7346 107.391ZM28.354 110.554V106.713H29.2561V110.554H28.354ZM28.8033 106.21C28.5243 106.21 28.3033 105.992 28.3033 105.721C28.3033 105.445 28.5243 105.228 28.8033 105.228C29.0859 105.228 29.3069 105.445 29.3069 105.721C29.3069 105.992 29.0859 106.21 28.8033 106.21ZM30.0133 110.554V106.713H30.8792V107.373H30.8974C31.1039 106.916 31.5133 106.641 32.1038 106.641C32.9516 106.641 33.4335 107.184 33.4335 108.072V110.554H32.5313V108.253C32.5313 107.71 32.2777 107.405 31.7633 107.405C31.2452 107.405 30.9155 107.778 30.9155 108.329V110.554H30.0133ZM35.8536 109.84C36.4297 109.84 36.8029 109.373 36.8029 108.623C36.8029 107.876 36.4297 107.391 35.8536 107.391C35.2848 107.391 34.9225 107.869 34.9225 108.623C34.9225 109.383 35.2848 109.84 35.8536 109.84ZM35.85 112.003C34.9008 112.003 34.2197 111.517 34.1291 110.844H35.024C35.1218 111.137 35.4515 111.336 35.879 111.336C36.4659 111.336 36.8029 111.007 36.8029 110.517V109.869H36.7811C36.5819 110.282 36.129 110.557 35.5783 110.557C34.6291 110.557 33.9987 109.815 33.9987 108.619C33.9987 107.405 34.6146 106.648 35.5964 106.648C36.1435 106.648 36.5855 106.931 36.8065 107.373H36.821V106.713H37.705V110.492C37.705 111.409 36.9695 112.003 35.85 112.003ZM40.9512 110.554H40.0165V105.326H40.9512V110.554ZM41.7809 110.554V106.713H42.6468V107.373H42.6649C42.8714 106.916 43.2808 106.641 43.8714 106.641C44.7192 106.641 45.201 107.184 45.201 108.072V110.554H44.2989V108.253C44.2989 107.71 44.0453 107.405 43.5308 107.405C43.0127 107.405 42.683 107.778 42.683 108.329V110.554H41.7809ZM46.1756 105.815H47.0777V106.713H47.8023V107.409H47.0777V109.405C47.0777 109.72 47.2227 109.865 47.5415 109.865C47.6248 109.865 47.7408 109.858 47.7987 109.847V110.536C47.7009 110.557 47.5234 110.572 47.3314 110.572C46.5017 110.572 46.1756 110.278 46.1756 109.532V107.409H45.6249V106.713H46.1756V105.815ZM50.0015 107.333C49.4943 107.333 49.1284 107.721 49.0921 108.257H50.8855C50.8674 107.713 50.5196 107.333 50.0015 107.333ZM50.8892 109.405H51.7333C51.6174 110.13 50.9435 110.63 50.0341 110.63C48.882 110.63 48.1864 109.873 48.1864 108.648C48.1864 107.434 48.8893 106.634 49.9979 106.634C51.0884 106.634 51.7696 107.391 51.7696 108.557V108.851H49.0849V108.905C49.0849 109.521 49.4617 109.934 50.0522 109.934C50.4725 109.934 50.7913 109.724 50.8892 109.405ZM52.3529 110.554V106.713H53.2188V107.384H53.2369C53.3673 106.916 53.7042 106.648 54.1571 106.648C54.2731 106.648 54.3745 106.67 54.4397 106.684V107.5C54.3636 107.471 54.226 107.449 54.0738 107.449C53.5629 107.449 53.255 107.778 53.255 108.318V110.554H52.3529ZM58.2837 106.713L56.9323 110.554H55.9396L54.5774 106.713H55.5411L56.4324 109.717H56.4505L57.3417 106.713H58.2837ZM58.7221 110.554V106.713H59.6242V110.554H58.7221ZM59.1714 106.21C58.8924 106.21 58.6714 105.992 58.6714 105.721C58.6714 105.445 58.8924 105.228 59.1714 105.228C59.454 105.228 59.675 105.445 59.675 105.721C59.675 105.992 59.454 106.21 59.1714 106.21ZM62.0372 107.333C61.53 107.333 61.164 107.721 61.1278 108.257H62.9212C62.9031 107.713 62.5553 107.333 62.0372 107.333ZM62.9248 109.405H63.769C63.653 110.13 62.9792 110.63 62.0698 110.63C60.9177 110.63 60.222 109.873 60.222 108.648C60.222 107.434 60.9249 106.634 62.0336 106.634C63.1241 106.634 63.8052 107.391 63.8052 108.557V108.851H61.1206V108.905C61.1206 109.521 61.4973 109.934 62.0879 109.934C62.5082 109.934 62.827 109.724 62.9248 109.405ZM69.5839 106.713L68.5441 110.554H67.5949L66.8377 107.746H66.8196L66.066 110.554H65.124L64.0842 106.713H64.9899L65.6385 109.662H65.6566L66.4065 106.713H67.2724L68.0224 109.662H68.0441L68.6927 106.713H69.5839ZM69.9498 107.815C69.9498 107.112 70.5694 106.634 71.5041 106.634C72.4062 106.634 73.0185 107.119 73.0403 107.829H72.1997C72.1707 107.5 71.9063 107.297 71.486 107.297C71.0875 107.297 70.8266 107.485 70.8266 107.764C70.8266 107.981 71.0005 108.126 71.3773 108.217L72.0621 108.369C72.8301 108.55 73.1308 108.847 73.1308 109.416C73.1308 110.141 72.4606 110.63 71.4896 110.63C70.5259 110.63 69.9136 110.152 69.852 109.423H70.7397C70.794 109.775 71.0657 109.97 71.5222 109.97C71.9606 109.97 72.2323 109.793 72.2323 109.507C72.2323 109.282 72.091 109.162 71.7179 109.068L71.0186 108.905C70.3085 108.739 69.9498 108.369 69.9498 107.815Z" fill="#0A265F"/>
<path d="M148.451 105.185C148.619 105.018 148.891 105.018 149.059 105.185L151.333 107.46L153.608 105.185C153.776 105.018 154.048 105.018 154.216 105.185C154.383 105.353 154.383 105.625 154.216 105.793L151.941 108.068L154.216 110.342C154.383 110.51 154.383 110.782 154.216 110.95C154.048 111.118 153.776 111.118 153.608 110.95L151.333 108.675L149.059 110.95C148.891 111.118 148.619 111.118 148.451 110.95C148.283 110.782 148.283 110.51 148.451 110.342L150.726 108.068L148.451 105.793C148.283 105.625 148.283 105.353 148.451 105.185Z" fill="#D40D00"/>
<rect width="90.2902" height="23.4123" transform="translate(211.655 96.2041)" fill="#0A265F"/>
<g clip-path="url(#clip2_677_2083)">
<path d="M259.825 106.111L259.065 105.349C259.039 105.323 259.005 105.309 258.968 105.309C258.932 105.309 258.898 105.323 258.872 105.349L255.66 108.562C255.635 108.588 255.6 108.602 255.564 108.602C255.528 108.602 255.493 108.588 255.467 108.562L254.707 107.8C254.681 107.774 254.647 107.76 254.611 107.76C254.574 107.76 254.54 107.774 254.514 107.8L253.754 108.562C253.701 108.616 253.701 108.702 253.754 108.755L255.467 110.469C255.493 110.495 255.528 110.509 255.564 110.509C255.6 110.509 255.635 110.495 255.66 110.469L259.825 106.302C259.877 106.249 259.877 106.164 259.825 106.111Z" fill="#0A265F"/>
</g>
<path d="M260.481 105.028C260.658 105.186 260.674 105.458 260.516 105.635L255.932 110.792C255.851 110.884 255.734 110.936 255.611 110.936C255.489 110.936 255.372 110.884 255.29 110.792L252.998 108.214C252.841 108.036 252.857 107.765 253.034 107.607C253.211 107.449 253.483 107.465 253.641 107.643L255.611 109.86L259.874 105.064C260.032 104.887 260.303 104.871 260.481 105.028Z" fill="#49CCF9"/>
<path d="M6.46012 128.709H8.49263C9.53244 128.709 10.2534 129.416 10.2534 130.459C10.2534 131.503 9.5107 132.209 8.45278 132.209H7.39486V133.938H6.46012V128.709ZM7.39486 129.474V131.456H8.24265C8.9129 131.456 9.30419 131.093 9.30419 130.459C9.30419 129.833 8.91653 129.474 8.24627 129.474H7.39486ZM10.8476 133.938V130.097H11.7135V130.767H11.7316C11.862 130.3 12.199 130.032 12.6519 130.032C12.7678 130.032 12.8692 130.054 12.9345 130.068V130.883C12.8584 130.854 12.7207 130.833 12.5685 130.833C12.0577 130.833 11.7497 131.162 11.7497 131.702V133.938H10.8476ZM14.9525 134.014C13.8257 134.014 13.0939 133.264 13.0939 132.017C13.0939 130.778 13.833 130.017 14.9525 130.017C16.072 130.017 16.8111 130.775 16.8111 132.017C16.8111 133.264 16.0792 134.014 14.9525 134.014ZM14.9525 133.3C15.5249 133.3 15.8945 132.836 15.8945 132.017C15.8945 131.202 15.5249 130.735 14.9525 130.735C14.3837 130.735 14.0105 131.202 14.0105 132.017C14.0105 132.836 14.38 133.3 14.9525 133.3ZM18.8255 133.999C17.8581 133.999 17.2313 133.235 17.2313 132.014C17.2313 130.8 17.8581 130.032 18.8255 130.032C19.3762 130.032 19.8109 130.318 20.0138 130.742H20.0356V128.709H20.9377V133.938H20.0537V133.282H20.0392C19.829 133.713 19.387 133.999 18.8255 133.999ZM19.0972 130.775C18.5175 130.775 18.1552 131.256 18.1552 132.017C18.1552 132.782 18.5139 133.26 19.0972 133.26C19.666 133.26 20.0392 132.778 20.0392 132.017C20.0392 131.264 19.666 130.775 19.0972 130.775ZM25.1005 130.097V133.938H24.231V133.271H24.2129C24.01 133.738 23.6223 134.006 23.039 134.006C22.2057 134.006 21.6768 133.467 21.6768 132.579V130.097H22.5789V132.398C22.5789 132.948 22.847 133.246 23.3542 133.246C23.876 133.246 24.1984 132.876 24.1984 132.318V130.097H25.1005ZM29.2235 131.467H28.3721C28.2997 131.057 28.0134 130.749 27.5316 130.749C26.9628 130.749 26.5968 131.227 26.5968 132.017C26.5968 132.822 26.9664 133.285 27.5388 133.285C27.9953 133.285 28.2924 133.025 28.3757 132.59H29.2271C29.1547 133.448 28.4917 134.014 27.528 134.014C26.4048 134.014 25.6802 133.264 25.6802 132.017C25.6802 130.789 26.4048 130.017 27.5207 130.017C28.5352 130.017 29.1619 130.659 29.2235 131.467ZM30.017 129.199H30.9191V130.097H31.6437V130.793H30.9191V132.789C30.9191 133.104 31.064 133.249 31.3828 133.249C31.4662 133.249 31.5821 133.242 31.6401 133.231V133.919C31.5423 133.941 31.3647 133.956 31.1727 133.956C30.343 133.956 30.017 133.662 30.017 132.916V130.793H29.4663V130.097H30.017V129.199ZM33.8356 128.709H35.745C37.3065 128.709 38.2303 129.655 38.2303 131.311C38.2303 132.967 37.3101 133.938 35.745 133.938H33.8356V128.709ZM34.7704 129.499V133.148H35.6471C36.6978 133.148 37.2775 132.506 37.2775 131.314C37.2775 130.144 36.6906 129.499 35.6471 129.499H34.7704ZM40.5382 130.717C40.031 130.717 39.6651 131.104 39.6288 131.641H41.4222C41.4041 131.097 41.0563 130.717 40.5382 130.717ZM41.4258 132.789H42.27C42.1541 133.514 41.4802 134.014 40.5708 134.014C39.4187 134.014 38.7231 133.256 38.7231 132.032C38.7231 130.818 39.4259 130.017 40.5346 130.017C41.6251 130.017 42.3062 130.775 42.3062 131.941V132.235H39.6216V132.289C39.6216 132.905 39.9984 133.318 40.5889 133.318C41.0092 133.318 41.328 133.108 41.4258 132.789ZM46.2336 130.097L44.8822 133.938H43.8895L42.5272 130.097H43.491L44.3822 133.101H44.4003L45.2916 130.097H46.2336ZM48.1973 130.717C47.69 130.717 47.3241 131.104 47.2879 131.641H49.0813C49.0632 131.097 48.7153 130.717 48.1973 130.717ZM49.0849 132.789H49.9291C49.8131 133.514 49.1392 134.014 48.2299 134.014C47.0777 134.014 46.3821 133.256 46.3821 132.032C46.3821 130.818 47.085 130.017 48.1936 130.017C49.2842 130.017 49.9653 130.775 49.9653 131.941V132.235H47.2806V132.289C47.2806 132.905 47.6574 133.318 48.248 133.318C48.6682 133.318 48.9871 133.108 49.0849 132.789ZM50.574 133.938V128.709H51.4761V133.938H50.574ZM53.9434 134.014C52.8166 134.014 52.0848 133.264 52.0848 132.017C52.0848 130.778 52.8238 130.017 53.9434 130.017C55.0629 130.017 55.802 130.775 55.802 132.017C55.802 133.264 55.0701 134.014 53.9434 134.014ZM53.9434 133.3C54.5158 133.3 54.8853 132.836 54.8853 132.017C54.8853 131.202 54.5158 130.735 53.9434 130.735C53.3745 130.735 53.0014 131.202 53.0014 132.017C53.0014 132.836 53.3709 133.3 53.9434 133.3ZM58.4902 130.032C59.4648 130.032 60.0844 130.789 60.0844 132.017C60.0844 133.242 59.4685 133.999 58.5047 133.999C57.9468 133.999 57.512 133.731 57.3019 133.3H57.2838V135.202H56.3816V130.097H57.262V130.76H57.2802C57.4975 130.314 57.9323 130.032 58.4902 130.032ZM58.2149 133.26C58.7982 133.26 59.1605 132.778 59.1605 132.017C59.1605 131.26 58.7982 130.775 58.2149 130.775C57.6533 130.775 57.2802 131.271 57.2765 132.017C57.2802 132.771 57.6533 133.26 58.2149 133.26ZM60.664 133.938V130.097H61.53V130.764H61.5481C61.7147 130.318 62.1205 130.025 62.6422 130.025C63.1857 130.025 63.5733 130.304 63.7146 130.796H63.7364C63.9211 130.322 64.3776 130.025 64.932 130.025C65.6892 130.025 66.1855 130.535 66.1855 131.304V133.938H65.2834V131.525C65.2834 131.054 65.037 130.785 64.595 130.785C64.1603 130.785 63.8632 131.104 63.8632 131.564V133.938H62.9864V131.477C62.9864 131.05 62.7255 130.785 62.3053 130.785C61.8705 130.785 61.5662 131.122 61.5662 131.586V133.938H60.664ZM68.5658 130.717C68.0586 130.717 67.6927 131.104 67.6565 131.641H69.4499C69.4317 131.097 69.0839 130.717 68.5658 130.717ZM69.4535 132.789H70.2976C70.1817 133.514 69.5078 134.014 68.5985 134.014C67.4463 134.014 66.7507 133.256 66.7507 132.032C66.7507 130.818 67.4536 130.017 68.5622 130.017C69.6528 130.017 70.3339 130.775 70.3339 131.941V132.235H67.6492V132.289C67.6492 132.905 68.026 133.318 68.6166 133.318C69.0368 133.318 69.3557 133.108 69.4535 132.789ZM70.9172 133.938V130.097H71.7831V130.756H71.8012C72.0077 130.3 72.4171 130.025 73.0077 130.025C73.8555 130.025 74.3373 130.568 74.3373 131.456V133.938H73.4352V131.637C73.4352 131.093 73.1816 130.789 72.6671 130.789C72.149 130.789 71.8193 131.162 71.8193 131.713V133.938H70.9172ZM75.3119 129.199H76.214V130.097H76.9386V130.793H76.214V132.789C76.214 133.104 76.359 133.249 76.6778 133.249C76.7611 133.249 76.877 133.242 76.935 133.231V133.919C76.8372 133.941 76.6597 133.956 76.4676 133.956C75.638 133.956 75.3119 133.662 75.3119 132.916V130.793H74.7612V130.097H75.3119V129.199ZM78.9168 132.467H79.8226C79.8805 132.948 80.3624 133.264 81 133.264C81.6304 133.264 82.0688 132.952 82.0688 132.517C82.0688 132.14 81.8007 131.923 81.1413 131.767L80.4638 131.608C79.5001 131.387 79.0436 130.923 79.0436 130.177C79.0436 129.249 79.8515 128.623 80.9892 128.623C82.1413 128.623 82.9021 129.246 82.9239 130.166H82.0326C81.9891 129.677 81.5797 129.383 80.9819 129.383C80.3914 129.383 79.9928 129.673 79.9928 130.108C79.9928 130.456 80.2573 130.659 80.8986 130.811L81.5 130.949C82.5616 131.191 83.0108 131.63 83.0108 132.409C83.0108 133.401 82.2137 134.024 80.9493 134.024C79.7465 134.024 78.9567 133.43 78.9168 132.467ZM83.6485 133.938V130.097H84.5506V133.938H83.6485ZM84.0977 129.594C83.8187 129.594 83.5977 129.376 83.5977 129.104C83.5977 128.829 83.8187 128.612 84.0977 128.612C84.3803 128.612 84.6013 128.829 84.6013 129.104C84.6013 129.376 84.3803 129.594 84.0977 129.594ZM85.3078 133.938V130.097H86.1737V130.764H86.1918C86.3585 130.318 86.7643 130.025 87.286 130.025C87.8294 130.025 88.2171 130.304 88.3584 130.796H88.3801C88.5649 130.322 89.0214 130.025 89.5757 130.025C90.3329 130.025 90.8293 130.535 90.8293 131.304V133.938H89.9271V131.525C89.9271 131.054 89.6808 130.785 89.2388 130.785C88.804 130.785 88.5069 131.104 88.5069 131.564V133.938H87.6302V131.477C87.6302 131.05 87.3693 130.785 86.949 130.785C86.5143 130.785 86.2099 131.122 86.2099 131.586V133.938H85.3078ZM94.9595 130.097V133.938H94.09V133.271H94.0719C93.869 133.738 93.4813 134.006 92.898 134.006C92.0647 134.006 91.5358 133.467 91.5358 132.579V130.097H92.4379V132.398C92.4379 132.948 92.706 133.246 93.2132 133.246C93.7349 133.246 94.0574 132.876 94.0574 132.318V130.097H94.9595ZM95.724 133.938V128.709H96.6261V133.938H95.724ZM98.7963 133.318C99.3071 133.318 99.7165 132.977 99.7165 132.514V132.22L98.8289 132.275C98.3941 132.304 98.1441 132.499 98.1441 132.803C98.1441 133.119 98.405 133.318 98.7963 133.318ZM98.5246 133.999C97.7818 133.999 97.242 133.532 97.242 132.84C97.242 132.159 97.7673 131.749 98.7021 131.691L99.7165 131.633V131.358C99.7165 130.956 99.4448 130.724 98.9992 130.724C98.5717 130.724 98.2999 130.93 98.242 131.249H97.405C97.4449 130.532 98.0572 130.017 99.0354 130.017C99.9883 130.017 100.608 130.521 100.608 131.293V133.938H99.7383V133.325H99.7202C99.4991 133.742 99.0173 133.999 98.5246 133.999ZM101.586 129.199H102.488V130.097H103.213V130.793H102.488V132.789C102.488 133.104 102.633 133.249 102.952 133.249C103.035 133.249 103.151 133.242 103.209 133.231V133.919C103.111 133.941 102.934 133.956 102.742 133.956C101.912 133.956 101.586 133.662 101.586 132.916V130.793H101.035V130.097H101.586V129.199ZM103.85 133.938V130.097H104.753V133.938H103.85ZM104.3 129.594C104.021 129.594 103.8 129.376 103.8 129.104C103.8 128.829 104.021 128.612 104.3 128.612C104.582 128.612 104.803 128.829 104.803 129.104C104.803 129.376 104.582 129.594 104.3 129.594ZM107.209 134.014C106.082 134.014 105.35 133.264 105.35 132.017C105.35 130.778 106.089 130.017 107.209 130.017C108.328 130.017 109.068 130.775 109.068 132.017C109.068 133.264 108.336 134.014 107.209 134.014ZM107.209 133.3C107.781 133.3 108.151 132.836 108.151 132.017C108.151 131.202 107.781 130.735 107.209 130.735C106.64 130.735 106.267 131.202 106.267 132.017C106.267 132.836 106.636 133.3 107.209 133.3ZM109.647 133.938V130.097H110.513V130.756H110.531C110.738 130.3 111.147 130.025 111.738 130.025C112.585 130.025 113.067 130.568 113.067 131.456V133.938H112.165V131.637C112.165 131.093 111.912 130.789 111.397 130.789C110.879 130.789 110.549 131.162 110.549 131.713V133.938H109.647Z" fill="#0A265F"/>
<path d="M148.451 128.427C148.619 128.259 148.891 128.259 149.059 128.427L151.333 130.701L153.608 128.427C153.776 128.259 154.048 128.259 154.216 128.427C154.383 128.594 154.383 128.867 154.216 129.034L151.941 131.309L154.216 133.583C154.383 133.751 154.383 134.023 154.216 134.191C154.048 134.359 153.776 134.359 153.608 134.191L151.333 131.917L149.059 134.191C148.891 134.359 148.619 134.359 148.451 134.191C148.283 134.023 148.283 133.751 148.451 133.583L150.726 131.309L148.451 129.034C148.283 128.867 148.283 128.594 148.451 128.427Z" fill="#D40D00"/>
<rect width="90.2902" height="23.4123" transform="translate(211.655 119.616)" fill="#0A265F"/>
<g clip-path="url(#clip3_677_2083)">
<path d="M259.825 129.523L259.065 128.761C259.039 128.735 259.005 128.721 258.968 128.721C258.932 128.721 258.898 128.735 258.872 128.761L255.66 131.975C255.635 132 255.6 132.015 255.564 132.015C255.528 132.015 255.493 132 255.467 131.975L254.707 131.212C254.681 131.186 254.647 131.172 254.611 131.172C254.574 131.172 254.54 131.186 254.514 131.212L253.754 131.975C253.701 132.028 253.701 132.114 253.754 132.167L255.467 133.881C255.493 133.907 255.528 133.921 255.564 133.921C255.6 133.921 255.635 133.907 255.66 133.881L259.825 129.714C259.877 129.661 259.877 129.576 259.825 129.523Z" fill="#0A265F"/>
</g>
<path d="M260.481 128.634C260.658 128.792 260.674 129.063 260.516 129.241L255.932 134.397C255.851 134.489 255.734 134.542 255.611 134.542C255.489 134.542 255.372 134.489 255.29 134.397L252.998 131.819C252.841 131.642 252.857 131.37 253.034 131.212C253.211 131.055 253.483 131.071 253.641 131.248L255.611 133.465L259.874 128.67C260.032 128.492 260.303 128.476 260.481 128.634Z" fill="#49CCF9"/>
<path d="M6.24637 155.851H7.15212C7.21009 156.333 7.69195 156.648 8.3296 156.648C8.96 156.648 9.39839 156.337 9.39839 155.902C9.39839 155.525 9.13028 155.308 8.4709 155.152L7.79339 154.993C6.82967 154.772 6.37317 154.308 6.37317 153.562C6.37317 152.634 7.1811 152.007 8.31873 152.007C9.47085 152.007 10.2317 152.63 10.2534 153.551H9.36216C9.31868 153.062 8.90928 152.768 8.31148 152.768C7.72093 152.768 7.3224 153.058 7.3224 153.493C7.3224 153.841 7.58688 154.043 8.22815 154.196L8.82957 154.333C9.89112 154.576 10.3404 155.014 10.3404 155.793C10.3404 156.786 9.54331 157.409 8.27888 157.409C7.07604 157.409 6.28622 156.815 6.24637 155.851ZM10.9563 157.322V153.482H11.8222V154.149H11.8403C12.007 153.703 12.4127 153.409 12.9345 153.409C13.4779 153.409 13.8656 153.688 14.0069 154.181H14.0286C14.2134 153.706 14.6699 153.409 15.2242 153.409C15.9814 153.409 16.4778 153.92 16.4778 154.688V157.322H15.5756V154.909C15.5756 154.438 15.3293 154.17 14.8873 154.17C14.4525 154.17 14.1554 154.489 14.1554 154.949V157.322H13.2786V154.862C13.2786 154.435 13.0178 154.17 12.5975 154.17C12.1627 154.17 11.8584 154.507 11.8584 154.971V157.322H10.9563ZM18.6045 156.703C19.1153 156.703 19.5247 156.362 19.5247 155.898V155.605L18.6371 155.659C18.2023 155.688 17.9523 155.884 17.9523 156.188C17.9523 156.503 18.2132 156.703 18.6045 156.703ZM18.3327 157.384C17.59 157.384 17.0502 156.916 17.0502 156.224C17.0502 155.543 17.5755 155.134 18.5103 155.076L19.5247 155.018V154.743C19.5247 154.341 19.253 154.109 18.8074 154.109C18.3798 154.109 18.1081 154.315 18.0501 154.634H17.2132C17.2531 153.917 17.8654 153.402 18.8436 153.402C19.7964 153.402 20.416 153.906 20.416 154.677V157.322H19.5465V156.71H19.5283C19.3073 157.127 18.8255 157.384 18.3327 157.384ZM21.1442 157.322V153.482H22.0101V154.152H22.0282C22.1586 153.685 22.4956 153.417 22.9485 153.417C23.0644 153.417 23.1658 153.438 23.2311 153.453V154.268C23.155 154.239 23.0173 154.217 22.8651 154.217C22.3543 154.217 22.0463 154.547 22.0463 155.087V157.322H21.1442ZM23.9448 152.583H24.8469V153.482H25.5715V154.177H24.8469V156.174C24.8469 156.489 24.9918 156.634 25.3107 156.634C25.394 156.634 25.5099 156.627 25.5679 156.616V157.304C25.4701 157.326 25.2926 157.34 25.1005 157.34C24.2709 157.34 23.9448 157.047 23.9448 156.301V154.177H23.3941V153.482H23.9448V152.583ZM30.017 157.409C28.5243 157.409 27.5859 156.384 27.5859 154.706C27.5859 153.04 28.5315 152.007 30.017 152.007C31.2307 152.007 32.1545 152.765 32.2705 153.888H31.3502C31.2271 153.232 30.6945 152.801 30.017 152.801C29.1185 152.801 28.5424 153.54 28.5424 154.706C28.5424 155.88 29.1148 156.616 30.0206 156.616C30.7126 156.616 31.2089 156.243 31.3539 155.612H32.2705C32.1074 156.732 31.2524 157.409 30.017 157.409ZM34.5892 157.398C33.4625 157.398 32.7306 156.648 32.7306 155.402C32.7306 154.163 33.4697 153.402 34.5892 153.402C35.7087 153.402 36.4478 154.159 36.4478 155.402C36.4478 156.648 35.716 157.398 34.5892 157.398ZM34.5892 156.685C35.1616 156.685 35.5312 156.221 35.5312 155.402C35.5312 154.587 35.1616 154.12 34.5892 154.12C34.0204 154.12 33.6472 154.587 33.6472 155.402C33.6472 156.221 34.0168 156.685 34.5892 156.685ZM37.0275 157.322V153.482H37.8934V154.149H37.9115C38.0782 153.703 38.484 153.409 39.0057 153.409C39.5491 153.409 39.9368 153.688 40.0781 154.181H40.0998C40.2846 153.706 40.7411 153.409 41.2954 153.409C42.0526 153.409 42.549 153.92 42.549 154.688V157.322H41.6468V154.909C41.6468 154.438 41.4005 154.17 40.9585 154.17C40.5237 154.17 40.2266 154.489 40.2266 154.949V157.322H39.3499V154.862C39.3499 154.435 39.089 154.17 38.6687 154.17C38.234 154.17 37.9296 154.507 37.9296 154.971V157.322H37.0275ZM45.3822 153.417C46.3568 153.417 46.9763 154.174 46.9763 155.402C46.9763 156.627 46.3604 157.384 45.3967 157.384C44.8387 157.384 44.404 157.116 44.1938 156.685H44.1757V158.587H43.2736V153.482H44.154V154.145H44.1721C44.3895 153.699 44.8242 153.417 45.3822 153.417ZM45.1068 156.645C45.6901 156.645 46.0524 156.163 46.0524 155.402C46.0524 154.645 45.6901 154.159 45.1068 154.159C44.5453 154.159 44.1721 154.656 44.1685 155.402C44.1721 156.156 44.5453 156.645 45.1068 156.645ZM48.9581 156.703C49.4689 156.703 49.8783 156.362 49.8783 155.898V155.605L48.9907 155.659C48.5559 155.688 48.3059 155.884 48.3059 156.188C48.3059 156.503 48.5668 156.703 48.9581 156.703ZM48.6864 157.384C47.9436 157.384 47.4038 156.916 47.4038 156.224C47.4038 155.543 47.9292 155.134 48.8639 155.076L49.8783 155.018V154.743C49.8783 154.341 49.6066 154.109 49.161 154.109C48.7335 154.109 48.4617 154.315 48.4038 154.634H47.5669C47.6067 153.917 48.219 153.402 49.1972 153.402C50.1501 153.402 50.7696 153.906 50.7696 154.677V157.322H49.9001V156.71H49.882C49.661 157.127 49.1791 157.384 48.6864 157.384ZM51.4978 157.322V153.482H52.3637V154.152H52.3818C52.5123 153.685 52.8492 153.417 53.3021 153.417C53.418 153.417 53.5195 153.438 53.5847 153.453V154.268C53.5086 154.239 53.3709 154.217 53.2188 154.217C52.7079 154.217 52.4 154.547 52.4 155.087V157.322H51.4978ZM54.0702 157.322V153.482H54.9723V157.322H54.0702ZM54.5194 152.978C54.2404 152.978 54.0194 152.761 54.0194 152.489C54.0194 152.214 54.2404 151.996 54.5194 151.996C54.802 151.996 55.023 152.214 55.023 152.489C55.023 152.761 54.802 152.978 54.5194 152.978ZM55.6607 154.583C55.6607 153.88 56.2802 153.402 57.2149 153.402C58.1171 153.402 58.7294 153.888 58.7511 154.598H57.9106C57.8816 154.268 57.6171 154.065 57.1968 154.065C56.7983 154.065 56.5374 154.254 56.5374 154.533C56.5374 154.75 56.7113 154.895 57.0881 154.985L57.7729 155.138C58.541 155.319 58.8417 155.616 58.8417 156.185C58.8417 156.909 58.1714 157.398 57.2005 157.398C56.2367 157.398 55.6244 156.92 55.5628 156.192H56.4505C56.5048 156.543 56.7766 156.739 57.2331 156.739C57.6714 156.739 57.9432 156.561 57.9432 156.275C57.9432 156.051 57.8019 155.931 57.4287 155.837L56.7295 155.674C56.0193 155.507 55.6607 155.138 55.6607 154.583ZM61.1169 157.398C59.9902 157.398 59.2583 156.648 59.2583 155.402C59.2583 154.163 59.9974 153.402 61.1169 153.402C62.2364 153.402 62.9755 154.159 62.9755 155.402C62.9755 156.648 62.2437 157.398 61.1169 157.398ZM61.1169 156.685C61.6894 156.685 62.0589 156.221 62.0589 155.402C62.0589 154.587 61.6894 154.12 61.1169 154.12C60.5481 154.12 60.1749 154.587 60.1749 155.402C60.1749 156.221 60.5445 156.685 61.1169 156.685ZM63.5552 157.322V153.482H64.4211V154.141H64.4392C64.6457 153.685 65.0551 153.409 65.6457 153.409C66.4935 153.409 66.9753 153.953 66.9753 154.841V157.322H66.0732V155.022C66.0732 154.478 65.8196 154.174 65.3051 154.174C64.787 154.174 64.4573 154.547 64.4573 155.098V157.322H63.5552ZM74.6706 157.322H73.8301V153.612H73.8047L72.2939 157.279H71.6563L70.1455 153.612H70.1201V157.322H69.276V152.094H70.3592L71.9606 156.04H71.9896L73.591 152.094H74.6706V157.322ZM77.1596 154.101C76.6524 154.101 76.2865 154.489 76.2503 155.025H78.0437C78.0255 154.482 77.6777 154.101 77.1596 154.101ZM78.0473 156.174H78.8914C78.7755 156.898 78.1016 157.398 77.1922 157.398C76.0401 157.398 75.3445 156.641 75.3445 155.417C75.3445 154.203 76.0474 153.402 77.156 153.402C78.2465 153.402 78.9277 154.159 78.9277 155.326V155.619H76.243V155.674C76.243 156.29 76.6198 156.703 77.2104 156.703C77.6306 156.703 77.9495 156.493 78.0473 156.174ZM79.761 152.583H80.6631V153.482H81.3877V154.177H80.6631V156.174C80.6631 156.489 80.808 156.634 81.1268 156.634C81.2102 156.634 81.3261 156.627 81.3841 156.616V157.304C81.2863 157.326 81.1087 157.34 80.9167 157.34C80.087 157.34 79.761 157.047 79.761 156.301V154.177H79.2103V153.482H79.761V152.583ZM82.0036 157.322V153.482H82.8695V154.152H82.8876C83.0181 153.685 83.355 153.417 83.8079 153.417C83.9238 153.417 84.0253 153.438 84.0905 153.453V154.268C84.0144 154.239 83.8767 154.217 83.7245 154.217C83.2137 154.217 82.9057 154.547 82.9057 155.087V157.322H82.0036ZM84.5759 157.322V153.482H85.4781V157.322H84.5759ZM85.0252 152.978C84.7462 152.978 84.5252 152.761 84.5252 152.489C84.5252 152.214 84.7462 151.996 85.0252 151.996C85.3078 151.996 85.5288 152.214 85.5288 152.489C85.5288 152.761 85.3078 152.978 85.0252 152.978ZM89.6192 154.851H88.7678C88.6953 154.442 88.4091 154.134 87.9272 154.134C87.3584 154.134 86.9925 154.612 86.9925 155.402C86.9925 156.206 87.3621 156.67 87.9345 156.67C88.391 156.67 88.6881 156.409 88.7714 155.975H89.6228C89.5504 156.833 88.8873 157.398 87.9236 157.398C86.8005 157.398 86.0759 156.648 86.0759 155.402C86.0759 154.174 86.8005 153.402 87.9164 153.402C88.9308 153.402 89.5576 154.043 89.6192 154.851ZM90.0938 154.583C90.0938 153.88 90.7133 153.402 91.6481 153.402C92.5502 153.402 93.1625 153.888 93.1842 154.598H92.3437C92.3147 154.268 92.0502 154.065 91.63 154.065C91.2314 154.065 90.9706 154.254 90.9706 154.533C90.9706 154.75 91.1445 154.895 91.5213 154.985L92.206 155.138C92.9741 155.319 93.2748 155.616 93.2748 156.185C93.2748 156.909 92.6046 157.398 91.6336 157.398C90.6699 157.398 90.0576 156.92 89.996 156.192H90.8836C90.938 156.543 91.2097 156.739 91.6662 156.739C92.1046 156.739 92.3763 156.561 92.3763 156.275C92.3763 156.051 92.235 155.931 91.8618 155.837L91.1626 155.674C90.4525 155.507 90.0938 155.138 90.0938 154.583Z" fill="#0A265F"/>
<path d="M148.451 152.031C148.619 151.863 148.891 151.863 149.059 152.031L151.333 154.306L153.608 152.031C153.776 151.863 154.048 151.863 154.216 152.031C154.383 152.199 154.383 152.471 154.216 152.639L151.941 154.913L154.216 157.188C154.383 157.356 154.383 157.628 154.216 157.796C154.048 157.963 153.776 157.963 153.608 157.796L151.333 155.521L149.059 157.796C148.891 157.963 148.619 157.963 148.451 157.796C148.283 157.628 148.283 157.356 148.451 157.188L150.726 154.913L148.451 152.639C148.283 152.471 148.283 152.199 148.451 152.031Z" fill="#D40D00"/>
<rect width="90.2902" height="23.4123" transform="translate(211.655 143.029)" fill="#0A265F"/>
<g clip-path="url(#clip4_677_2083)">
<path d="M259.825 152.935L259.065 152.173C259.039 152.147 259.005 152.133 258.968 152.133C258.932 152.133 258.898 152.147 258.872 152.173L255.66 155.387C255.635 155.412 255.6 155.427 255.564 155.427C255.528 155.427 255.493 155.412 255.467 155.387L254.707 154.624C254.681 154.598 254.647 154.584 254.611 154.584C254.574 154.584 254.54 154.598 254.514 154.624L253.754 155.387C253.701 155.44 253.701 155.526 253.754 155.579L255.467 157.293C255.493 157.319 255.528 157.333 255.564 157.333C255.6 157.333 255.635 157.319 255.66 157.293L259.825 153.126C259.877 153.073 259.877 152.988 259.825 152.935Z" fill="#0A265F"/>
</g>
<path d="M260.481 151.875C260.658 152.033 260.674 152.304 260.516 152.482L255.932 157.639C255.851 157.73 255.734 157.783 255.611 157.783C255.489 157.783 255.372 157.73 255.29 157.639L252.998 155.06C252.841 154.883 252.857 154.611 253.034 154.454C253.211 154.296 253.483 154.312 253.641 154.489L255.611 156.706L259.874 151.911C260.032 151.733 260.303 151.717 260.481 151.875Z" fill="#49CCF9"/>
<path d="M8.29699 180.797C7.09777 180.797 6.30796 180.231 6.24637 179.293L6.24274 179.239H7.13763L7.14487 179.282C7.21371 179.731 7.67383 180.01 8.3296 180.01C8.98899 180.01 9.40201 179.717 9.40201 179.268V179.264C9.40201 178.873 9.13028 178.663 8.4564 178.521L7.89484 178.405C6.8659 178.192 6.35868 177.713 6.35868 176.934V176.931C6.3623 176.011 7.17023 175.387 8.29699 175.387C9.43824 175.387 10.1846 175.989 10.2389 176.884L10.2426 176.945H9.34767L9.34042 176.902C9.27883 176.445 8.87667 176.174 8.28975 176.174C7.67746 176.177 7.29704 176.464 7.29704 176.88V176.884C7.29704 177.253 7.58326 177.471 8.21366 177.601L8.77885 177.717C9.86576 177.942 10.3404 178.384 10.3404 179.199V179.203C10.3404 180.177 9.57229 180.797 8.29699 180.797ZM10.949 180.706V176.866H11.8512V177.482H11.8693C12.0323 177.061 12.4272 176.786 12.9345 176.786C13.4707 176.786 13.8583 177.069 13.9996 177.561H14.0214C14.2061 177.083 14.6626 176.786 15.217 176.786C15.9742 176.786 16.4705 177.3 16.4705 178.068V180.706H15.5684V178.293C15.5684 177.819 15.322 177.547 14.88 177.547C14.4452 177.547 14.1482 177.869 14.1482 178.333V180.706H13.2714V178.246C13.2714 177.815 13.0105 177.547 12.5903 177.547C12.1555 177.547 11.8512 177.887 11.8512 178.355V180.706H10.949ZM18.3291 180.771C17.561 180.771 17.043 180.297 17.043 179.612V179.605C17.043 178.924 17.5719 178.514 18.503 178.456L19.5066 178.395V178.13C19.5066 177.742 19.253 177.507 18.7965 177.507C18.369 177.507 18.1081 177.706 18.0501 177.989L18.0429 178.021H17.206L17.2096 177.978C17.264 177.297 17.8545 176.786 18.8291 176.786C19.7892 176.786 20.4087 177.293 20.4087 178.065V180.706H19.5066V180.116H19.4849C19.2639 180.518 18.8363 180.771 18.3291 180.771ZM17.9415 179.576C17.9415 179.891 18.2023 180.083 18.5972 180.083C19.1153 180.083 19.5066 179.739 19.5066 179.282V178.992L18.6298 179.047C18.1842 179.076 17.9415 179.268 17.9415 179.572V179.576ZM21.137 180.706V176.866H22.0391V177.529H22.0572C22.1768 177.065 22.4956 176.786 22.9376 176.786C23.0499 176.786 23.155 176.804 23.2238 176.822V177.637C23.1477 177.608 23.0101 177.587 22.8579 177.587C22.347 177.587 22.0391 177.909 22.0391 178.478V180.706H21.137ZM25.2744 180.782C24.4701 180.782 24.0897 180.456 24.0897 179.666V177.561H23.5463V176.866H24.0897V175.891H25.0063V176.866H25.7201V177.561H25.0063V179.59C25.0063 179.967 25.173 180.087 25.5027 180.087C25.5896 180.087 25.6585 180.076 25.7201 180.072V180.75C25.615 180.764 25.4556 180.782 25.2744 180.782ZM30.1909 180.797C28.6873 180.797 27.7381 179.76 27.7381 178.09V178.087C27.7381 176.416 28.6909 175.387 30.1909 175.387C31.3937 175.387 32.2777 176.137 32.4154 177.203L32.419 177.239H31.5024L31.4843 177.17C31.3321 176.572 30.872 176.199 30.1909 176.199C29.2779 176.199 28.6946 176.927 28.6946 178.087V178.09C28.6946 179.253 29.2815 179.985 30.1909 179.985C30.8575 179.985 31.3249 179.626 31.4952 178.981L31.506 178.945H32.4226L32.4154 178.981C32.2814 180.054 31.3937 180.797 30.1909 180.797ZM34.7414 180.782C33.611 180.782 32.8828 180.029 32.8828 178.786V178.779C32.8828 177.547 33.6219 176.786 34.7378 176.786C35.8573 176.786 36.6 177.54 36.6 178.779V178.786C36.6 180.032 35.8681 180.782 34.7414 180.782ZM34.745 180.054C35.3138 180.054 35.6797 179.59 35.6797 178.786V178.779C35.6797 177.978 35.3102 177.518 34.7378 177.518C34.1762 177.518 33.803 177.982 33.803 178.779V178.786C33.803 179.594 34.1689 180.054 34.745 180.054ZM37.1797 180.706V176.866H38.0818V177.482H38.0999C38.2629 177.061 38.6579 176.786 39.1651 176.786C39.7013 176.786 40.0889 177.069 40.2302 177.561H40.252C40.4368 177.083 40.8933 176.786 41.4476 176.786C42.2048 176.786 42.7011 177.3 42.7011 178.068V180.706H41.799V178.293C41.799 177.819 41.5526 177.547 41.1106 177.547C40.6759 177.547 40.3788 177.869 40.3788 178.333V180.706H39.502V178.246C39.502 177.815 39.2412 177.547 38.8209 177.547C38.3861 177.547 38.0818 177.887 38.0818 178.355V180.706H37.1797ZM43.4257 181.974V176.866H44.3279V177.529H44.346C44.567 177.069 44.9873 176.786 45.538 176.786C46.5126 176.786 47.1285 177.547 47.1285 178.786V178.789C47.1285 180.021 46.5126 180.782 45.5488 180.782C45.0018 180.782 44.5634 180.507 44.346 180.058H44.3279V181.974H43.4257ZM45.2699 180.021C45.8459 180.021 46.2082 179.547 46.2082 178.789V178.786C46.2082 178.018 45.8459 177.547 45.2699 177.547C44.7119 177.547 44.3206 178.032 44.3206 178.786V178.789C44.3206 179.539 44.7119 180.021 45.2699 180.021ZM48.8422 180.771C48.0741 180.771 47.556 180.297 47.556 179.612V179.605C47.556 178.924 48.0849 178.514 49.0161 178.456L50.0196 178.395V178.13C50.0196 177.742 49.766 177.507 49.3095 177.507C48.882 177.507 48.6211 177.706 48.5632 177.989L48.5559 178.021H47.719L47.7226 177.978C47.777 177.297 48.3675 176.786 49.3421 176.786C50.3022 176.786 50.9218 177.293 50.9218 178.065V180.706H50.0196V180.116H49.9979C49.7769 180.518 49.3494 180.771 48.8422 180.771ZM48.4545 179.576C48.4545 179.891 48.7153 180.083 49.1103 180.083C49.6283 180.083 50.0196 179.739 50.0196 179.282V178.992L49.1429 179.047C48.6972 179.076 48.4545 179.268 48.4545 179.572V179.576ZM51.65 180.706V176.866H52.5521V177.529H52.5702C52.6898 177.065 53.0086 176.786 53.4506 176.786C53.5629 176.786 53.668 176.804 53.7368 176.822V177.637C53.6608 177.608 53.5231 177.587 53.3709 177.587C52.8601 177.587 52.5521 177.909 52.5521 178.478V180.706H51.65ZM54.6788 176.315C54.3962 176.315 54.1752 176.09 54.1752 175.822C54.1752 175.547 54.3962 175.326 54.6788 175.326C54.9614 175.326 55.1788 175.547 55.1788 175.822C55.1788 176.09 54.9614 176.315 54.6788 176.315ZM54.226 180.706V176.866H55.1281V180.706H54.226ZM57.3961 180.782C56.3889 180.782 55.8128 180.304 55.7331 179.59L55.7295 179.558H56.6171L56.6244 179.59C56.6932 179.92 56.9432 180.116 57.3997 180.116C57.8381 180.116 58.1026 179.938 58.1026 179.655V179.652C58.1026 179.42 57.9685 179.289 57.57 179.199L56.9323 179.058C56.1969 178.895 55.8273 178.536 55.8273 177.967V177.963C55.8273 177.261 56.4396 176.786 57.3671 176.786C58.3236 176.786 58.8815 177.311 58.9141 177.974L58.9178 178.014H58.0772L58.0736 177.985C58.0337 177.677 57.7874 177.453 57.3671 177.453C56.9686 177.453 56.7186 177.637 56.7186 177.92V177.924C56.7186 178.145 56.8671 178.29 57.2657 178.38L57.9069 178.521C58.7004 178.699 59.0083 179.01 59.0083 179.568V179.572C59.0083 180.297 58.3381 180.782 57.3961 180.782ZM61.2836 180.782C60.1532 180.782 59.425 180.029 59.425 178.786V178.779C59.425 177.547 60.1641 176.786 61.28 176.786C62.3995 176.786 63.1422 177.54 63.1422 178.779V178.786C63.1422 180.032 62.4103 180.782 61.2836 180.782ZM61.2872 180.054C61.856 180.054 62.2219 179.59 62.2219 178.786V178.779C62.2219 177.978 61.8524 177.518 61.28 177.518C60.7184 177.518 60.3452 177.982 60.3452 178.779V178.786C60.3452 179.594 60.7111 180.054 61.2872 180.054ZM63.7219 180.706V176.866H64.624V177.467H64.6421C64.8414 177.054 65.2327 176.786 65.816 176.786C66.6601 176.786 67.142 177.329 67.142 178.221V180.706H66.2399V178.402C66.2399 177.855 65.9863 177.547 65.4718 177.547C64.9537 177.547 64.624 177.924 64.624 178.478V180.706H63.7219ZM69.4426 180.706V175.478H70.5223L72.1236 179.471H72.149L73.7504 175.478H74.83V180.706H73.9895V176.989H73.9605L72.4533 180.706H71.8193L70.3121 176.989H70.2868V180.706H69.4426ZM77.3517 180.782C76.1995 180.782 75.5039 180.018 75.5039 178.797V178.793C75.5039 177.583 76.2104 176.786 77.3082 176.786C78.406 176.786 79.0871 177.558 79.0871 178.717V179.007H76.3988C76.4133 179.681 76.7828 180.079 77.3698 180.079C77.819 180.079 78.1125 179.84 78.1994 179.583L78.2067 179.558H79.0509L79.04 179.597C78.9204 180.188 78.3552 180.782 77.3517 180.782ZM77.3191 177.492C76.8408 177.492 76.4821 177.815 76.4097 178.405H78.2103C78.1451 177.797 77.7973 177.492 77.3191 177.492ZM81.0979 180.782C80.2935 180.782 79.9131 180.456 79.9131 179.666V177.561H79.3697V176.866H79.9131V175.891H80.8298V176.866H81.5435V177.561H80.8298V179.59C80.8298 179.967 80.9964 180.087 81.3261 180.087C81.4131 180.087 81.4819 180.076 81.5435 180.072V180.75C81.4384 180.764 81.279 180.782 81.0979 180.782ZM82.163 180.706V176.866H83.0652V177.529H83.0833C83.2028 177.065 83.5217 176.786 83.9637 176.786C84.076 176.786 84.181 176.804 84.2499 176.822V177.637C84.1738 177.608 84.0361 177.587 83.884 177.587C83.3731 177.587 83.0652 177.909 83.0652 178.478V180.706H82.163ZM85.1919 176.315C84.9093 176.315 84.6883 176.09 84.6883 175.822C84.6883 175.547 84.9093 175.326 85.1919 175.326C85.4745 175.326 85.6918 175.547 85.6918 175.822C85.6918 176.09 85.4745 176.315 85.1919 176.315ZM84.739 180.706V176.866H85.6411V180.706H84.739ZM88.1048 180.782C86.9635 180.782 86.2498 180.014 86.2498 178.782V178.779C86.2498 177.554 86.9744 176.786 88.0939 176.786C89.1047 176.786 89.7351 177.427 89.7895 178.195L89.7931 178.224H88.9417L88.9344 178.192C88.8584 177.819 88.583 177.518 88.1048 177.518C87.536 177.518 87.17 178 87.17 178.786V178.789C87.17 179.59 87.5396 180.054 88.1084 180.054C88.5649 180.054 88.8547 179.782 88.9381 179.38L88.9453 179.347H89.7967L89.7931 179.373C89.7243 180.173 89.0757 180.782 88.1048 180.782ZM91.8365 180.782C90.8293 180.782 90.2532 180.304 90.1735 179.59L90.1699 179.558H91.0575L91.0648 179.59C91.1336 179.92 91.3836 180.116 91.8401 180.116C92.2785 180.116 92.543 179.938 92.543 179.655V179.652C92.543 179.42 92.4089 179.289 92.0104 179.199L91.3727 179.058C90.6373 178.895 90.2677 178.536 90.2677 177.967V177.963C90.2677 177.261 90.88 176.786 91.8075 176.786C92.764 176.786 93.3219 177.311 93.3545 177.974L93.3581 178.014H92.5176L92.514 177.985C92.4741 177.677 92.2278 177.453 91.8075 177.453C91.409 177.453 91.159 177.637 91.159 177.92V177.924C91.159 178.145 91.3075 178.29 91.706 178.38L92.3473 178.521C93.1408 178.699 93.4487 179.01 93.4487 179.568V179.572C93.4487 180.297 92.7785 180.782 91.8365 180.782Z" fill="#0A265F"/>
<path d="M148.451 175.273C148.619 175.106 148.891 175.106 149.059 175.273L151.333 177.548L153.608 175.273C153.776 175.106 154.048 175.106 154.216 175.273C154.383 175.441 154.383 175.713 154.216 175.881L151.941 178.156L154.216 180.43C154.383 180.598 154.383 180.87 154.216 181.038C154.048 181.206 153.776 181.206 153.608 181.038L151.333 178.763L149.059 181.038C148.891 181.206 148.619 181.206 148.451 181.038C148.283 180.87 148.283 180.598 148.451 180.43L150.726 178.156L148.451 175.881C148.283 175.713 148.283 175.441 148.451 175.273Z" fill="#D40D00"/>
<rect width="90.2902" height="23.4123" transform="translate(211.655 166.438)" fill="#0A265F"/>
<g clip-path="url(#clip5_677_2083)">
<path d="M259.825 176.349L259.065 175.586C259.039 175.56 259.005 175.546 258.968 175.546C258.932 175.546 258.898 175.56 258.872 175.586L255.66 178.8C255.635 178.825 255.6 178.84 255.564 178.84C255.528 178.84 255.493 178.825 255.467 178.8L254.707 178.037C254.681 178.012 254.647 177.997 254.611 177.997C254.574 177.997 254.54 178.012 254.514 178.037L253.754 178.8C253.701 178.853 253.701 178.939 253.754 178.992L255.467 180.706C255.493 180.732 255.528 180.746 255.564 180.746C255.6 180.746 255.635 180.732 255.66 180.706L259.825 176.539C259.877 176.486 259.877 176.401 259.825 176.349Z" fill="#0A265F"/>
</g>
<path d="M260.481 175.48C260.658 175.637 260.674 175.909 260.516 176.086L255.932 181.243C255.851 181.335 255.734 181.387 255.611 181.387C255.489 181.387 255.372 181.335 255.29 181.243L252.998 178.665C252.841 178.487 252.857 178.216 253.034 178.058C253.211 177.9 253.483 177.916 253.641 178.094L255.611 180.311L259.874 175.515C260.032 175.338 260.303 175.322 260.481 175.48Z" fill="#49CCF9"/>
<path d="M6.24637 202.844H7.15212C7.21009 203.325 7.69195 203.641 8.3296 203.641C8.96 203.641 9.39839 203.329 9.39839 202.894C9.39839 202.517 9.13028 202.3 8.4709 202.144L7.79339 201.985C6.82967 201.764 6.37317 201.3 6.37317 200.554C6.37317 199.626 7.1811 198.999 8.31873 198.999C9.47085 198.999 10.2317 199.623 10.2534 200.543H9.36216C9.31868 200.054 8.90928 199.76 8.31148 199.76C7.72093 199.76 7.3224 200.05 7.3224 200.485C7.3224 200.833 7.58688 201.036 8.22815 201.188L8.82957 201.325C9.89112 201.568 10.3404 202.007 10.3404 202.786C10.3404 203.778 9.54331 204.401 8.27888 204.401C7.07604 204.401 6.28622 203.807 6.24637 202.844ZM10.9563 204.314V200.474H11.8222V201.141H11.8403C12.007 200.695 12.4127 200.402 12.9345 200.402C13.4779 200.402 13.8656 200.681 14.0069 201.173H14.0286C14.2134 200.699 14.6699 200.402 15.2242 200.402C15.9814 200.402 16.4778 200.912 16.4778 201.681V204.314H15.5756V201.902C15.5756 201.431 15.3293 201.162 14.8873 201.162C14.4525 201.162 14.1554 201.481 14.1554 201.941V204.314H13.2786V201.854C13.2786 201.427 13.0178 201.162 12.5975 201.162C12.1627 201.162 11.8584 201.499 11.8584 201.963V204.314H10.9563ZM18.6045 203.695C19.1153 203.695 19.5247 203.354 19.5247 202.891V202.597L18.6371 202.651C18.2023 202.68 17.9523 202.876 17.9523 203.18C17.9523 203.496 18.2132 203.695 18.6045 203.695ZM18.3327 204.376C17.59 204.376 17.0502 203.909 17.0502 203.217C17.0502 202.536 17.5755 202.126 18.5103 202.068L19.5247 202.01V201.735C19.5247 201.333 19.253 201.101 18.8074 201.101C18.3798 201.101 18.1081 201.307 18.0501 201.626H17.2132C17.2531 200.909 17.8654 200.394 18.8436 200.394C19.7964 200.394 20.416 200.898 20.416 201.67V204.314H19.5465V203.702H19.5283C19.3073 204.119 18.8255 204.376 18.3327 204.376ZM21.1442 204.314V200.474H22.0101V201.144H22.0282C22.1586 200.677 22.4956 200.409 22.9485 200.409C23.0644 200.409 23.1658 200.431 23.2311 200.445V201.26C23.155 201.231 23.0173 201.21 22.8651 201.21C22.3543 201.21 22.0463 201.539 22.0463 202.079V204.314H21.1442ZM23.9448 199.576H24.8469V200.474H25.5715V201.17H24.8469V203.166C24.8469 203.481 24.9918 203.626 25.3107 203.626C25.394 203.626 25.5099 203.619 25.5679 203.608V204.296C25.4701 204.318 25.2926 204.333 25.1005 204.333C24.2709 204.333 23.9448 204.039 23.9448 203.293V201.17H23.3941V200.474H23.9448V199.576ZM30.017 204.401C28.5243 204.401 27.5859 203.376 27.5859 201.699C27.5859 200.032 28.5315 198.999 30.017 198.999C31.2307 198.999 32.1545 199.757 32.2705 200.88H31.3502C31.2271 200.224 30.6945 199.793 30.017 199.793C29.1185 199.793 28.5424 200.532 28.5424 201.699C28.5424 202.872 29.1148 203.608 30.0206 203.608C30.7126 203.608 31.2089 203.235 31.3539 202.604H32.2705C32.1074 203.724 31.2524 204.401 30.017 204.401ZM34.5892 204.391C33.4625 204.391 32.7306 203.641 32.7306 202.394C32.7306 201.155 33.4697 200.394 34.5892 200.394C35.7087 200.394 36.4478 201.152 36.4478 202.394C36.4478 203.641 35.716 204.391 34.5892 204.391ZM34.5892 203.677C35.1616 203.677 35.5312 203.213 35.5312 202.394C35.5312 201.579 35.1616 201.112 34.5892 201.112C34.0204 201.112 33.6472 201.579 33.6472 202.394C33.6472 203.213 34.0168 203.677 34.5892 203.677ZM37.0275 204.314V200.474H37.8934V201.141H37.9115C38.0782 200.695 38.484 200.402 39.0057 200.402C39.5491 200.402 39.9368 200.681 40.0781 201.173H40.0998C40.2846 200.699 40.7411 200.402 41.2954 200.402C42.0526 200.402 42.549 200.912 42.549 201.681V204.314H41.6468V201.902C41.6468 201.431 41.4005 201.162 40.9585 201.162C40.5237 201.162 40.2266 201.481 40.2266 201.941V204.314H39.3499V201.854C39.3499 201.427 39.089 201.162 38.6687 201.162C38.234 201.162 37.9296 201.499 37.9296 201.963V204.314H37.0275ZM45.3822 200.409C46.3568 200.409 46.9763 201.166 46.9763 202.394C46.9763 203.619 46.3604 204.376 45.3967 204.376C44.8387 204.376 44.404 204.108 44.1938 203.677H44.1757V205.579H43.2736V200.474H44.154V201.137H44.1721C44.3895 200.691 44.8242 200.409 45.3822 200.409ZM45.1068 203.637C45.6901 203.637 46.0524 203.155 46.0524 202.394C46.0524 201.637 45.6901 201.152 45.1068 201.152C44.5453 201.152 44.1721 201.648 44.1685 202.394C44.1721 203.148 44.5453 203.637 45.1068 203.637ZM48.9581 203.695C49.4689 203.695 49.8783 203.354 49.8783 202.891V202.597L48.9907 202.651C48.5559 202.68 48.3059 202.876 48.3059 203.18C48.3059 203.496 48.5668 203.695 48.9581 203.695ZM48.6864 204.376C47.9436 204.376 47.4038 203.909 47.4038 203.217C47.4038 202.536 47.9292 202.126 48.8639 202.068L49.8783 202.01V201.735C49.8783 201.333 49.6066 201.101 49.161 201.101C48.7335 201.101 48.4617 201.307 48.4038 201.626H47.5669C47.6067 200.909 48.219 200.394 49.1972 200.394C50.1501 200.394 50.7696 200.898 50.7696 201.67V204.314H49.9001V203.702H49.882C49.661 204.119 49.1791 204.376 48.6864 204.376ZM51.4978 204.314V200.474H52.3637V201.144H52.3818C52.5123 200.677 52.8492 200.409 53.3021 200.409C53.418 200.409 53.5195 200.431 53.5847 200.445V201.26C53.5086 201.231 53.3709 201.21 53.2188 201.21C52.7079 201.21 52.4 201.539 52.4 202.079V204.314H51.4978ZM54.0702 204.314V200.474H54.9723V204.314H54.0702ZM54.5194 199.97C54.2404 199.97 54.0194 199.753 54.0194 199.481C54.0194 199.206 54.2404 198.989 54.5194 198.989C54.802 198.989 55.023 199.206 55.023 199.481C55.023 199.753 54.802 199.97 54.5194 199.97ZM55.6607 201.575C55.6607 200.873 56.2802 200.394 57.2149 200.394C58.1171 200.394 58.7294 200.88 58.7511 201.59H57.9106C57.8816 201.26 57.6171 201.057 57.1968 201.057C56.7983 201.057 56.5374 201.246 56.5374 201.525C56.5374 201.742 56.7113 201.887 57.0881 201.978L57.7729 202.13C58.541 202.311 58.8417 202.608 58.8417 203.177C58.8417 203.901 58.1714 204.391 57.2005 204.391C56.2367 204.391 55.6244 203.912 55.5628 203.184H56.4505C56.5048 203.536 56.7766 203.731 57.2331 203.731C57.6714 203.731 57.9432 203.554 57.9432 203.267C57.9432 203.043 57.8019 202.923 57.4287 202.829L56.7295 202.666C56.0193 202.499 55.6607 202.13 55.6607 201.575ZM61.1169 204.391C59.9902 204.391 59.2583 203.641 59.2583 202.394C59.2583 201.155 59.9974 200.394 61.1169 200.394C62.2364 200.394 62.9755 201.152 62.9755 202.394C62.9755 203.641 62.2437 204.391 61.1169 204.391ZM61.1169 203.677C61.6894 203.677 62.0589 203.213 62.0589 202.394C62.0589 201.579 61.6894 201.112 61.1169 201.112C60.5481 201.112 60.1749 201.579 60.1749 202.394C60.1749 203.213 60.5445 203.677 61.1169 203.677ZM63.5552 204.314V200.474H64.4211V201.133H64.4392C64.6457 200.677 65.0551 200.402 65.6457 200.402C66.4935 200.402 66.9753 200.945 66.9753 201.833V204.314H66.0732V202.014C66.0732 201.47 65.8196 201.166 65.3051 201.166C64.787 201.166 64.4573 201.539 64.4573 202.09V204.314H63.5552ZM74.6706 204.314H73.8301V200.604H73.8047L72.2939 204.271H71.6563L70.1455 200.604H70.1201V204.314H69.276V199.086H70.3592L71.9606 203.032H71.9896L73.591 199.086H74.6706V204.314ZM77.1596 201.094C76.6524 201.094 76.2865 201.481 76.2503 202.017H78.0437C78.0255 201.474 77.6777 201.094 77.1596 201.094ZM78.0473 203.166H78.8914C78.7755 203.891 78.1016 204.391 77.1922 204.391C76.0401 204.391 75.3445 203.633 75.3445 202.409C75.3445 201.195 76.0474 200.394 77.156 200.394C78.2465 200.394 78.9277 201.152 78.9277 202.318V202.612H76.243V202.666C76.243 203.282 76.6198 203.695 77.2104 203.695C77.6306 203.695 77.9495 203.485 78.0473 203.166ZM79.761 199.576H80.6631V200.474H81.3877V201.17H80.6631V203.166C80.6631 203.481 80.808 203.626 81.1268 203.626C81.2102 203.626 81.3261 203.619 81.3841 203.608V204.296C81.2863 204.318 81.1087 204.333 80.9167 204.333C80.087 204.333 79.761 204.039 79.761 203.293V201.17H79.2103V200.474H79.761V199.576ZM82.0036 204.314V200.474H82.8695V201.144H82.8876C83.0181 200.677 83.355 200.409 83.8079 200.409C83.9238 200.409 84.0253 200.431 84.0905 200.445V201.26C84.0144 201.231 83.8767 201.21 83.7245 201.21C83.2137 201.21 82.9057 201.539 82.9057 202.079V204.314H82.0036ZM84.5759 204.314V200.474H85.4781V204.314H84.5759ZM85.0252 199.97C84.7462 199.97 84.5252 199.753 84.5252 199.481C84.5252 199.206 84.7462 198.989 85.0252 198.989C85.3078 198.989 85.5288 199.206 85.5288 199.481C85.5288 199.753 85.3078 199.97 85.0252 199.97ZM89.6192 201.844H88.7678C88.6953 201.434 88.4091 201.126 87.9272 201.126C87.3584 201.126 86.9925 201.604 86.9925 202.394C86.9925 203.199 87.3621 203.662 87.9345 203.662C88.391 203.662 88.6881 203.401 88.7714 202.967H89.6228C89.5504 203.825 88.8873 204.391 87.9236 204.391C86.8005 204.391 86.0759 203.641 86.0759 202.394C86.0759 201.166 86.8005 200.394 87.9164 200.394C88.9308 200.394 89.5576 201.036 89.6192 201.844ZM90.0938 201.575C90.0938 200.873 90.7133 200.394 91.6481 200.394C92.5502 200.394 93.1625 200.88 93.1842 201.59H92.3437C92.3147 201.26 92.0502 201.057 91.63 201.057C91.2314 201.057 90.9706 201.246 90.9706 201.525C90.9706 201.742 91.1445 201.887 91.5213 201.978L92.206 202.13C92.9741 202.311 93.2748 202.608 93.2748 203.177C93.2748 203.901 92.6046 204.391 91.6336 204.391C90.6699 204.391 90.0576 203.912 89.996 203.184H90.8836C90.938 203.536 91.2097 203.731 91.6662 203.731C92.1046 203.731 92.3763 203.554 92.3763 203.267C92.3763 203.043 92.235 202.923 91.8618 202.829L91.1626 202.666C90.4525 202.499 90.0938 202.13 90.0938 201.575Z" fill="#0A265F"/>
<path d="M148.451 198.516C148.619 198.348 148.891 198.348 149.059 198.516L151.333 200.79L153.608 198.516C153.776 198.348 154.048 198.348 154.216 198.516C154.383 198.683 154.383 198.955 154.216 199.123L151.941 201.398L154.216 203.672C154.383 203.84 154.383 204.112 154.216 204.28C154.048 204.448 153.776 204.448 153.608 204.28L151.333 202.005L149.059 204.28C148.891 204.448 148.619 204.448 148.451 204.28C148.283 204.112 148.283 203.84 148.451 203.672L150.726 201.398L148.451 199.123C148.283 198.955 148.283 198.683 148.451 198.516Z" fill="#D40D00"/>
<rect width="90.2902" height="23.4123" transform="translate(211.655 189.85)" fill="#0A265F"/>
<path d="M260.481 198.359C260.658 198.516 260.674 198.788 260.516 198.965L255.932 204.122C255.851 204.214 255.734 204.266 255.611 204.266C255.489 204.266 255.372 204.214 255.29 204.122L252.998 201.544C252.841 201.366 252.857 201.095 253.034 200.937C253.211 200.779 253.483 200.795 253.641 200.973L255.611 203.19L259.874 198.394C260.032 198.217 260.303 198.201 260.481 198.359Z" fill="#49CCF9"/>
<path d="M6.24637 226.228H7.15212C7.21009 226.71 7.69195 227.025 8.3296 227.025C8.96 227.025 9.39839 226.714 9.39839 226.279C9.39839 225.902 9.13028 225.685 8.4709 225.529L7.79339 225.37C6.82967 225.149 6.37317 224.685 6.37317 223.939C6.37317 223.011 7.1811 222.384 8.31873 222.384C9.47085 222.384 10.2317 223.007 10.2534 223.928H9.36216C9.31868 223.439 8.90928 223.145 8.31148 223.145C7.72093 223.145 7.3224 223.435 7.3224 223.87C7.3224 224.218 7.58688 224.42 8.22815 224.573L8.82957 224.71C9.89112 224.953 10.3404 225.391 10.3404 226.17C10.3404 227.163 9.54331 227.786 8.27888 227.786C7.07604 227.786 6.28622 227.192 6.24637 226.228ZM10.9563 227.699V223.859H11.8222V224.525H11.8403C12.007 224.08 12.4127 223.786 12.9345 223.786C13.4779 223.786 13.8656 224.065 14.0069 224.558H14.0286C14.2134 224.083 14.6699 223.786 15.2242 223.786C15.9814 223.786 16.4778 224.297 16.4778 225.065V227.699H15.5756V225.286C15.5756 224.815 15.3293 224.547 14.8873 224.547C14.4525 224.547 14.1554 224.866 14.1554 225.326V227.699H13.2786V225.239C13.2786 224.812 13.0178 224.547 12.5975 224.547C12.1627 224.547 11.8584 224.884 11.8584 225.348V227.699H10.9563ZM18.6045 227.08C19.1153 227.08 19.5247 226.739 19.5247 226.275V225.982L18.6371 226.036C18.2023 226.065 17.9523 226.261 17.9523 226.565C17.9523 226.88 18.2132 227.08 18.6045 227.08ZM18.3327 227.761C17.59 227.761 17.0502 227.293 17.0502 226.601C17.0502 225.92 17.5755 225.511 18.5103 225.453L19.5247 225.395V225.12C19.5247 224.717 19.253 224.486 18.8074 224.486C18.3798 224.486 18.1081 224.692 18.0501 225.011H17.2132C17.2531 224.294 17.8654 223.779 18.8436 223.779C19.7964 223.779 20.416 224.283 20.416 225.054V227.699H19.5465V227.087H19.5283C19.3073 227.504 18.8255 227.761 18.3327 227.761ZM21.1442 227.699V223.859H22.0101V224.529H22.0282C22.1586 224.062 22.4956 223.794 22.9485 223.794C23.0644 223.794 23.1658 223.815 23.2311 223.83V224.645C23.155 224.616 23.0173 224.594 22.8651 224.594C22.3543 224.594 22.0463 224.924 22.0463 225.464V227.699H21.1442ZM23.9448 222.96H24.8469V223.859H25.5715V224.554H24.8469V226.551C24.8469 226.866 24.9918 227.011 25.3107 227.011C25.394 227.011 25.5099 227.004 25.5679 226.993V227.681C25.4701 227.703 25.2926 227.717 25.1005 227.717C24.2709 227.717 23.9448 227.424 23.9448 226.678V224.554H23.3941V223.859H23.9448V222.96ZM30.017 227.786C28.5243 227.786 27.5859 226.761 27.5859 225.083C27.5859 223.417 28.5315 222.384 30.017 222.384C31.2307 222.384 32.1545 223.141 32.2705 224.265H31.3502C31.2271 223.609 30.6945 223.178 30.017 223.178C29.1185 223.178 28.5424 223.917 28.5424 225.083C28.5424 226.257 29.1148 226.993 30.0206 226.993C30.7126 226.993 31.2089 226.62 31.3539 225.989H32.2705C32.1074 227.109 31.2524 227.786 30.017 227.786ZM34.5892 227.775C33.4625 227.775 32.7306 227.025 32.7306 225.779C32.7306 224.54 33.4697 223.779 34.5892 223.779C35.7087 223.779 36.4478 224.536 36.4478 225.779C36.4478 227.025 35.716 227.775 34.5892 227.775ZM34.5892 227.062C35.1616 227.062 35.5312 226.598 35.5312 225.779C35.5312 224.964 35.1616 224.496 34.5892 224.496C34.0204 224.496 33.6472 224.964 33.6472 225.779C33.6472 226.598 34.0168 227.062 34.5892 227.062ZM37.0275 227.699V223.859H37.8934V224.525H37.9115C38.0782 224.08 38.484 223.786 39.0057 223.786C39.5491 223.786 39.9368 224.065 40.0781 224.558H40.0998C40.2846 224.083 40.7411 223.786 41.2954 223.786C42.0526 223.786 42.549 224.297 42.549 225.065V227.699H41.6468V225.286C41.6468 224.815 41.4005 224.547 40.9585 224.547C40.5237 224.547 40.2266 224.866 40.2266 225.326V227.699H39.3499V225.239C39.3499 224.812 39.089 224.547 38.6687 224.547C38.234 224.547 37.9296 224.884 37.9296 225.348V227.699H37.0275ZM45.3822 223.794C46.3568 223.794 46.9763 224.551 46.9763 225.779C46.9763 227.004 46.3604 227.761 45.3967 227.761C44.8387 227.761 44.404 227.493 44.1938 227.062H44.1757V228.964H43.2736V223.859H44.154V224.522H44.1721C44.3895 224.076 44.8242 223.794 45.3822 223.794ZM45.1068 227.022C45.6901 227.022 46.0524 226.54 46.0524 225.779C46.0524 225.022 45.6901 224.536 45.1068 224.536C44.5453 224.536 44.1721 225.033 44.1685 225.779C44.1721 226.533 44.5453 227.022 45.1068 227.022ZM48.9581 227.08C49.4689 227.08 49.8783 226.739 49.8783 226.275V225.982L48.9907 226.036C48.5559 226.065 48.3059 226.261 48.3059 226.565C48.3059 226.88 48.5668 227.08 48.9581 227.08ZM48.6864 227.761C47.9436 227.761 47.4038 227.293 47.4038 226.601C47.4038 225.92 47.9292 225.511 48.8639 225.453L49.8783 225.395V225.12C49.8783 224.717 49.6066 224.486 49.161 224.486C48.7335 224.486 48.4617 224.692 48.4038 225.011H47.5669C47.6067 224.294 48.219 223.779 49.1972 223.779C50.1501 223.779 50.7696 224.283 50.7696 225.054V227.699H49.9001V227.087H49.882C49.661 227.504 49.1791 227.761 48.6864 227.761ZM51.4978 227.699V223.859H52.3637V224.529H52.3818C52.5123 224.062 52.8492 223.794 53.3021 223.794C53.418 223.794 53.5195 223.815 53.5847 223.83V224.645C53.5086 224.616 53.3709 224.594 53.2188 224.594C52.7079 224.594 52.4 224.924 52.4 225.464V227.699H51.4978ZM54.0702 227.699V223.859H54.9723V227.699H54.0702ZM54.5194 223.355C54.2404 223.355 54.0194 223.138 54.0194 222.866C54.0194 222.591 54.2404 222.373 54.5194 222.373C54.802 222.373 55.023 222.591 55.023 222.866C55.023 223.138 54.802 223.355 54.5194 223.355ZM55.6607 224.96C55.6607 224.257 56.2802 223.779 57.2149 223.779C58.1171 223.779 58.7294 224.265 58.7511 224.975H57.9106C57.8816 224.645 57.6171 224.442 57.1968 224.442C56.7983 224.442 56.5374 224.631 56.5374 224.909C56.5374 225.127 56.7113 225.272 57.0881 225.362L57.7729 225.515C58.541 225.696 58.8417 225.993 58.8417 226.562C58.8417 227.286 58.1714 227.775 57.2005 227.775C56.2367 227.775 55.6244 227.297 55.5628 226.569H56.4505C56.5048 226.92 56.7766 227.116 57.2331 227.116C57.6714 227.116 57.9432 226.938 57.9432 226.652C57.9432 226.428 57.8019 226.308 57.4287 226.214L56.7295 226.051C56.0193 225.884 55.6607 225.515 55.6607 224.96ZM61.1169 227.775C59.9902 227.775 59.2583 227.025 59.2583 225.779C59.2583 224.54 59.9974 223.779 61.1169 223.779C62.2364 223.779 62.9755 224.536 62.9755 225.779C62.9755 227.025 62.2437 227.775 61.1169 227.775ZM61.1169 227.062C61.6894 227.062 62.0589 226.598 62.0589 225.779C62.0589 224.964 61.6894 224.496 61.1169 224.496C60.5481 224.496 60.1749 224.964 60.1749 225.779C60.1749 226.598 60.5445 227.062 61.1169 227.062ZM63.5552 227.699V223.859H64.4211V224.518H64.4392C64.6457 224.062 65.0551 223.786 65.6457 223.786C66.4935 223.786 66.9753 224.33 66.9753 225.217V227.699H66.0732V225.399C66.0732 224.855 65.8196 224.551 65.3051 224.551C64.787 224.551 64.4573 224.924 64.4573 225.475V227.699H63.5552ZM74.6706 227.699H73.8301V223.989H73.8047L72.2939 227.656H71.6563L70.1455 223.989H70.1201V227.699H69.276V222.471H70.3592L71.9606 226.417H71.9896L73.591 222.471H74.6706V227.699ZM77.1596 224.478C76.6524 224.478 76.2865 224.866 76.2503 225.402H78.0437C78.0255 224.859 77.6777 224.478 77.1596 224.478ZM78.0473 226.551H78.8914C78.7755 227.275 78.1016 227.775 77.1922 227.775C76.0401 227.775 75.3445 227.018 75.3445 225.794C75.3445 224.58 76.0474 223.779 77.156 223.779C78.2465 223.779 78.9277 224.536 78.9277 225.703V225.996H76.243V226.051C76.243 226.667 76.6198 227.08 77.2104 227.08C77.6306 227.08 77.9495 226.87 78.0473 226.551ZM79.761 222.96H80.6631V223.859H81.3877V224.554H80.6631V226.551C80.6631 226.866 80.808 227.011 81.1268 227.011C81.2102 227.011 81.3261 227.004 81.3841 226.993V227.681C81.2863 227.703 81.1087 227.717 80.9167 227.717C80.087 227.717 79.761 227.424 79.761 226.678V224.554H79.2103V223.859H79.761V222.96ZM82.0036 227.699V223.859H82.8695V224.529H82.8876C83.0181 224.062 83.355 223.794 83.8079 223.794C83.9238 223.794 84.0253 223.815 84.0905 223.83V224.645C84.0144 224.616 83.8767 224.594 83.7245 224.594C83.2137 224.594 82.9057 224.924 82.9057 225.464V227.699H82.0036ZM84.5759 227.699V223.859H85.4781V227.699H84.5759ZM85.0252 223.355C84.7462 223.355 84.5252 223.138 84.5252 222.866C84.5252 222.591 84.7462 222.373 85.0252 222.373C85.3078 222.373 85.5288 222.591 85.5288 222.866C85.5288 223.138 85.3078 223.355 85.0252 223.355ZM89.6192 225.228H88.7678C88.6953 224.819 88.4091 224.511 87.9272 224.511C87.3584 224.511 86.9925 224.989 86.9925 225.779C86.9925 226.583 87.3621 227.047 87.9345 227.047C88.391 227.047 88.6881 226.786 88.7714 226.351H89.6228C89.5504 227.21 88.8873 227.775 87.9236 227.775C86.8005 227.775 86.0759 227.025 86.0759 225.779C86.0759 224.551 86.8005 223.779 87.9164 223.779C88.9308 223.779 89.5576 224.42 89.6192 225.228ZM90.0938 224.96C90.0938 224.257 90.7133 223.779 91.6481 223.779C92.5502 223.779 93.1625 224.265 93.1842 224.975H92.3437C92.3147 224.645 92.0502 224.442 91.63 224.442C91.2314 224.442 90.9706 224.631 90.9706 224.909C90.9706 225.127 91.1445 225.272 91.5213 225.362L92.206 225.515C92.9741 225.696 93.2748 225.993 93.2748 226.562C93.2748 227.286 92.6046 227.775 91.6336 227.775C90.6699 227.775 90.0576 227.297 89.996 226.569H90.8836C90.938 226.92 91.2097 227.116 91.6662 227.116C92.1046 227.116 92.3763 226.938 92.3763 226.652C92.3763 226.428 92.235 226.308 91.8618 226.214L91.1626 226.051C90.4525 225.884 90.0938 225.515 90.0938 224.96Z" fill="#0A265F"/>
<path d="M155.13 222.156C155.307 222.314 155.323 222.586 155.166 222.763L150.582 227.92C150.5 228.012 150.383 228.064 150.261 228.064C150.138 228.064 150.021 228.012 149.939 227.92L147.648 225.341C147.49 225.164 147.506 224.892 147.683 224.735C147.861 224.577 148.132 224.593 148.29 224.77L150.261 226.987L154.523 222.192C154.681 222.015 154.953 221.999 155.13 222.156Z" fill="#0A265F"/>
<path d="M211.655 213.263H301.945V231.675C301.945 234.436 299.706 236.675 296.945 236.675H216.655C213.893 236.675 211.655 234.436 211.655 231.675V213.263Z" fill="#0A265F"/>
<g clip-path="url(#clip6_677_2083)">
<path d="M259.825 223.173L259.065 222.41C259.039 222.385 259.005 222.37 258.968 222.37C258.932 222.37 258.898 222.385 258.872 222.41L255.66 225.624C255.635 225.65 255.6 225.664 255.564 225.664C255.528 225.664 255.493 225.65 255.467 225.624L254.707 224.861C254.681 224.836 254.647 224.821 254.611 224.821C254.574 224.821 254.54 224.836 254.514 224.861L253.754 225.624C253.701 225.677 253.701 225.763 253.754 225.817L255.467 227.531C255.493 227.556 255.528 227.571 255.564 227.571C255.6 227.571 255.635 227.556 255.66 227.531L259.825 223.363C259.877 223.31 259.877 223.226 259.825 223.173Z" fill="#0A265F"/>
</g>
<path d="M260.481 222.156C260.658 222.314 260.674 222.586 260.516 222.763L255.932 227.92C255.851 228.012 255.734 228.064 255.611 228.064C255.489 228.064 255.372 228.012 255.29 227.92L252.998 225.341C252.841 225.164 252.857 224.892 253.034 224.735C253.211 224.577 253.483 224.593 253.641 224.77L255.611 226.987L259.874 222.192C260.032 222.015 260.303 221.999 260.481 222.156Z" fill="#49CCF9"/>
<defs>
<clipPath id="clip0_677_2083">
<rect width="6.17356" height="5.44726" fill="white" transform="translate(253.714 58.3633)"/>
</clipPath>
<clipPath id="clip1_677_2083">
<rect width="6.17356" height="5.44726" fill="white" transform="translate(253.714 81.7734)"/>
</clipPath>
<clipPath id="clip2_677_2083">
<rect width="6.17356" height="5.44726" fill="white" transform="translate(253.714 105.185)"/>
</clipPath>
<clipPath id="clip3_677_2083">
<rect width="6.17356" height="5.44726" fill="white" transform="translate(253.714 128.597)"/>
</clipPath>
<clipPath id="clip4_677_2083">
<rect width="6.17356" height="5.44726" fill="white" transform="translate(253.714 152.01)"/>
</clipPath>
<clipPath id="clip5_677_2083">
<rect width="6.17356" height="5.44726" fill="white" transform="translate(253.714 175.422)"/>
</clipPath>
<clipPath id="clip6_677_2083">
<rect width="6.17356" height="5.44726" fill="white" transform="translate(253.714 222.246)"/>
</clipPath>
</defs>
</svg>
